<svg xmlns="http://www.w3.org/2000/svg" xmlns:xlink="http://www.w3.org/1999/xlink" width="500" zoomAndPan="magnify" viewBox="0 0 375 374.999991" height="500" preserveAspectRatio="xMidYMid meet" version="1.0"><defs><g/><clipPath id="44aed8de56"><path d="M 188.039062 118.875 L 262.355469 118.875 L 262.355469 177.664062 L 188.039062 177.664062 Z M 188.039062 118.875 " clip-rule="nonzero"/></clipPath><clipPath id="09ad24d729"><path d="M 215.335938 118.875 L 309.488281 118.875 L 309.488281 177.664062 L 215.335938 177.664062 Z M 215.335938 118.875 " clip-rule="nonzero"/></clipPath><clipPath id="c7b712a017"><path d="M 262.355469 118.875 L 309.375 177.664062 L 215.335938 177.664062 Z M 262.355469 118.875 " clip-rule="nonzero"/></clipPath><clipPath id="4f074e682b"><path d="M 148.460938 94.046875 L 282.375 94.046875 L 282.375 177.664062 L 148.460938 177.664062 Z M 148.460938 94.046875 " clip-rule="nonzero"/></clipPath><clipPath id="bc966a7d4a"><path d="M 215.335938 94.046875 L 282.214844 177.664062 L 148.460938 177.664062 Z M 215.335938 94.046875 " clip-rule="nonzero"/></clipPath><clipPath id="1858890200"><path d="M 78.433594 103.921875 L 98.550781 103.921875 L 98.550781 158.976562 L 78.433594 158.976562 Z M 78.433594 103.921875 " clip-rule="nonzero"/></clipPath><clipPath id="bd7577474d"><path d="M 58.433594 94.046875 L 192.347656 94.046875 L 192.347656 177.664062 L 58.433594 177.664062 Z M 58.433594 94.046875 " clip-rule="nonzero"/></clipPath><clipPath id="71cffbbcee"><path d="M 125.308594 94.046875 L 192.1875 177.664062 L 58.433594 177.664062 Z M 125.308594 94.046875 " clip-rule="nonzero"/></clipPath><clipPath id="b421b1cb46"><path d="M 125.308594 94.046875 L 215.335938 94.046875 L 215.335938 177.664062 L 125.308594 177.664062 Z M 125.308594 94.046875 " clip-rule="nonzero"/></clipPath><clipPath id="b6e442d255"><path d="M 215.335938 125.910156 L 303.859375 125.910156 L 303.859375 181.179688 L 215.335938 181.179688 Z M 215.335938 125.910156 " clip-rule="nonzero"/></clipPath><clipPath id="4f26fffbde"><path d="M 259.542969 125.910156 L 303.75 181.179688 L 215.335938 181.179688 Z M 259.542969 125.910156 " clip-rule="nonzero"/></clipPath><clipPath id="b7d935452d"><path d="M 192 112 L 263 112 L 263 122 L 192 122 Z M 192 112 " clip-rule="nonzero"/></clipPath><clipPath id="6214b28b9a"><path d="M 192.820312 124.457031 L 192.304688 118.039062 L 261.867188 112.453125 L 262.382812 118.871094 Z M 192.820312 124.457031 " clip-rule="nonzero"/></clipPath><clipPath id="46f28244c4"><path d="M 192.5625 121.25 L 261.84375 112.457031 L 262.359375 118.875 Z M 192.5625 121.25 " clip-rule="nonzero"/></clipPath><clipPath id="f10c57a2f2"><path d="M 65.515625 101.070312 L 190.226562 101.070312 L 190.226562 178.9375 L 65.515625 178.9375 Z M 65.515625 101.070312 " clip-rule="nonzero"/></clipPath><clipPath id="abb8dfe251"><path d="M 127.792969 101.070312 L 190.074219 178.9375 L 65.515625 178.9375 Z M 127.792969 101.070312 " clip-rule="nonzero"/></clipPath><clipPath id="2a5f8fe015"><path d="M 76.597656 103.921875 L 100.382812 103.921875 L 100.382812 109.921875 L 76.597656 109.921875 Z M 76.597656 103.921875 " clip-rule="nonzero"/></clipPath><clipPath id="b2cd5129d0"><path d="M 117.285156 151.863281 L 126.910156 151.863281 L 126.910156 161.671875 L 117.285156 161.671875 Z M 117.285156 151.863281 " clip-rule="nonzero"/></clipPath><clipPath id="b5270eb586"><path d="M 250.964844 157.839844 L 258.824219 157.839844 L 258.824219 165.84375 L 250.964844 165.84375 Z M 250.964844 157.839844 " clip-rule="nonzero"/></clipPath><clipPath id="31dc2dcfe4"><path d="M 117.285156 139.433594 L 126.910156 139.433594 L 126.910156 149.242188 L 117.285156 149.242188 Z M 117.285156 139.433594 " clip-rule="nonzero"/></clipPath><clipPath id="cc035400f6"><path d="M 250.964844 147.691406 L 258.824219 147.691406 L 258.824219 155.699219 L 250.964844 155.699219 Z M 250.964844 147.691406 " clip-rule="nonzero"/></clipPath><clipPath id="7348d1ba86"><path d="M 128.679688 151.863281 L 138.304688 151.863281 L 138.304688 161.671875 L 128.679688 161.671875 Z M 128.679688 151.863281 " clip-rule="nonzero"/></clipPath><clipPath id="1f06c6588e"><path d="M 260.265625 157.839844 L 268.121094 157.839844 L 268.121094 165.84375 L 260.265625 165.84375 Z M 260.265625 157.839844 " clip-rule="nonzero"/></clipPath><clipPath id="d542e156c9"><path d="M 128.679688 139.433594 L 138.304688 139.433594 L 138.304688 149.242188 L 128.679688 149.242188 Z M 128.679688 139.433594 " clip-rule="nonzero"/></clipPath><clipPath id="ee0d95c712"><path d="M 260.265625 147.691406 L 268.121094 147.691406 L 268.121094 155.699219 L 260.265625 155.699219 Z M 260.265625 147.691406 " clip-rule="nonzero"/></clipPath><clipPath id="e1178674b6"><path d="M 21.707031 168.046875 L 344.746094 168.046875 L 344.746094 209.582031 L 21.707031 209.582031 Z M 21.707031 168.046875 " clip-rule="nonzero"/></clipPath><clipPath id="355375f18d"><path d="M 183.199219 168.046875 C 94.011719 168.046875 21.707031 177.34375 21.707031 188.8125 C 21.707031 200.28125 94.011719 209.582031 183.199219 209.582031 C 272.386719 209.582031 344.691406 200.28125 344.691406 188.8125 C 344.691406 177.34375 272.386719 168.046875 183.199219 168.046875 Z M 183.199219 168.046875 " clip-rule="nonzero"/></clipPath><clipPath id="9481ab5cfb"><path d="M 0 174.648438 L 362.464844 174.648438 L 362.464844 216.183594 L 0 216.183594 Z M 0 174.648438 " clip-rule="nonzero"/></clipPath><clipPath id="552049ce5c"><path d="M 181.226562 174.648438 C 81.136719 174.648438 0 183.945312 0 195.417969 C 0 206.886719 81.136719 216.183594 181.226562 216.183594 C 281.3125 216.183594 362.453125 206.886719 362.453125 195.417969 C 362.453125 183.945312 281.3125 174.648438 181.226562 174.648438 Z M 181.226562 174.648438 " clip-rule="nonzero"/></clipPath></defs><g clip-path="url(#44aed8de56)"><path fill="#ffffff" d="M 188.039062 118.875 L 262.441406 118.875 L 262.441406 177.664062 L 188.039062 177.664062 Z M 188.039062 118.875 " fill-opacity="1" fill-rule="nonzero"/></g><g clip-path="url(#09ad24d729)"><g clip-path="url(#c7b712a017)"><path fill="#ffffff" d="M 215.335938 118.875 L 309.488281 118.875 L 309.488281 177.664062 L 215.335938 177.664062 Z M 215.335938 118.875 " fill-opacity="1" fill-rule="nonzero"/></g></g><g clip-path="url(#4f074e682b)"><g clip-path="url(#bc966a7d4a)"><path fill="#ffffff" d="M 148.460938 94.046875 L 282.375 94.046875 L 282.375 177.664062 L 148.460938 177.664062 Z M 148.460938 94.046875 " fill-opacity="1" fill-rule="nonzero"/></g></g><g clip-path="url(#1858890200)"><path fill="#ffffff" d="M 78.433594 103.921875 L 98.550781 103.921875 L 98.550781 159.007812 L 78.433594 159.007812 Z M 78.433594 103.921875 " fill-opacity="1" fill-rule="nonzero"/></g><g clip-path="url(#bd7577474d)"><g clip-path="url(#71cffbbcee)"><path fill="#ffffff" d="M 58.433594 94.046875 L 192.347656 94.046875 L 192.347656 177.664062 L 58.433594 177.664062 Z M 58.433594 94.046875 " fill-opacity="1" fill-rule="nonzero"/></g></g><g clip-path="url(#b421b1cb46)"><path fill="#ffffff" d="M 125.308594 94.046875 L 215.457031 94.046875 L 215.457031 177.664062 L 125.308594 177.664062 Z M 125.308594 94.046875 " fill-opacity="1" fill-rule="nonzero"/></g><g clip-path="url(#b6e442d255)"><g clip-path="url(#4f26fffbde)"><path fill="#000000" d="M 215.335938 125.910156 L 303.859375 125.910156 L 303.859375 181.179688 L 215.335938 181.179688 Z M 215.335938 125.910156 " fill-opacity="1" fill-rule="nonzero"/></g></g><g clip-path="url(#b7d935452d)"><g clip-path="url(#6214b28b9a)"><g clip-path="url(#46f28244c4)"><path fill="#000000" d="M 192.820312 124.457031 L 192.304688 118.039062 L 261.839844 112.457031 L 262.355469 118.875 Z M 192.820312 124.457031 " fill-opacity="1" fill-rule="nonzero"/></g></g></g><g clip-path="url(#f10c57a2f2)"><g clip-path="url(#abb8dfe251)"><path fill="#000000" d="M 65.515625 101.070312 L 190.226562 101.070312 L 190.226562 178.9375 L 65.515625 178.9375 Z M 65.515625 101.070312 " fill-opacity="1" fill-rule="nonzero"/></g></g><g clip-path="url(#2a5f8fe015)"><path fill="#ffffff" d="M 76.597656 103.921875 L 100.390625 103.921875 L 100.390625 109.921875 L 76.597656 109.921875 Z M 76.597656 103.921875 " fill-opacity="1" fill-rule="nonzero"/></g><g clip-path="url(#b2cd5129d0)"><path fill="#ffffff" d="M 117.285156 151.863281 L 126.910156 151.863281 L 126.910156 161.679688 L 117.285156 161.679688 Z M 117.285156 151.863281 " fill-opacity="1" fill-rule="nonzero"/></g><g clip-path="url(#b5270eb586)"><path fill="#ffffff" d="M 250.964844 157.839844 L 258.824219 157.839844 L 258.824219 165.847656 L 250.964844 165.847656 Z M 250.964844 157.839844 " fill-opacity="1" fill-rule="nonzero"/></g><g clip-path="url(#31dc2dcfe4)"><path fill="#ffffff" d="M 117.285156 139.433594 L 126.910156 139.433594 L 126.910156 149.246094 L 117.285156 149.246094 Z M 117.285156 139.433594 " fill-opacity="1" fill-rule="nonzero"/></g><g clip-path="url(#cc035400f6)"><path fill="#ffffff" d="M 250.964844 147.691406 L 258.824219 147.691406 L 258.824219 155.703125 L 250.964844 155.703125 Z M 250.964844 147.691406 " fill-opacity="1" fill-rule="nonzero"/></g><g clip-path="url(#7348d1ba86)"><path fill="#ffffff" d="M 128.679688 151.863281 L 138.304688 151.863281 L 138.304688 161.679688 L 128.679688 161.679688 Z M 128.679688 151.863281 " fill-opacity="1" fill-rule="nonzero"/></g><g clip-path="url(#1f06c6588e)"><path fill="#ffffff" d="M 260.265625 157.839844 L 268.121094 157.839844 L 268.121094 165.847656 L 260.265625 165.847656 Z M 260.265625 157.839844 " fill-opacity="1" fill-rule="nonzero"/></g><g clip-path="url(#d542e156c9)"><path fill="#ffffff" d="M 128.679688 139.433594 L 138.304688 139.433594 L 138.304688 149.246094 L 128.679688 149.246094 Z M 128.679688 139.433594 " fill-opacity="1" fill-rule="nonzero"/></g><g clip-path="url(#ee0d95c712)"><path fill="#ffffff" d="M 260.265625 147.691406 L 268.121094 147.691406 L 268.121094 155.703125 L 260.265625 155.703125 Z M 260.265625 147.691406 " fill-opacity="1" fill-rule="nonzero"/></g><g clip-path="url(#e1178674b6)"><g clip-path="url(#355375f18d)"><path fill="#ffffff" d="M 21.707031 168.046875 L 344.746094 168.046875 L 344.746094 209.582031 L 21.707031 209.582031 Z M 21.707031 168.046875 " fill-opacity="1" fill-rule="nonzero"/></g></g><g clip-path="url(#9481ab5cfb)"><g clip-path="url(#552049ce5c)"><path fill="#000000" d="M 0 174.648438 L 362.464844 174.648438 L 362.464844 216.183594 L 0 216.183594 Z M 0 174.648438 " fill-opacity="1" fill-rule="nonzero"/></g></g><g fill="#ffffff" fill-opacity="1"><g transform="translate(8.318827, 230.554942)"><g><path d="M 3.609375 0 L 3.609375 -27.78125 L 15.46875 -27.78125 C 17.175781 -27.78125 18.625 -27.507812 19.8125 -26.96875 C 21 -26.4375 21.894531 -25.671875 22.5 -24.671875 C 23.101562 -23.679688 23.40625 -22.507812 23.40625 -21.15625 C 23.40625 -19.925781 23.109375 -18.84375 22.515625 -17.90625 C 21.921875 -16.96875 21.066406 -16.210938 19.953125 -15.640625 L 19.953125 -15.234375 C 21.703125 -14.785156 23.050781 -13.957031 24 -12.75 C 24.945312 -11.550781 25.421875 -10.078125 25.421875 -8.328125 C 25.421875 -5.660156 24.617188 -3.601562 23.015625 -2.15625 C 21.421875 -0.71875 19.046875 0 15.890625 0 Z M 14.328125 -16.703125 C 16.890625 -16.703125 18.171875 -17.859375 18.171875 -20.171875 C 18.171875 -21.347656 17.851562 -22.222656 17.21875 -22.796875 C 16.582031 -23.367188 15.617188 -23.65625 14.328125 -23.65625 L 9.109375 -23.65625 L 9.109375 -16.703125 Z M 15.34375 -4.359375 C 18.363281 -4.359375 19.875 -5.726562 19.875 -8.46875 C 19.875 -11.238281 18.363281 -12.625 15.34375 -12.625 L 9.109375 -12.625 L 9.109375 -4.359375 Z M 15.34375 -4.359375 "/></g></g></g><g fill="#ffffff" fill-opacity="1"><g transform="translate(39.919576, 230.554942)"><g><path d="M 26.65625 0 L 20.890625 0 L 18.796875 -6.40625 L 8.15625 -6.40625 L 6.0625 0 L 0.421875 0 L 10.015625 -27.78125 L 17.0625 -27.78125 Z M 13.203125 -21.984375 L 9.640625 -11.015625 L 17.28125 -11.015625 L 13.6875 -21.984375 Z M 10.84375 -29.40625 L 7.078125 -29.40625 L 7.078125 -29.796875 L 10.953125 -35.109375 L 16.09375 -35.109375 L 19.96875 -29.796875 L 19.96875 -29.40625 L 16.203125 -29.40625 L 13.53125 -31.546875 Z M 10.84375 -29.40625 "/></g></g></g><g fill="#ffffff" fill-opacity="1"><g transform="translate(60.138253, 223.238977)"><g><path d="M -4.890625 -29.40625 L -8.625 -29.40625 L -8.625 -29.796875 L -6.046875 -35.109375 L 0 -35.109375 L 0 -34.703125 Z M -4.890625 -29.40625 "/></g></g></g><g fill="#ffffff" fill-opacity="1"><g transform="translate(71.425354, 230.554942)"><g><path d="M 22.28125 -27.78125 L 22.28125 -23.171875 L 14.25 -23.171875 L 14.25 0 L 8.78125 0 L 8.78125 -23.171875 L 0.765625 -23.171875 L 0.765625 -27.78125 Z M 22.28125 -27.78125 "/></g></g></g><g fill="#ffffff" fill-opacity="1"><g transform="translate(98.885045, 230.554942)"><g/></g></g><g fill="#ffffff" fill-opacity="1"><g transform="translate(112.496877, 230.554942)"><g><path d="M 13.765625 -27.78125 C 18.273438 -27.78125 21.71875 -26.613281 24.09375 -24.28125 C 26.46875 -21.957031 27.65625 -18.492188 27.65625 -13.890625 C 27.65625 -9.304688 26.46875 -5.84375 24.09375 -3.5 C 21.71875 -1.164062 18.273438 0 13.765625 0 L 3.765625 0 L 3.765625 -11.96875 L 1.03125 -11.96875 L 1.03125 -15.8125 L 3.765625 -15.8125 L 3.765625 -27.78125 Z M 13.4375 -4.625 C 16.300781 -4.625 18.441406 -5.351562 19.859375 -6.8125 C 21.273438 -8.28125 21.984375 -10.640625 21.984375 -13.890625 C 21.984375 -17.148438 21.273438 -19.507812 19.859375 -20.96875 C 18.441406 -22.4375 16.300781 -23.171875 13.4375 -23.171875 L 9.25 -23.171875 L 9.25 -15.8125 L 15.65625 -15.8125 L 15.65625 -11.96875 L 9.25 -11.96875 L 9.25 -4.625 Z M 13.4375 -4.625 "/></g></g></g><g fill="#ffffff" fill-opacity="1"><g transform="translate(146.776022, 230.554942)"><g><path d="M 28.71875 -13.9375 C 28.71875 -11.050781 28.242188 -8.535156 27.296875 -6.390625 C 26.359375 -4.253906 24.90625 -2.585938 22.9375 -1.390625 C 20.976562 -0.203125 18.492188 0.390625 15.484375 0.390625 C 12.472656 0.390625 9.988281 -0.203125 8.03125 -1.390625 C 6.070312 -2.585938 4.617188 -4.265625 3.671875 -6.421875 C 2.722656 -8.578125 2.25 -11.09375 2.25 -13.96875 C 2.25 -16.851562 2.722656 -19.359375 3.671875 -21.484375 C 4.617188 -23.609375 6.070312 -25.257812 8.03125 -26.4375 C 9.988281 -27.625 12.488281 -28.21875 15.53125 -28.21875 C 18.539062 -28.21875 21.019531 -27.625 22.96875 -26.4375 C 24.914062 -25.257812 26.359375 -23.597656 27.296875 -21.453125 C 28.242188 -19.316406 28.71875 -16.8125 28.71875 -13.9375 Z M 8.453125 -13.9375 C 8.453125 -11.03125 9.007812 -8.738281 10.125 -7.0625 C 11.238281 -5.382812 13.023438 -4.546875 15.484375 -4.546875 C 18.003906 -4.546875 19.804688 -5.382812 20.890625 -7.0625 C 21.984375 -8.738281 22.53125 -11.03125 22.53125 -13.9375 C 22.53125 -16.84375 21.984375 -19.128906 20.890625 -20.796875 C 19.804688 -22.472656 18.019531 -23.3125 15.53125 -23.3125 C 13.039062 -23.3125 11.238281 -22.472656 10.125 -20.796875 C 9.007812 -19.128906 8.453125 -16.84375 8.453125 -13.9375 Z M 15.484375 8.171875 C 14.609375 8.171875 13.863281 7.960938 13.25 7.546875 C 12.644531 7.128906 12.34375 6.390625 12.34375 5.328125 C 12.34375 4.242188 12.644531 3.5 13.25 3.09375 C 13.863281 2.6875 14.609375 2.484375 15.484375 2.484375 C 16.347656 2.484375 17.085938 2.6875 17.703125 3.09375 C 18.328125 3.5 18.640625 4.242188 18.640625 5.328125 C 18.640625 6.390625 18.328125 7.128906 17.703125 7.546875 C 17.085938 7.960938 16.347656 8.171875 15.484375 8.171875 Z M 18.90625 -36.34375 C 19.269531 -35.769531 19.742188 -35.125 20.328125 -34.40625 C 20.910156 -33.695312 21.515625 -33.003906 22.140625 -32.328125 C 22.765625 -31.660156 23.3125 -31.09375 23.78125 -30.625 L 23.78125 -30.125 L 19.921875 -30.125 C 19.242188 -30.53125 18.5 -31.015625 17.6875 -31.578125 C 16.875 -32.140625 16.140625 -32.769531 15.484375 -33.46875 C 14.804688 -32.769531 14.078125 -32.140625 13.296875 -31.578125 C 12.523438 -31.015625 11.800781 -30.53125 11.125 -30.125 L 7.28125 -30.125 L 7.28125 -30.625 C 7.738281 -31.113281 8.28125 -31.6875 8.90625 -32.34375 C 9.53125 -33.007812 10.132812 -33.695312 10.71875 -34.40625 C 11.300781 -35.125 11.773438 -35.769531 12.140625 -36.34375 Z M 18.90625 -36.34375 "/></g></g></g><g fill="#ffffff" fill-opacity="1"><g transform="translate(182.179918, 230.554942)"><g><path d="M 8.9375 0 L 3.609375 0 L 3.609375 -27.78125 L 9.90625 -27.78125 L 21.0625 -9.875 L 21.546875 -9.953125 L 21.546875 -27.78125 L 26.828125 -27.78125 L 26.828125 0 L 21.203125 0 L 9.40625 -19.125 L 8.9375 -19.046875 Z M 8.9375 0 "/></g></g></g><g fill="#ffffff" fill-opacity="1"><g transform="translate(217.066925, 230.554942)"><g><path d="M 13.5 0.40625 C 11.175781 0.40625 9.164062 -0.125 7.46875 -1.1875 C 5.78125 -2.25 4.476562 -3.84375 3.5625 -5.96875 C 2.644531 -8.101562 2.1875 -10.742188 2.1875 -13.890625 C 2.1875 -17.054688 2.738281 -19.707031 3.84375 -21.84375 C 4.945312 -23.976562 6.472656 -25.566406 8.421875 -26.609375 C 10.378906 -27.660156 12.648438 -28.1875 15.234375 -28.1875 C 17.898438 -28.1875 20.171875 -27.691406 22.046875 -26.703125 C 23.921875 -25.710938 25.238281 -24.242188 26 -22.296875 L 21.984375 -19.859375 L 21.515625 -19.875 C 20.941406 -21.113281 20.140625 -22.019531 19.109375 -22.59375 C 18.078125 -23.164062 16.785156 -23.453125 15.234375 -23.453125 C 12.847656 -23.453125 11.019531 -22.691406 9.75 -21.171875 C 8.476562 -19.660156 7.84375 -17.234375 7.84375 -13.890625 C 7.84375 -10.535156 8.4375 -8.097656 9.625 -6.578125 C 10.8125 -5.054688 12.5625 -4.296875 14.875 -4.296875 C 16.882812 -4.296875 18.363281 -4.742188 19.3125 -5.640625 C 20.257812 -6.546875 20.734375 -7.890625 20.734375 -9.671875 L 20.734375 -10.875 L 14.15625 -10.875 L 14.15625 -15.34375 L 26.1875 -15.34375 L 26.1875 0 L 20.9375 0 L 20.9375 -3.71875 L 20.546875 -3.78125 C 19.972656 -2.445312 19.109375 -1.414062 17.953125 -0.6875 C 16.796875 0.0390625 15.3125 0.40625 13.5 0.40625 Z M 13.5 0.40625 "/></g></g></g><g fill="#ffffff" fill-opacity="1"><g transform="translate(250.472268, 230.554942)"><g/></g></g><g fill="#ffffff" fill-opacity="1"><g transform="translate(264.0841, 230.554942)"><g><path d="M 12.3125 0.40625 C 10.382812 0.40625 8.671875 0.164062 7.171875 -0.3125 C 5.671875 -0.789062 4.421875 -1.414062 3.421875 -2.1875 C 2.421875 -2.957031 1.65625 -3.804688 1.125 -4.734375 L 4.140625 -8.421875 L 4.625 -8.421875 C 5.457031 -7.179688 6.515625 -6.191406 7.796875 -5.453125 C 9.085938 -4.722656 10.59375 -4.359375 12.3125 -4.359375 C 13.78125 -4.359375 14.890625 -4.664062 15.640625 -5.28125 C 16.390625 -5.90625 16.765625 -6.757812 16.765625 -7.84375 C 16.765625 -8.507812 16.644531 -9.0625 16.40625 -9.5 C 16.164062 -9.945312 15.765625 -10.328125 15.203125 -10.640625 C 14.648438 -10.960938 13.894531 -11.234375 12.9375 -11.453125 L 9.375 -12.28125 C 6.875 -12.84375 5.007812 -13.785156 3.78125 -15.109375 C 2.5625 -16.441406 1.953125 -18.164062 1.953125 -20.28125 C 1.953125 -21.851562 2.34375 -23.234375 3.125 -24.421875 C 3.914062 -25.609375 5.0625 -26.53125 6.5625 -27.1875 C 8.0625 -27.851562 9.859375 -28.1875 11.953125 -28.1875 C 14.097656 -28.1875 15.929688 -27.90625 17.453125 -27.34375 C 18.984375 -26.78125 20.273438 -25.914062 21.328125 -24.75 L 18.609375 -21.015625 L 18.125 -21.015625 C 17.34375 -21.835938 16.441406 -22.453125 15.421875 -22.859375 C 14.410156 -23.273438 13.253906 -23.484375 11.953125 -23.484375 C 10.441406 -23.484375 9.289062 -23.21875 8.5 -22.6875 C 7.71875 -22.15625 7.328125 -21.421875 7.328125 -20.484375 C 7.328125 -19.609375 7.601562 -18.910156 8.15625 -18.390625 C 8.707031 -17.878906 9.660156 -17.476562 11.015625 -17.1875 L 14.671875 -16.421875 C 17.367188 -15.847656 19.328125 -14.878906 20.546875 -13.515625 C 21.765625 -12.160156 22.375 -10.382812 22.375 -8.1875 C 22.375 -6.457031 22 -4.945312 21.25 -3.65625 C 20.5 -2.375 19.367188 -1.375 17.859375 -0.65625 C 16.359375 0.0507812 14.507812 0.40625 12.3125 0.40625 Z M 12.3125 0.40625 "/></g></g></g><g fill="#ffffff" fill-opacity="1"><g transform="translate(292.379592, 230.554942)"><g><path d="M 20.515625 0 L 18.484375 -6.609375 L 8.375 -6.609375 L 6.34375 0 L 0 0 L 9.8125 -27.90625 L 17.015625 -27.90625 L 26.859375 0 Z M 17.09375 -11.5625 L 15.0625 -18.015625 C 14.9375 -18.460938 14.769531 -19.019531 14.5625 -19.6875 C 14.351562 -20.363281 14.144531 -21.050781 13.9375 -21.75 C 13.726562 -22.457031 13.554688 -23.070312 13.421875 -23.59375 C 13.296875 -23.070312 13.125 -22.425781 12.90625 -21.65625 C 12.6875 -20.894531 12.476562 -20.171875 12.28125 -19.484375 C 12.082031 -18.796875 11.929688 -18.304688 11.828125 -18.015625 L 9.84375 -11.5625 Z M 18.296875 -34.671875 C 18.296875 -32.703125 17.269531 -31.457031 15.21875 -30.9375 L 15.015625 -29.578125 L 11.71875 -29.578125 L 11.28125 -32.375 C 12.238281 -32.53125 12.882812 -32.769531 13.21875 -33.09375 C 13.5625 -33.425781 13.734375 -33.828125 13.734375 -34.296875 C 13.734375 -34.703125 13.597656 -35.007812 13.328125 -35.21875 C 13.054688 -35.425781 12.710938 -35.53125 12.296875 -35.53125 C 11.773438 -35.53125 11.304688 -35.488281 10.890625 -35.40625 C 10.472656 -35.332031 10.0625 -35.234375 9.65625 -35.109375 L 9.65625 -38.296875 C 10.007812 -38.429688 10.5 -38.535156 11.125 -38.609375 C 11.75 -38.691406 12.375 -38.734375 13 -38.734375 C 14.757812 -38.734375 16.082031 -38.378906 16.96875 -37.671875 C 17.851562 -36.972656 18.296875 -35.972656 18.296875 -34.671875 Z M 18.296875 -34.671875 "/></g></g></g><g fill="#ffffff" fill-opacity="1"><g transform="translate(323.659742, 230.554942)"><g><path d="M 8.9375 0 L 3.609375 0 L 3.609375 -27.78125 L 9.90625 -27.78125 L 21.0625 -9.875 L 21.546875 -9.953125 L 21.546875 -27.78125 L 26.828125 -27.78125 L 26.828125 0 L 21.203125 0 L 9.40625 -19.125 L 8.9375 -19.046875 Z M 8.9375 0 "/></g></g></g><g fill="#ffffff" fill-opacity="1"><g transform="translate(358.547243, 230.554942)"><g/></g></g><g fill="#ffffff" fill-opacity="1"><g transform="translate(146.974276, 272.89846)"><g><path d="M 11.90625 0.34375 C 8.5625 0.34375 5.9375 -0.492188 4.03125 -2.171875 C 2.125 -3.859375 1.171875 -6.164062 1.171875 -9.09375 C 1.171875 -12.03125 2.113281 -14.34375 4 -16.03125 C 5.894531 -17.726562 8.488281 -18.578125 11.78125 -18.578125 C 14.300781 -18.578125 16.460938 -18.109375 18.265625 -17.171875 L 18.3125 -12.703125 L 18.109375 -12.703125 C 17.222656 -15.890625 15.203125 -17.484375 12.046875 -17.484375 C 9.992188 -17.484375 8.375 -16.738281 7.1875 -15.25 C 6 -13.769531 5.40625 -11.742188 5.40625 -9.171875 C 5.40625 -6.609375 5.972656 -4.570312 7.109375 -3.0625 C 8.242188 -1.5625 9.785156 -0.785156 11.734375 -0.734375 C 13.742188 -0.734375 15.28125 -1.234375 16.34375 -2.234375 C 17.414062 -3.273438 18.160156 -5.0625 18.578125 -7.59375 L 18.78125 -7.59375 L 19.046875 -3.125 C 17.640625 -0.800781 15.257812 0.351562 11.90625 0.34375 Z M 11.90625 0.34375 "/></g></g></g><g fill="#ffffff" fill-opacity="1"><g transform="translate(170.944498, 272.89846)"><g><path d="M 4.046875 -16.015625 C 5.890625 -17.722656 8.375 -18.578125 11.5 -18.578125 C 14.632812 -18.578125 17.125 -17.722656 18.96875 -16.015625 C 20.820312 -14.316406 21.75 -12.007812 21.75 -9.09375 C 21.75 -6.1875 20.820312 -3.882812 18.96875 -2.1875 C 17.125 -0.488281 14.632812 0.359375 11.5 0.359375 C 8.375 0.359375 5.890625 -0.488281 4.046875 -2.1875 C 2.203125 -3.882812 1.28125 -6.1875 1.28125 -9.09375 C 1.28125 -12.007812 2.203125 -14.316406 4.046875 -16.015625 Z M 7.140625 -2.984375 C 8.203125 -1.484375 9.648438 -0.734375 11.484375 -0.734375 C 13.328125 -0.734375 14.785156 -1.484375 15.859375 -2.984375 C 16.941406 -4.484375 17.484375 -6.523438 17.484375 -9.109375 C 17.484375 -11.691406 16.941406 -13.734375 15.859375 -15.234375 C 14.785156 -16.734375 13.328125 -17.484375 11.484375 -17.484375 C 9.648438 -17.484375 8.203125 -16.734375 7.140625 -15.234375 C 6.078125 -13.734375 5.546875 -11.691406 5.546875 -9.109375 C 5.546875 -6.523438 6.078125 -4.484375 7.140625 -2.984375 Z M 7.140625 -2.984375 "/></g></g></g><g fill="#ffffff" fill-opacity="1"><g transform="translate(197.462248, 272.89846)"><g><path d="M 16.3125 -13 C 16.3125 -12.207031 16.15625 -11.457031 15.84375 -10.75 C 15.25 -9.375 14.15625 -8.4375 12.5625 -7.9375 C 12.09375 -7.78125 11.660156 -7.703125 11.265625 -7.703125 C 10.035156 -7.703125 8.929688 -8.019531 7.953125 -8.65625 L 7.953125 -8.921875 C 9.253906 -8.890625 10.304688 -9.316406 11.109375 -10.203125 C 11.804688 -10.960938 12.15625 -11.957031 12.15625 -13.1875 C 12.15625 -14.4375 11.851562 -15.40625 11.25 -16.09375 C 10.65625 -16.78125 9.84375 -17.125 8.8125 -17.125 L 7.078125 -17.125 L 7.078125 -1.90625 C 7.078125 -1.445312 7.238281 -1.054688 7.5625 -0.734375 C 7.894531 -0.421875 8.285156 -0.265625 8.734375 -0.265625 L 9.078125 -0.265625 L 9.078125 0 L 1.171875 0 L 1.171875 -0.265625 L 1.515625 -0.265625 C 1.960938 -0.265625 2.34375 -0.421875 2.65625 -0.734375 C 2.976562 -1.054688 3.148438 -1.445312 3.171875 -1.90625 L 3.171875 -16.4375 C 3.171875 -16.875 3.003906 -17.234375 2.671875 -17.515625 C 2.347656 -17.804688 1.960938 -17.953125 1.515625 -17.953125 L 1.171875 -17.953125 L 1.171875 -18.203125 L 9.859375 -18.203125 C 11.972656 -18.203125 13.566406 -17.753906 14.640625 -16.859375 C 15.753906 -15.898438 16.3125 -14.613281 16.3125 -13 Z M 16.3125 -13 "/></g></g></g><g fill="#ffffff" fill-opacity="1"><g transform="translate(218.183084, 272.89846)"><g><path d="M 8.265625 -17.0625 L 7.15625 -17.0625 C 7.125 -17.0625 7.097656 -17.0625 7.078125 -17.0625 L 7.078125 -1.90625 C 7.097656 -1.445312 7.265625 -1.054688 7.578125 -0.734375 C 7.898438 -0.421875 8.285156 -0.265625 8.734375 -0.265625 L 9.078125 -0.265625 L 9.078125 0 L 1.171875 0 L 1.171875 -0.265625 L 1.515625 -0.265625 C 2.140625 -0.265625 2.613281 -0.53125 2.9375 -1.0625 C 3.070312 -1.3125 3.148438 -1.582031 3.171875 -1.875 L 3.171875 -16.3125 C 3.148438 -16.757812 2.976562 -17.144531 2.65625 -17.46875 C 2.34375 -17.789062 1.960938 -17.953125 1.515625 -17.953125 L 1.171875 -17.953125 L 1.171875 -18.203125 L 10.09375 -18.203125 C 11.78125 -18.203125 13.203125 -17.84375 14.359375 -17.125 C 14.953125 -16.757812 15.421875 -16.25 15.765625 -15.59375 C 16.109375 -14.945312 16.28125 -14.097656 16.28125 -13.046875 C 16.28125 -11.992188 15.914062 -10.984375 15.1875 -10.015625 C 14.457031 -9.046875 13.398438 -8.488281 12.015625 -8.34375 C 13.023438 -8.019531 13.910156 -7.257812 14.671875 -6.0625 C 16.546875 -3.0625 17.929688 -1.273438 18.828125 -0.703125 C 19.285156 -0.421875 19.851562 -0.273438 20.53125 -0.265625 L 20.53125 0 L 17.984375 0 C 16.472656 0 15.21875 -0.195312 14.21875 -0.59375 C 13.21875 -1 12.429688 -1.703125 11.859375 -2.703125 C 11.535156 -3.273438 10.816406 -4.757812 9.703125 -7.15625 C 9.210938 -8.207031 8.625 -8.785156 7.9375 -8.890625 L 7.9375 -9.15625 L 8.734375 -9.15625 C 9.515625 -9.15625 10.203125 -9.390625 10.796875 -9.859375 C 11.398438 -10.328125 11.804688 -11.09375 12.015625 -12.15625 C 12.085938 -12.519531 12.125 -12.800781 12.125 -13 C 12.125 -14.425781 11.835938 -15.457031 11.265625 -16.09375 C 10.691406 -16.726562 9.953125 -17.050781 9.046875 -17.0625 C 8.878906 -17.0625 8.617188 -17.0625 8.265625 -17.0625 Z M 8.265625 -17.0625 "/></g></g></g></svg>