<svg xmlns="http://www.w3.org/2000/svg" xmlns:xlink="http://www.w3.org/1999/xlink" width="500" zoomAndPan="magnify" viewBox="0 0 375 374.999991" height="500" preserveAspectRatio="xMidYMid meet" version="1.0"><defs><g/></defs><g fill="#ca8126" fill-opacity="1"><g transform="translate(74.388651, 224.755572)"><g><path d="M 54.390625 -97.859375 L 54.390625 -94.578125 L 41.828125 -94.578125 L 41.828125 -46.609375 L 72.15625 -75.453125 C 72.851562 -76.148438 73.625 -76.96875 74.46875 -77.90625 C 75.320312 -78.851562 76.097656 -79.847656 76.796875 -80.890625 C 77.492188 -81.941406 78.066406 -83.039062 78.515625 -84.1875 C 78.960938 -85.332031 79.1875 -86.503906 79.1875 -87.703125 C 79.1875 -90.085938 78.140625 -91.929688 76.046875 -93.234375 C 75.148438 -93.722656 74.03125 -94.09375 72.6875 -94.34375 C 71.34375 -94.59375 70.125 -94.671875 69.03125 -94.578125 L 69.03125 -97.859375 L 105.625 -97.859375 L 105.625 -94.578125 C 102.144531 -93.878906 99.160156 -92.753906 96.671875 -91.203125 C 94.179688 -89.660156 91.691406 -87.796875 89.203125 -85.609375 C 88.296875 -84.816406 87.171875 -83.796875 85.828125 -82.546875 C 84.484375 -81.296875 83.113281 -80.023438 81.71875 -78.734375 C 80.332031 -77.441406 79.066406 -76.269531 77.921875 -75.21875 C 76.773438 -74.175781 76 -73.457031 75.59375 -73.0625 L 66.484375 -64.25 L 100.546875 -3.28125 L 105.625 -3.28125 L 105.625 0 L 61.5625 0 L 61.5625 -3.28125 L 73.8125 -3.28125 L 48.859375 -47.8125 L 41.828125 -41.390625 L 41.828125 -3.28125 L 54.390625 -3.28125 L 54.390625 0 L 6.28125 0 L 6.28125 -3.28125 L 18.828125 -3.28125 L 18.828125 -94.578125 L 6.28125 -94.578125 L 6.28125 -97.859375 Z M 54.390625 -97.859375 "/></g></g></g><g fill="#ca8126" fill-opacity="1"><g transform="translate(190.026232, 224.755572)"><g><path d="M 59.609375 -97.859375 C 63.992188 -97.859375 67.953125 -97.332031 71.484375 -96.28125 C 75.023438 -95.238281 78.140625 -93.96875 80.828125 -92.46875 C 83.515625 -90.976562 85.851562 -89.363281 87.84375 -87.625 C 89.84375 -85.882812 91.488281 -84.316406 92.78125 -82.921875 C 95.164062 -80.128906 97.128906 -77.3125 98.671875 -74.46875 C 100.222656 -71.632812 101.394531 -68.773438 102.1875 -65.890625 C 102.988281 -63.003906 103.535156 -60.113281 103.828125 -57.21875 C 104.128906 -54.332031 104.28125 -51.394531 104.28125 -48.40625 C 104.28125 -45.71875 104.101562 -42.65625 103.75 -39.21875 C 103.40625 -35.78125 102.507812 -32.21875 101.0625 -28.53125 C 99.625 -24.851562 97.535156 -21.195312 94.796875 -17.5625 C 92.054688 -13.925781 88.296875 -10.613281 83.515625 -7.625 C 77.742188 -4.03125 72.566406 -1.859375 67.984375 -1.109375 C 63.398438 -0.367188 59.863281 0 57.375 0 L 6.28125 0 L 6.28125 -3.28125 L 18.828125 -3.28125 L 18.828125 -94.578125 L 6.28125 -94.578125 L 6.28125 -97.859375 Z M 41.828125 -3.28125 L 49.453125 -3.28125 C 51.242188 -3.28125 53.0625 -3.304688 54.90625 -3.359375 C 56.75 -3.410156 58.539062 -3.609375 60.28125 -3.953125 C 62.03125 -4.304688 63.722656 -4.851562 65.359375 -5.59375 C 67.003906 -6.34375 68.578125 -7.414062 70.078125 -8.8125 C 72.066406 -10.707031 73.609375 -12.972656 74.703125 -15.609375 C 75.796875 -18.253906 76.59375 -20.96875 77.09375 -23.75 C 77.59375 -26.539062 77.890625 -29.304688 77.984375 -32.046875 C 78.085938 -34.785156 78.140625 -37.203125 78.140625 -39.296875 L 78.140625 -63.34375 C 78.140625 -67.332031 77.890625 -71.316406 77.390625 -75.296875 C 76.890625 -79.285156 75.25 -83.070312 72.46875 -86.65625 C 70.96875 -88.550781 69.367188 -90.046875 67.671875 -91.140625 C 65.984375 -92.234375 64.289062 -93.03125 62.59375 -93.53125 C 60.90625 -94.03125 59.210938 -94.328125 57.515625 -94.421875 C 55.828125 -94.523438 54.1875 -94.578125 52.59375 -94.578125 L 41.828125 -94.578125 Z M 41.828125 -3.28125 "/></g></g></g><g fill="#f8f8f8" fill-opacity="1"><g transform="translate(18.979329, 192.668184)"><g><path d="M 62.453125 -50.5 C 62.609375 -50.46875 62.757812 -50.425781 62.90625 -50.375 C 63.050781 -50.320312 63.164062 -50.21875 63.25 -50.0625 C 63.320312 -49.90625 63.332031 -49.757812 63.28125 -49.625 C 63.238281 -49.488281 63.160156 -49.351562 63.046875 -49.21875 C 62.835938 -49 62.597656 -48.789062 62.328125 -48.59375 C 62.222656 -48.507812 62.132812 -48.410156 62.0625 -48.296875 C 55 -42.046875 48.085938 -35.632812 41.328125 -29.0625 C 38.179688 -25.976562 35.160156 -22.78125 32.265625 -19.46875 C 31.804688 -18.96875 31.554688 -18.628906 31.515625 -18.453125 C 31.484375 -18.273438 31.578125 -18.207031 31.796875 -18.25 C 32.023438 -18.289062 32.328125 -18.367188 32.703125 -18.484375 C 32.890625 -18.523438 33.09375 -18.578125 33.3125 -18.640625 C 33.382812 -18.640625 33.445312 -18.648438 33.5 -18.671875 C 34.195312 -18.828125 34.882812 -18.972656 35.5625 -19.109375 C 36.238281 -19.242188 36.9375 -19.300781 37.65625 -19.28125 C 40.6875 -19.125 42.6875 -17.59375 43.65625 -14.6875 C 43.945312 -13.820312 44.140625 -12.953125 44.234375 -12.078125 C 44.335938 -11.203125 44.410156 -10.328125 44.453125 -9.453125 C 44.492188 -7.398438 44.472656 -4.875 44.390625 -1.875 C 44.347656 0.976562 44.335938 3.9375 44.359375 7 C 44.378906 10.0625 44.566406 12.898438 44.921875 15.515625 C 45.273438 18.140625 45.882812 20.21875 46.75 21.75 C 47.101562 22.320312 47.570312 22.820312 48.15625 23.25 C 48.976562 23.84375 49.84375 23.875 50.75 23.34375 C 51.5 22.882812 52.070312 22.265625 52.46875 21.484375 C 52.976562 20.773438 53.65625 20.539062 54.5 20.78125 C 54.75 20.832031 54.929688 20.960938 55.046875 21.171875 C 55.171875 21.378906 55.191406 21.59375 55.109375 21.8125 C 54.816406 22.632812 54.363281 23.34375 53.75 23.9375 C 52.925781 24.695312 51.914062 25.191406 50.71875 25.421875 C 49.519531 25.660156 48.34375 25.613281 47.1875 25.28125 C 46.03125 24.945312 45.078125 24.335938 44.328125 23.453125 C 43.171875 21.910156 42.359375 19.804688 41.890625 17.140625 C 41.429688 14.484375 41.175781 11.5625 41.125 8.375 C 41.082031 5.195312 41.082031 2.066406 41.125 -1.015625 C 41.175781 -3.117188 41.195312 -5.070312 41.1875 -6.875 C 41.175781 -8.6875 41.101562 -10.28125 40.96875 -11.65625 C 40.851562 -12.894531 40.550781 -14.070312 40.0625 -15.1875 C 39.195312 -16.976562 37.796875 -17.664062 35.859375 -17.25 C 34.628906 -16.976562 33.457031 -16.59375 32.34375 -16.09375 C 31.226562 -15.601562 30.140625 -15.035156 29.078125 -14.390625 C 28.347656 -14.023438 27.945312 -13.425781 27.875 -12.59375 C 27.28125 -8.070312 26.519531 -3.578125 25.59375 0.890625 C 25.0625 3.523438 24.367188 6.332031 23.515625 9.3125 C 22.660156 12.300781 21.632812 15.207031 20.4375 18.03125 C 19.238281 20.863281 17.84375 23.398438 16.25 25.640625 C 15.425781 26.765625 14.476562 27.773438 13.40625 28.671875 C 11.945312 29.984375 10.25 30.570312 8.3125 30.4375 C 6.414062 30.332031 5.109375 29.410156 4.390625 27.671875 C 3.722656 25.984375 3.585938 23.960938 3.984375 21.609375 C 4.390625 19.265625 5.097656 16.835938 6.109375 14.328125 C 7.117188 11.816406 8.191406 9.46875 9.328125 7.28125 C 10.472656 5.101562 11.46875 3.335938 12.3125 1.984375 C 13.925781 -0.660156 15.648438 -3.21875 17.484375 -5.6875 C 19.316406 -8.164062 21.222656 -10.601562 23.203125 -13 C 23.304688 -13.125 23.425781 -13.273438 23.5625 -13.453125 C 23.78125 -13.710938 23.988281 -13.976562 24.1875 -14.25 C 24.726562 -14.851562 25.023438 -15.554688 25.078125 -16.359375 C 25.285156 -18.328125 25.488281 -20.726562 25.6875 -23.5625 C 25.882812 -26.40625 25.988281 -29.363281 26 -32.4375 C 26.019531 -35.507812 25.84375 -38.414062 25.46875 -41.15625 C 25.101562 -43.894531 24.425781 -46.15625 23.4375 -47.9375 C 22.769531 -49.195312 21.742188 -49.703125 20.359375 -49.453125 C 19.453125 -49.273438 18.566406 -49.035156 17.703125 -48.734375 C 16.835938 -48.460938 15.488281 -47.851562 13.65625 -46.90625 C 11.820312 -45.96875 9.695312 -44.785156 7.28125 -43.359375 C 4.875 -41.941406 2.414062 -40.347656 -0.09375 -38.578125 C -2.601562 -36.804688 -4.953125 -34.945312 -7.140625 -33 C -9.328125 -31.0625 -11.132812 -29.101562 -12.5625 -27.125 C -13.988281 -25.15625 -14.804688 -23.265625 -15.015625 -21.453125 C -15.234375 -19.648438 -14.617188 -17.992188 -13.171875 -16.484375 C -12.398438 -15.703125 -11.515625 -15.101562 -10.515625 -14.6875 C -7.179688 -13.195312 -3.71875 -12.796875 -0.125 -13.484375 C 0.0078125 -13.503906 0.140625 -13.53125 0.265625 -13.5625 C 0.597656 -13.644531 0.914062 -13.695312 1.21875 -13.71875 C 1.519531 -13.75 1.832031 -13.726562 2.15625 -13.65625 C 2.3125 -13.59375 2.441406 -13.507812 2.546875 -13.40625 C 2.660156 -13.300781 2.71875 -13.164062 2.71875 -13 C 2.71875 -12.894531 2.679688 -12.789062 2.609375 -12.6875 C 2.546875 -12.582031 2.460938 -12.503906 2.359375 -12.453125 C 1.878906 -12.210938 1.382812 -12.023438 0.875 -11.890625 C -3.476562 -11.023438 -7.738281 -11.394531 -11.90625 -13 C -13.414062 -13.613281 -14.75 -14.519531 -15.90625 -15.71875 C -17.519531 -17.445312 -18.226562 -19.335938 -18.03125 -21.390625 C -17.832031 -23.441406 -16.972656 -25.550781 -15.453125 -27.71875 C -13.929688 -29.882812 -11.972656 -32.03125 -9.578125 -34.15625 C -7.179688 -36.289062 -4.585938 -38.320312 -1.796875 -40.25 C 0.992188 -42.175781 3.742188 -43.90625 6.453125 -45.4375 C 9.160156 -46.96875 11.59375 -48.222656 13.75 -49.203125 C 15.914062 -50.191406 17.578125 -50.820312 18.734375 -51.09375 C 19.640625 -51.289062 20.554688 -51.367188 21.484375 -51.328125 C 24.085938 -51.328125 25.910156 -50.148438 26.953125 -47.796875 C 27.859375 -45.679688 28.484375 -43.210938 28.828125 -40.390625 C 29.171875 -37.566406 29.335938 -34.722656 29.328125 -31.859375 C 29.316406 -29.003906 29.203125 -26.460938 28.984375 -24.234375 C 28.984375 -24.035156 28.972656 -23.859375 28.953125 -23.703125 C 28.867188 -22.878906 28.828125 -22.066406 28.828125 -21.265625 C 28.828125 -20.804688 28.882812 -20.503906 29 -20.359375 C 29.125 -20.210938 29.375 -20.351562 29.75 -20.78125 C 33.875 -25.414062 38.195312 -29.832031 42.71875 -34.03125 C 47.25 -38.238281 51.84375 -42.367188 56.5 -46.421875 C 56.789062 -46.671875 57.070312 -46.925781 57.34375 -47.1875 C 58.351562 -48.039062 59.347656 -48.90625 60.328125 -49.78125 C 60.941406 -50.34375 61.648438 -50.582031 62.453125 -50.5 Z M 23.890625 -7.796875 C 23.890625 -7.890625 23.898438 -7.988281 23.921875 -8.09375 C 23.972656 -8.226562 24 -8.359375 24 -8.484375 C 24 -8.617188 23.90625 -8.722656 23.71875 -8.796875 C 23.582031 -8.859375 23.472656 -8.847656 23.390625 -8.765625 C 23.316406 -8.691406 23.238281 -8.601562 23.15625 -8.5 C 23.132812 -8.4375 23.09375 -8.378906 23.03125 -8.328125 C 22.875 -8.109375 22.71875 -7.910156 22.5625 -7.734375 C 22.539062 -7.679688 22.5 -7.640625 22.4375 -7.609375 C 20.96875 -5.722656 19.316406 -3.40625 17.484375 -0.65625 C 15.648438 2.082031 13.894531 5.023438 12.21875 8.171875 C 10.539062 11.328125 9.207031 14.441406 8.21875 17.515625 C 7.238281 20.597656 6.882812 23.382812 7.15625 25.875 C 7.175781 26.207031 7.253906 26.519531 7.390625 26.8125 C 8.003906 28.644531 9.046875 28.960938 10.515625 27.765625 C 11.085938 27.285156 11.628906 26.753906 12.140625 26.171875 C 13.648438 24.441406 15.007812 22.316406 16.21875 19.796875 C 17.4375 17.285156 18.5 14.601562 19.40625 11.75 C 20.3125 8.90625 21.082031 6.117188 21.71875 3.390625 C 22.363281 0.660156 22.867188 -1.78125 23.234375 -3.9375 C 23.472656 -5.21875 23.691406 -6.503906 23.890625 -7.796875 Z M 23.890625 -7.796875 "/></g></g></g><g fill="#f8f8f8" fill-opacity="1"><g transform="translate(69.991112, 192.668184)"><g><path d="M 63.859375 -9.171875 C 63.941406 -9.117188 64.003906 -9.03125 64.046875 -8.90625 C 64.097656 -8.789062 64.125 -8.675781 64.125 -8.5625 C 64.15625 -8.300781 64.003906 -8.117188 63.671875 -8.015625 C 63.347656 -7.910156 62.929688 -7.84375 62.421875 -7.8125 C 61.910156 -7.78125 61.398438 -7.765625 60.890625 -7.765625 C 60.253906 -7.765625 59.773438 -7.742188 59.453125 -7.703125 C 59.140625 -7.640625 58.957031 -7.492188 58.90625 -7.265625 C 58.851562 -7.046875 58.847656 -6.671875 58.890625 -6.140625 C 58.921875 -5.847656 58.953125 -5.5 58.984375 -5.09375 C 59.328125 0.6875 60.03125 6.421875 61.09375 12.109375 C 61.113281 12.210938 61.144531 12.304688 61.1875 12.390625 C 61.226562 12.597656 61.25 12.8125 61.25 13.03125 C 61.207031 13.40625 60.984375 13.671875 60.578125 13.828125 C 60.179688 13.984375 59.757812 13.976562 59.3125 13.8125 C 58.875 13.644531 58.59375 13.238281 58.46875 12.59375 C 58.300781 11.738281 58.140625 10.882812 57.984375 10.03125 C 57.722656 8.863281 57.492188 7.679688 57.296875 6.484375 C 56.609375 2.441406 56.117188 -1.617188 55.828125 -5.703125 C 55.804688 -6.335938 55.703125 -6.734375 55.515625 -6.890625 C 55.328125 -7.054688 54.898438 -7.09375 54.234375 -7 C 52.679688 -6.875 51.148438 -6.71875 49.640625 -6.53125 C 45.429688 -5.945312 41.207031 -5.484375 36.96875 -5.140625 C 36.945312 -5.140625 36.925781 -5.140625 36.90625 -5.140625 C 36.851562 -5.140625 36.796875 -5.140625 36.734375 -5.140625 C 35.328125 -5.160156 34.382812 -4.453125 33.90625 -3.015625 C 32.46875 0.921875 30.738281 4.71875 28.71875 8.375 C 26.445312 12.519531 23.691406 16.320312 20.453125 19.78125 C 18.191406 22.09375 15.613281 23.976562 12.71875 25.4375 C 9.832031 26.90625 6.859375 27.929688 3.796875 28.515625 C 0.734375 29.109375 -2.191406 29.265625 -4.984375 28.984375 C -7.785156 28.703125 -10.222656 27.976562 -12.296875 26.8125 C -14.367188 25.65625 -15.867188 24.0625 -16.796875 22.03125 C -17.734375 20 -17.859375 17.519531 -17.171875 14.59375 C -16.484375 11.925781 -15.21875 9.644531 -13.375 7.75 C -11.539062 5.863281 -9.382812 4.273438 -6.90625 2.984375 C -4.425781 1.691406 -1.859375 0.628906 0.796875 -0.203125 C 3.460938 -1.046875 5.976562 -1.757812 8.34375 -2.34375 C 11.832031 -3.226562 15.53125 -4.023438 19.4375 -4.734375 C 23.351562 -5.453125 27.097656 -5.960938 30.671875 -6.265625 C 31.609375 -6.285156 32.234375 -6.75 32.546875 -7.65625 C 32.765625 -8.257812 33.003906 -8.859375 33.265625 -9.453125 C 33.378906 -9.722656 33.484375 -9.972656 33.578125 -10.203125 C 34.085938 -11.429688 34.597656 -12.671875 35.109375 -13.921875 C 36.835938 -18.335938 38.695312 -22.789062 40.6875 -27.28125 C 42.6875 -31.769531 44.9375 -36.078125 47.4375 -40.203125 C 49.945312 -44.328125 52.820312 -48.066406 56.0625 -51.421875 C 56.882812 -52.222656 57.75 -52.988281 58.65625 -53.71875 C 59.082031 -54.070312 59.675781 -54.34375 60.4375 -54.53125 C 61.195312 -54.71875 61.84375 -54.679688 62.375 -54.421875 C 62.914062 -54.171875 63.0625 -53.539062 62.8125 -52.53125 C 62.257812 -50.4375 61.78125 -48.304688 61.375 -46.140625 C 60.976562 -43.984375 60.617188 -41.828125 60.296875 -39.671875 C 60.296875 -39.566406 60.285156 -39.457031 60.265625 -39.34375 C 59.515625 -34.457031 59.050781 -29.851562 58.875 -25.53125 C 58.707031 -21.207031 58.632812 -16.582031 58.65625 -11.65625 C 58.65625 -11.125 58.679688 -10.59375 58.734375 -10.0625 C 58.765625 -9.6875 58.953125 -9.484375 59.296875 -9.453125 C 59.890625 -9.421875 60.460938 -9.421875 61.015625 -9.453125 C 61.679688 -9.484375 62.347656 -9.484375 63.015625 -9.453125 C 63.304688 -9.421875 63.585938 -9.328125 63.859375 -9.171875 Z M 30.703125 -3.0625 C 30.921875 -3.644531 30.941406 -4.003906 30.765625 -4.140625 C 30.597656 -4.273438 30.222656 -4.296875 29.640625 -4.203125 C 26.804688 -3.847656 23.976562 -3.441406 21.15625 -2.984375 C 18.34375 -2.535156 15.550781 -1.976562 12.78125 -1.3125 C 12.375 -1.195312 11.960938 -1.097656 11.546875 -1.015625 C 9.234375 -0.460938 6.75 0.191406 4.09375 0.953125 C 1.445312 1.710938 -1.125 2.675781 -3.625 3.84375 C -6.132812 5.019531 -8.304688 6.484375 -10.140625 8.234375 C -11.972656 9.992188 -13.25 12.113281 -13.96875 14.59375 C -14.707031 17.675781 -14.53125 20.175781 -13.4375 22.09375 C -12.351562 24.007812 -10.640625 25.382812 -8.296875 26.21875 C -5.960938 27.0625 -3.320312 27.375 -0.375 27.15625 C 2.5625 26.945312 5.492188 26.25 8.421875 25.0625 C 11.347656 23.875 13.972656 22.234375 16.296875 20.140625 C 19.535156 17.023438 22.289062 13.523438 24.5625 9.640625 C 25.78125 7.617188 26.878906 5.539062 27.859375 3.40625 C 28.847656 1.28125 29.796875 -0.875 30.703125 -3.0625 Z M 58.21875 -45.296875 C 58.21875 -45.359375 58.234375 -45.441406 58.265625 -45.546875 C 58.347656 -45.972656 58.460938 -46.570312 58.609375 -47.34375 C 58.753906 -48.113281 58.847656 -48.804688 58.890625 -49.421875 C 58.984375 -49.953125 58.96875 -50.269531 58.84375 -50.375 C 58.71875 -50.476562 58.429688 -50.265625 57.984375 -49.734375 C 57.722656 -49.421875 57.457031 -49.101562 57.1875 -48.78125 C 56.175781 -47.65625 55.191406 -46.492188 54.234375 -45.296875 C 52.078125 -42.523438 50.066406 -39.40625 48.203125 -35.9375 C 46.335938 -32.46875 44.609375 -28.867188 43.015625 -25.140625 C 41.421875 -21.410156 39.914062 -17.78125 38.5 -14.25 C 37.832031 -12.613281 37.175781 -11.039062 36.53125 -9.53125 C 35.976562 -8.21875 35.765625 -7.4375 35.890625 -7.1875 C 36.023438 -6.9375 36.640625 -6.90625 37.734375 -7.09375 C 37.890625 -7.09375 38.078125 -7.109375 38.296875 -7.140625 C 41.578125 -7.453125 44.835938 -7.804688 48.078125 -8.203125 C 49.492188 -8.367188 50.90625 -8.53125 52.3125 -8.6875 C 52.601562 -8.738281 52.878906 -8.773438 53.140625 -8.796875 C 53.628906 -8.859375 54.125 -8.914062 54.625 -8.96875 C 54.945312 -8.988281 55.179688 -9.082031 55.328125 -9.25 C 55.472656 -9.414062 55.546875 -9.6875 55.546875 -10.0625 C 55.546875 -10.289062 55.546875 -10.535156 55.546875 -10.796875 C 55.546875 -10.929688 55.546875 -11.066406 55.546875 -11.203125 C 55.515625 -17.222656 55.648438 -22.878906 55.953125 -28.171875 C 56.265625 -33.472656 57.019531 -39.179688 58.21875 -45.296875 Z M 58.21875 -45.296875 "/></g></g></g><g fill="#f8f8f8" fill-opacity="1"><g transform="translate(135.55695, 192.668184)"><g><path d="M 16.875 11.15625 C 17.5 11.1875 18.113281 11.164062 18.71875 11.09375 C 19.332031 11.03125 19.914062 10.878906 20.46875 10.640625 C 22.15625 9.835938 22.734375 8.570312 22.203125 6.84375 C 21.910156 5.957031 21.457031 5.144531 20.84375 4.40625 C 20.125 3.5 19.335938 2.65625 18.484375 1.875 C 17.628906 1.101562 16.75 0.363281 15.84375 -0.34375 C 15.332031 -0.71875 14.851562 -0.707031 14.40625 -0.3125 C 13.019531 0.726562 11.769531 1.890625 10.65625 3.171875 C 10.164062 3.753906 9.753906 4.390625 9.421875 5.078125 C 8.691406 6.785156 9.046875 8.226562 10.484375 9.40625 C 11.179688 9.9375 11.945312 10.320312 12.78125 10.5625 C 14.113281 10.957031 15.476562 11.15625 16.875 11.15625 Z M 17.71875 -2.609375 C 17.78125 -2.378906 17.878906 -2.1875 18.015625 -2.03125 C 18.160156 -1.882812 18.316406 -1.765625 18.484375 -1.671875 C 18.585938 -1.585938 18.691406 -1.503906 18.796875 -1.421875 C 19.222656 -1.054688 19.648438 -0.671875 20.078125 -0.265625 C 20.867188 0.429688 21.640625 1.125 22.390625 1.8125 C 23.484375 2.820312 24.363281 3.988281 25.03125 5.3125 C 25.695312 6.644531 25.867188 7.9375 25.546875 9.1875 C 25.222656 10.445312 24.238281 11.453125 22.59375 12.203125 C 21.90625 12.515625 21.175781 12.722656 20.40625 12.828125 C 18.914062 13.015625 17.414062 13.085938 15.90625 13.046875 C 14.40625 13.015625 12.921875 12.796875 11.453125 12.390625 C 10.734375 12.203125 10.039062 11.945312 9.375 11.625 C 8.71875 11.3125 8.125 10.90625 7.59375 10.40625 C 5.6875 8.664062 5.285156 6.632812 6.390625 4.3125 C 6.835938 3.425781 7.40625 2.601562 8.09375 1.84375 C 9.21875 0.675781 10.414062 -0.410156 11.6875 -1.421875 C 12.332031 -1.921875 12.644531 -2.285156 12.625 -2.515625 C 12.613281 -2.753906 12.25 -3.082031 11.53125 -3.5 C 10.226562 -4.375 8.914062 -5.238281 7.59375 -6.09375 C 6.882812 -6.539062 6.1875 -6.992188 5.5 -7.453125 C 5.070312 -7.742188 4.648438 -8.023438 4.234375 -8.296875 C 3.160156 -8.960938 2.109375 -9.664062 1.078125 -10.40625 C -0.0976562 -11.238281 -1.195312 -12.144531 -2.21875 -13.125 C -3.238281 -14.101562 -4.140625 -15.207031 -4.921875 -16.4375 C -6.515625 -19.019531 -7.101562 -21.65625 -6.6875 -24.34375 C -6.28125 -27.03125 -5.113281 -29.617188 -3.1875 -32.109375 C -1.257812 -34.597656 1.164062 -36.84375 4.09375 -38.84375 C 7.03125 -40.84375 10.207031 -42.457031 13.625 -43.6875 C 17.050781 -44.925781 20.460938 -45.640625 23.859375 -45.828125 C 27.253906 -46.015625 30.375 -45.535156 33.21875 -44.390625 C 36.0625 -43.242188 38.398438 -41.273438 40.234375 -38.484375 C 40.566406 -37.972656 40.84375 -37.429688 41.0625 -36.859375 C 41.289062 -36.296875 41.40625 -35.691406 41.40625 -35.046875 C 41.40625 -34.410156 41.113281 -34.007812 40.53125 -33.84375 C 40.132812 -33.738281 39.769531 -33.742188 39.4375 -33.859375 C 39.101562 -33.984375 38.847656 -34.179688 38.671875 -34.453125 C 38.648438 -34.523438 38.628906 -34.613281 38.609375 -34.71875 C 38.578125 -34.78125 38.5625 -34.835938 38.5625 -34.890625 C 37.34375 -38.265625 35.535156 -40.671875 33.140625 -42.109375 C 30.742188 -43.546875 28.03125 -44.21875 25 -44.125 C 21.976562 -44.039062 18.890625 -43.382812 15.734375 -42.15625 C 12.585938 -40.925781 9.628906 -39.359375 6.859375 -37.453125 C 4.085938 -35.554688 1.765625 -33.515625 -0.109375 -31.328125 C -1.984375 -29.148438 -3.144531 -27.03125 -3.59375 -24.96875 C -4.050781 -22.414062 -3.613281 -20.050781 -2.28125 -17.875 C -1.21875 -16.039062 0.140625 -14.46875 1.796875 -13.15625 C 3.066406 -12.15625 4.367188 -11.203125 5.703125 -10.296875 C 6.898438 -9.515625 8.082031 -8.75 9.25 -8 C 10.875 -6.976562 12.472656 -5.929688 14.046875 -4.859375 C 14.492188 -4.535156 14.910156 -4.390625 15.296875 -4.421875 C 15.679688 -4.453125 16.085938 -4.613281 16.515625 -4.90625 C 18.617188 -6.175781 20.695312 -7.34375 22.75 -8.40625 C 24.800781 -9.46875 25.9375 -9.757812 26.15625 -9.28125 C 26.382812 -8.800781 26.0625 -8.242188 25.1875 -7.609375 C 23.132812 -6.515625 21.164062 -5.289062 19.28125 -3.9375 C 19.164062 -3.882812 19.0625 -3.816406 18.96875 -3.734375 C 18.457031 -3.472656 18.039062 -3.097656 17.71875 -2.609375 Z M 17.71875 -2.609375 "/></g></g></g><g fill="#f8f8f8" fill-opacity="1"><g transform="translate(158.984987, 192.668184)"><g><path d="M 16.875 11.15625 C 17.5 11.1875 18.113281 11.164062 18.71875 11.09375 C 19.332031 11.03125 19.914062 10.878906 20.46875 10.640625 C 22.15625 9.835938 22.734375 8.570312 22.203125 6.84375 C 21.910156 5.957031 21.457031 5.144531 20.84375 4.40625 C 20.125 3.5 19.335938 2.65625 18.484375 1.875 C 17.628906 1.101562 16.75 0.363281 15.84375 -0.34375 C 15.332031 -0.71875 14.851562 -0.707031 14.40625 -0.3125 C 13.019531 0.726562 11.769531 1.890625 10.65625 3.171875 C 10.164062 3.753906 9.753906 4.390625 9.421875 5.078125 C 8.691406 6.785156 9.046875 8.226562 10.484375 9.40625 C 11.179688 9.9375 11.945312 10.320312 12.78125 10.5625 C 14.113281 10.957031 15.476562 11.15625 16.875 11.15625 Z M 17.71875 -2.609375 C 17.78125 -2.378906 17.878906 -2.1875 18.015625 -2.03125 C 18.160156 -1.882812 18.316406 -1.765625 18.484375 -1.671875 C 18.585938 -1.585938 18.691406 -1.503906 18.796875 -1.421875 C 19.222656 -1.054688 19.648438 -0.671875 20.078125 -0.265625 C 20.867188 0.429688 21.640625 1.125 22.390625 1.8125 C 23.484375 2.820312 24.363281 3.988281 25.03125 5.3125 C 25.695312 6.644531 25.867188 7.9375 25.546875 9.1875 C 25.222656 10.445312 24.238281 11.453125 22.59375 12.203125 C 21.90625 12.515625 21.175781 12.722656 20.40625 12.828125 C 18.914062 13.015625 17.414062 13.085938 15.90625 13.046875 C 14.40625 13.015625 12.921875 12.796875 11.453125 12.390625 C 10.734375 12.203125 10.039062 11.945312 9.375 11.625 C 8.71875 11.3125 8.125 10.90625 7.59375 10.40625 C 5.6875 8.664062 5.285156 6.632812 6.390625 4.3125 C 6.835938 3.425781 7.40625 2.601562 8.09375 1.84375 C 9.21875 0.675781 10.414062 -0.410156 11.6875 -1.421875 C 12.332031 -1.921875 12.644531 -2.285156 12.625 -2.515625 C 12.613281 -2.753906 12.25 -3.082031 11.53125 -3.5 C 10.226562 -4.375 8.914062 -5.238281 7.59375 -6.09375 C 6.882812 -6.539062 6.1875 -6.992188 5.5 -7.453125 C 5.070312 -7.742188 4.648438 -8.023438 4.234375 -8.296875 C 3.160156 -8.960938 2.109375 -9.664062 1.078125 -10.40625 C -0.0976562 -11.238281 -1.195312 -12.144531 -2.21875 -13.125 C -3.238281 -14.101562 -4.140625 -15.207031 -4.921875 -16.4375 C -6.515625 -19.019531 -7.101562 -21.65625 -6.6875 -24.34375 C -6.28125 -27.03125 -5.113281 -29.617188 -3.1875 -32.109375 C -1.257812 -34.597656 1.164062 -36.84375 4.09375 -38.84375 C 7.03125 -40.84375 10.207031 -42.457031 13.625 -43.6875 C 17.050781 -44.925781 20.460938 -45.640625 23.859375 -45.828125 C 27.253906 -46.015625 30.375 -45.535156 33.21875 -44.390625 C 36.0625 -43.242188 38.398438 -41.273438 40.234375 -38.484375 C 40.566406 -37.972656 40.84375 -37.429688 41.0625 -36.859375 C 41.289062 -36.296875 41.40625 -35.691406 41.40625 -35.046875 C 41.40625 -34.410156 41.113281 -34.007812 40.53125 -33.84375 C 40.132812 -33.738281 39.769531 -33.742188 39.4375 -33.859375 C 39.101562 -33.984375 38.847656 -34.179688 38.671875 -34.453125 C 38.648438 -34.523438 38.628906 -34.613281 38.609375 -34.71875 C 38.578125 -34.78125 38.5625 -34.835938 38.5625 -34.890625 C 37.34375 -38.265625 35.535156 -40.671875 33.140625 -42.109375 C 30.742188 -43.546875 28.03125 -44.21875 25 -44.125 C 21.976562 -44.039062 18.890625 -43.382812 15.734375 -42.15625 C 12.585938 -40.925781 9.628906 -39.359375 6.859375 -37.453125 C 4.085938 -35.554688 1.765625 -33.515625 -0.109375 -31.328125 C -1.984375 -29.148438 -3.144531 -27.03125 -3.59375 -24.96875 C -4.050781 -22.414062 -3.613281 -20.050781 -2.28125 -17.875 C -1.21875 -16.039062 0.140625 -14.46875 1.796875 -13.15625 C 3.066406 -12.15625 4.367188 -11.203125 5.703125 -10.296875 C 6.898438 -9.515625 8.082031 -8.75 9.25 -8 C 10.875 -6.976562 12.472656 -5.929688 14.046875 -4.859375 C 14.492188 -4.535156 14.910156 -4.390625 15.296875 -4.421875 C 15.679688 -4.453125 16.085938 -4.613281 16.515625 -4.90625 C 18.617188 -6.175781 20.695312 -7.34375 22.75 -8.40625 C 24.800781 -9.46875 25.9375 -9.757812 26.15625 -9.28125 C 26.382812 -8.800781 26.0625 -8.242188 25.1875 -7.609375 C 23.132812 -6.515625 21.164062 -5.289062 19.28125 -3.9375 C 19.164062 -3.882812 19.0625 -3.816406 18.96875 -3.734375 C 18.457031 -3.472656 18.039062 -3.097656 17.71875 -2.609375 Z M 17.71875 -2.609375 "/></g></g></g><g fill="#f8f8f8" fill-opacity="1"><g transform="translate(182.413023, 192.668184)"><g/></g></g><g fill="#f8f8f8" fill-opacity="1"><g transform="translate(196.767459, 192.668184)"><g><path d="M 45.078125 -8.328125 C 45.035156 -8.222656 44.972656 -8.125 44.890625 -8.03125 C 44.816406 -7.9375 44.722656 -7.878906 44.609375 -7.859375 C 44.234375 -7.796875 43.859375 -7.765625 43.484375 -7.765625 C 43.410156 -7.765625 43.320312 -7.765625 43.21875 -7.765625 C 42.332031 -7.765625 41.4375 -7.753906 40.53125 -7.734375 C 40.1875 -7.734375 39.851562 -7.722656 39.53125 -7.703125 C 38.6875 -7.722656 38.101562 -7.320312 37.78125 -6.5 C 36.71875 -4.175781 35.503906 -1.9375 34.140625 0.21875 C 32.273438 3.195312 30.175781 5.960938 27.84375 8.515625 C 25.519531 11.078125 22.925781 13.378906 20.0625 15.421875 C 16.570312 17.847656 12.632812 19.773438 8.25 21.203125 C 3.875 22.628906 -0.597656 23.398438 -5.171875 23.515625 C -9.753906 23.628906 -14.066406 22.90625 -18.109375 21.34375 C -19.304688 20.882812 -20.445312 20.320312 -21.53125 19.65625 C -22.613281 18.988281 -23.601562 18.191406 -24.5 17.265625 C -25.28125 16.484375 -25.910156 15.617188 -26.390625 14.671875 C -27.210938 12.929688 -27.210938 11.210938 -26.390625 9.515625 C -25.585938 7.910156 -24.414062 6.519531 -22.875 5.34375 C -21.332031 4.164062 -19.601562 3.132812 -17.6875 2.25 C -15.769531 1.363281 -13.832031 0.613281 -11.875 0 C -9.914062 -0.625 -8.125 -1.160156 -6.5 -1.609375 C -6.34375 -1.671875 -6.195312 -1.726562 -6.0625 -1.78125 C -0.46875 -3.351562 5.1875 -4.628906 10.90625 -5.609375 C 10.882812 -7.378906 10.875 -9.148438 10.875 -10.921875 C 10.757812 -18.109375 10.640625 -25.3125 10.515625 -32.53125 C 10.484375 -35.457031 10.28125 -38.375 9.90625 -41.28125 C 9.800781 -42.226562 10.015625 -42.847656 10.546875 -43.140625 C 10.921875 -43.359375 11.28125 -43.421875 11.625 -43.328125 C 11.96875 -43.242188 12.238281 -43 12.4375 -42.59375 C 12.664062 -42.03125 12.820312 -41.429688 12.90625 -40.796875 C 13.125 -39.296875 13.269531 -37.789062 13.34375 -36.28125 C 13.5 -33.351562 13.617188 -30.425781 13.703125 -27.5 C 13.785156 -24.570312 13.785156 -21.628906 13.703125 -18.671875 C 13.703125 -16.015625 13.648438 -13.367188 13.546875 -10.734375 C 13.492188 -9.179688 13.457031 -7.625 13.4375 -6.0625 C 14.257812 -6.195312 15.082031 -6.332031 15.90625 -6.46875 C 16.8125 -6.59375 18.085938 -6.769531 19.734375 -7 C 22.421875 -7.375 25.253906 -7.789062 28.234375 -8.25 C 31.210938 -8.707031 33.398438 -9.09375 34.796875 -9.40625 C 35.535156 -9.570312 36.023438 -10.054688 36.265625 -10.859375 C 37.035156 -12.984375 37.675781 -15.132812 38.1875 -17.3125 C 39.0625 -21.019531 39.441406 -24.769531 39.328125 -28.5625 C 39.285156 -30.488281 39.050781 -32.363281 38.625 -34.1875 C 38.195312 -36.007812 37.519531 -37.773438 36.59375 -39.484375 C 33.488281 -45.023438 28.828125 -48.375 22.609375 -49.53125 C 20.160156 -49.96875 17.726562 -50.109375 15.3125 -49.953125 C 12.90625 -49.804688 10.519531 -49.441406 8.15625 -48.859375 C 3.757812 -47.816406 -0.40625 -46.207031 -4.34375 -44.03125 C -5.195312 -43.570312 -6.03125 -43.078125 -6.84375 -42.546875 C -7.65625 -42.015625 -8.414062 -41.414062 -9.125 -40.75 C -9.695312 -40.164062 -10.382812 -39.882812 -11.1875 -39.90625 C -11.519531 -39.9375 -11.785156 -40.082031 -11.984375 -40.34375 C -12.054688 -40.519531 -12.078125 -40.675781 -12.046875 -40.8125 C -12.023438 -40.957031 -11.972656 -41.097656 -11.890625 -41.234375 C -11.597656 -41.640625 -11.265625 -42.003906 -10.890625 -42.328125 C -10.515625 -42.660156 -10.113281 -42.972656 -9.6875 -43.265625 C -7.425781 -44.890625 -5.019531 -46.25 -2.46875 -47.34375 C 3.8125 -50.195312 10.398438 -51.6875 17.296875 -51.8125 C 20.085938 -51.863281 22.84375 -51.554688 25.5625 -50.890625 C 30.007812 -49.753906 33.703125 -47.5625 36.640625 -44.3125 C 39.585938 -41.0625 41.414062 -37.175781 42.125 -32.65625 C 42.632812 -29.164062 42.6875 -25.726562 42.28125 -22.34375 C 41.882812 -18.96875 41.144531 -15.628906 40.0625 -12.328125 C 39.976562 -12.054688 39.910156 -11.8125 39.859375 -11.59375 C 39.460938 -10.59375 39.347656 -9.976562 39.515625 -9.75 C 39.691406 -9.519531 40.335938 -9.4375 41.453125 -9.5 C 41.640625 -9.5 41.835938 -9.5 42.046875 -9.5 C 42.179688 -9.5 42.316406 -9.5 42.453125 -9.5 C 42.847656 -9.519531 43.238281 -9.507812 43.625 -9.46875 C 44.019531 -9.425781 44.40625 -9.300781 44.78125 -9.09375 C 44.90625 -9.007812 45 -8.898438 45.0625 -8.765625 C 45.132812 -8.628906 45.140625 -8.484375 45.078125 -8.328125 Z M 34.265625 -6.265625 C 34.503906 -6.867188 34.304688 -7.144531 33.671875 -7.09375 C 33.554688 -7.09375 33.445312 -7.082031 33.34375 -7.0625 C 31.75 -6.894531 30.171875 -6.695312 28.609375 -6.46875 C 28.078125 -6.375 27.539062 -6.285156 27 -6.203125 C 22.445312 -5.535156 17.90625 -4.820312 13.375 -4.0625 C 13.375 -3.664062 13.375 -3.25 13.375 -2.8125 C 13.375 -2.226562 13.351562 -1.671875 13.3125 -1.140625 C 13.28125 -0.609375 13.164062 -0.1875 12.96875 0.125 C 12.769531 0.445312 12.457031 0.609375 12.03125 0.609375 C 11.394531 0.523438 11.046875 0.03125 10.984375 -0.875 C 10.953125 -1.289062 10.953125 -1.722656 10.984375 -2.171875 C 10.984375 -2.390625 10.96875 -2.601562 10.9375 -2.8125 L 10.9375 -3.609375 C 7.851562 -3.054688 4.78125 -2.421875 1.71875 -1.703125 C 1.5 -1.640625 1.289062 -1.585938 1.09375 -1.546875 C -0.726562 -1.140625 -2.820312 -0.617188 -5.1875 0.015625 C -7.550781 0.660156 -9.921875 1.425781 -12.296875 2.3125 C -14.679688 3.195312 -16.84375 4.242188 -18.78125 5.453125 C -20.726562 6.671875 -22.203125 8.078125 -23.203125 9.671875 C -24.046875 11.222656 -24.066406 12.765625 -23.265625 14.296875 C -22.597656 15.472656 -21.734375 16.460938 -20.671875 17.265625 C -19.078125 18.523438 -17.320312 19.457031 -15.40625 20.0625 C -12.664062 20.988281 -9.765625 21.484375 -6.703125 21.546875 C -3.640625 21.617188 -0.613281 21.34375 2.375 20.71875 C 5.375 20.09375 8.175781 19.191406 10.78125 18.015625 C 14.675781 16.242188 18.164062 13.992188 21.25 11.265625 C 24.332031 8.535156 27.085938 5.421875 29.515625 1.921875 C 31.347656 -0.648438 32.929688 -3.378906 34.265625 -6.265625 Z M 34.265625 -6.265625 "/></g></g></g><g fill="#f8f8f8" fill-opacity="1"><g transform="translate(240.502214, 192.668184)"><g><path d="M 63.453125 -7.9375 C 63.078125 -7.507812 62.664062 -7.070312 62.21875 -6.625 C 61.78125 -6.1875 61.457031 -5.878906 61.25 -5.703125 C 60.59375 -5.109375 59.929688 -4.53125 59.265625 -3.96875 C 57.660156 -2.570312 56.019531 -1.207031 54.34375 0.125 C 50.59375 3.09375 46.675781 5.851562 42.59375 8.40625 C 36.132812 12.414062 29.125 14.847656 21.5625 15.703125 C 18.65625 16.078125 15.738281 16.03125 12.8125 15.5625 C 9.039062 14.800781 6.164062 13.414062 4.1875 11.40625 C 2.21875 9.40625 1.023438 7.023438 0.609375 4.265625 C 0.203125 1.503906 0.460938 -1.335938 1.390625 -4.265625 C 2.328125 -7.191406 3.804688 -9.945312 5.828125 -12.53125 C 8.359375 -15.675781 11.484375 -18.378906 15.203125 -20.640625 C 18.929688 -22.898438 23.003906 -24.65625 27.421875 -25.90625 C 28.410156 -26.164062 29.023438 -26.394531 29.265625 -26.59375 C 29.503906 -26.800781 29.484375 -26.988281 29.203125 -27.15625 C 28.921875 -27.332031 28.503906 -27.515625 27.953125 -27.703125 C 27.390625 -27.921875 26.800781 -28.171875 26.1875 -28.453125 C 25.363281 -28.859375 24.578125 -29.335938 23.828125 -29.890625 C 21.867188 -31.359375 20.734375 -33 20.421875 -34.8125 C 20.117188 -36.632812 20.644531 -38.566406 22 -40.609375 C 22.132812 -40.785156 22.265625 -40.960938 22.390625 -41.140625 C 22.523438 -41.335938 22.660156 -41.523438 22.796875 -41.703125 C 22.898438 -41.867188 22.925781 -42.015625 22.875 -42.140625 C 22.820312 -42.273438 22.726562 -42.382812 22.59375 -42.46875 C 22.175781 -42.707031 21.753906 -42.921875 21.328125 -43.109375 C 21.109375 -43.210938 20.910156 -43.320312 20.734375 -43.4375 C 18.753906 -44.363281 16.925781 -45.519531 15.25 -46.90625 C 14.90625 -47.195312 14.570312 -47.503906 14.25 -47.828125 C 13.9375 -48.160156 13.671875 -48.546875 13.453125 -48.984375 C 13.316406 -49.253906 13.304688 -49.507812 13.421875 -49.75 C 13.546875 -50 13.742188 -50.171875 14.015625 -50.265625 C 14.390625 -50.390625 14.742188 -50.425781 15.078125 -50.375 C 15.410156 -50.320312 15.695312 -50.148438 15.9375 -49.859375 C 16.40625 -49.210938 17.21875 -48.4375 18.375 -47.53125 C 19.539062 -46.632812 20.753906 -45.820312 22.015625 -45.09375 C 23.285156 -44.363281 24.304688 -43.96875 25.078125 -43.90625 C 25.503906 -43.882812 25.953125 -43.984375 26.421875 -44.203125 C 27.992188 -44.929688 29.800781 -45.492188 31.84375 -45.890625 C 33.882812 -46.296875 35.9375 -46.457031 38 -46.375 C 40.0625 -46.300781 41.914062 -45.921875 43.5625 -45.234375 C 44.445312 -44.878906 45.175781 -44.316406 45.75 -43.546875 C 46.5 -42.429688 46.367188 -41.40625 45.359375 -40.46875 C 44.554688 -39.851562 43.65625 -39.457031 42.65625 -39.28125 C 41.34375 -38.988281 40.03125 -38.84375 38.71875 -38.84375 C 37.414062 -38.84375 36.113281 -38.910156 34.8125 -39.046875 C 32.1875 -39.304688 29.632812 -39.863281 27.15625 -40.71875 C 26.570312 -40.925781 26.144531 -40.988281 25.875 -40.90625 C 25.613281 -40.832031 25.320312 -40.554688 25 -40.078125 C 24.59375 -39.515625 24.242188 -38.914062 23.953125 -38.28125 C 22.890625 -35.863281 23.332031 -33.757812 25.28125 -31.96875 C 26.21875 -31.113281 27.394531 -30.332031 28.8125 -29.625 C 30.238281 -28.914062 31.722656 -28.394531 33.265625 -28.0625 C 34.804688 -27.738281 36.21875 -27.695312 37.5 -27.9375 C 38.1875 -28.125 38.863281 -28.085938 39.53125 -27.828125 C 39.84375 -27.691406 40 -27.445312 40 -27.09375 C 40 -26.71875 39.84375 -26.492188 39.53125 -26.421875 C 38.863281 -26.253906 38.1875 -26.125 37.5 -26.03125 C 34.488281 -25.65625 31.332031 -24.945312 28.03125 -23.90625 C 24.738281 -22.863281 21.546875 -21.5 18.453125 -19.8125 C 15.359375 -18.125 12.632812 -16.097656 10.28125 -13.734375 C 7.925781 -11.378906 6.1875 -8.691406 5.0625 -5.671875 C 3.945312 -2.648438 3.722656 0.695312 4.390625 4.375 C 4.953125 7.101562 6.007812 9.1875 7.5625 10.625 C 9.125 12.070312 10.984375 13.023438 13.140625 13.484375 C 15.296875 13.953125 17.550781 14.097656 19.90625 13.921875 C 22.257812 13.753906 24.5 13.40625 26.625 12.875 C 29.289062 12.207031 31.847656 11.320312 34.296875 10.21875 C 36.742188 9.113281 39.113281 7.832031 41.40625 6.375 C 44.226562 4.550781 46.984375 2.628906 49.671875 0.609375 C 52.359375 -1.398438 55.019531 -3.460938 57.65625 -5.578125 C 57.769531 -5.660156 57.976562 -5.847656 58.28125 -6.140625 C 58.582031 -6.429688 58.945312 -6.765625 59.375 -7.140625 C 61.5 -8.835938 62.804688 -9.578125 63.296875 -9.359375 C 63.578125 -9.285156 63.757812 -9.128906 63.84375 -8.890625 C 63.925781 -8.648438 63.796875 -8.332031 63.453125 -7.9375 Z M 31.1875 -43.875 C 31.070312 -43.84375 30.84375 -43.765625 30.5 -43.640625 C 30.15625 -43.523438 29.8125 -43.378906 29.46875 -43.203125 C 29.125 -43.023438 28.890625 -42.851562 28.765625 -42.6875 C 28.648438 -42.519531 28.78125 -42.367188 29.15625 -42.234375 C 32.75 -40.953125 36.429688 -40.445312 40.203125 -40.71875 C 41.859375 -40.90625 42.796875 -41.265625 43.015625 -41.796875 C 43.242188 -42.328125 42.976562 -42.847656 42.21875 -43.359375 C 41.46875 -43.878906 40.453125 -44.238281 39.171875 -44.4375 C 38.078125 -44.539062 36.800781 -44.554688 35.34375 -44.484375 C 33.894531 -44.421875 32.507812 -44.21875 31.1875 -43.875 Z M 31.1875 -43.875 "/></g></g></g><g fill="#f8f8f8" fill-opacity="1"><g transform="translate(302.583789, 192.668184)"><g><path d="M 43 1.09375 C 43.320312 0.507812 43.554688 -0.0625 43.703125 -0.625 C 43.847656 -1.1875 43.960938 -1.734375 44.046875 -2.265625 C 44.097656 -2.578125 44.148438 -2.894531 44.203125 -3.21875 C 45.609375 -9.863281 47.25 -16.445312 49.125 -22.96875 C 51.007812 -29.5 53.210938 -35.929688 55.734375 -42.265625 C 55.816406 -42.429688 55.894531 -42.609375 55.96875 -42.796875 C 56.082031 -43.109375 56.21875 -43.425781 56.375 -43.75 C 56.695312 -44.445312 57.25 -44.804688 58.03125 -44.828125 C 59.007812 -44.828125 59.351562 -44.332031 59.0625 -43.34375 C 54.320312 -30.675781 50.539062 -17.726562 47.71875 -4.5 C 46.695312 0.394531 45.765625 5.304688 44.921875 10.234375 C 44.546875 12.316406 44.160156 14.394531 43.765625 16.46875 C 43.578125 17.550781 43.390625 18.65625 43.203125 19.78125 C 43.066406 20.5 42.929688 21.21875 42.796875 21.9375 C 42.742188 22.226562 42.675781 22.519531 42.59375 22.8125 C 42.394531 23.394531 42.003906 23.773438 41.421875 23.953125 C 40.847656 24.128906 40.296875 24.039062 39.765625 23.6875 C 39.429688 23.457031 39.242188 23.125 39.203125 22.6875 C 39.179688 22.082031 39.179688 21.472656 39.203125 20.859375 C 39.578125 12.046875 39.765625 3.234375 39.765625 -5.578125 C 39.765625 -6.503906 39.765625 -7.488281 39.765625 -8.53125 C 39.785156 -11.28125 39.773438 -14.226562 39.734375 -17.375 C 39.703125 -20.53125 39.5625 -23.710938 39.3125 -26.921875 C 39.0625 -30.128906 38.628906 -33.179688 38.015625 -36.078125 C 37.398438 -38.984375 36.53125 -41.523438 35.40625 -43.703125 C 34.875 -44.742188 34.238281 -45.707031 33.5 -46.59375 C 31.976562 -48.289062 30.0625 -49.046875 27.75 -48.859375 C 25.4375 -48.679688 22.960938 -47.789062 20.328125 -46.1875 C 17.691406 -44.59375 15.109375 -42.503906 12.578125 -39.921875 C 10.046875 -37.335938 7.804688 -34.488281 5.859375 -31.375 C 3.921875 -28.257812 2.492188 -25.097656 1.578125 -21.890625 C 0.660156 -18.679688 0.476562 -15.644531 1.03125 -12.78125 C 1.59375 -9.925781 3.125 -7.457031 5.625 -5.375 C 7.195312 -4.0625 8.882812 -3 10.6875 -2.1875 C 12.5 -1.382812 14.445312 -0.925781 16.53125 -0.8125 C 16.9375 -0.789062 17.304688 -0.691406 17.640625 -0.515625 C 17.722656 -0.453125 17.796875 -0.367188 17.859375 -0.265625 C 17.929688 -0.160156 17.96875 -0.0664062 17.96875 0.015625 C 17.96875 0.128906 17.929688 0.234375 17.859375 0.328125 C 17.796875 0.429688 17.722656 0.515625 17.640625 0.578125 C 17.378906 0.734375 17.085938 0.828125 16.765625 0.859375 C 15.617188 0.984375 14.460938 0.925781 13.296875 0.6875 C 10.179688 0 7.304688 -1.265625 4.671875 -3.109375 C 1.734375 -5.171875 -0.242188 -7.617188 -1.265625 -10.453125 C -2.285156 -13.296875 -2.539062 -16.320312 -2.03125 -19.53125 C -1.519531 -22.738281 -0.4375 -25.9375 1.21875 -29.125 C 2.882812 -32.320312 4.921875 -35.335938 7.328125 -38.171875 C 9.734375 -41.015625 12.335938 -43.472656 15.140625 -45.546875 C 17.953125 -47.617188 20.75 -49.132812 23.53125 -50.09375 C 26.320312 -51.050781 28.921875 -51.265625 31.328125 -50.734375 C 33.734375 -50.203125 35.75 -48.722656 37.375 -46.296875 C 38.539062 -44.492188 39.457031 -42.550781 40.125 -40.46875 C 41.164062 -37.144531 41.898438 -33.484375 42.328125 -29.484375 C 42.753906 -25.492188 43 -21.414062 43.0625 -17.25 C 43.125 -13.082031 43.117188 -9.046875 43.046875 -5.140625 C 43.015625 -2.960938 43 -0.882812 43 1.09375 Z M 43 1.09375 "/></g></g></g><g fill="#f8f8f8" fill-opacity="1"><g transform="translate(52.149152, 261.553195)"><g><path d="M 14.703125 -8 C 14.703125 -5.40625 13.992188 -3.421875 12.578125 -2.046875 C 11.171875 -0.679688 9.148438 0 6.515625 0 L 2.15625 0 L 2.15625 -15.703125 L 6.96875 -15.703125 C 9.414062 -15.703125 11.316406 -15.023438 12.671875 -13.671875 C 14.023438 -12.316406 14.703125 -10.425781 14.703125 -8 Z M 12.765625 -7.9375 C 12.765625 -9.988281 12.25 -11.53125 11.21875 -12.5625 C 10.1875 -13.601562 8.660156 -14.125 6.640625 -14.125 L 3.984375 -14.125 L 3.984375 -1.578125 L 6.203125 -1.578125 C 8.378906 -1.578125 10.015625 -2.113281 11.109375 -3.1875 C 12.210938 -4.257812 12.765625 -5.84375 12.765625 -7.9375 Z M 12.765625 -7.9375 "/></g></g></g><g fill="#f8f8f8" fill-opacity="1"><g transform="translate(74.037824, 261.553195)"><g><path d="M 14.015625 -15.703125 L 14.015625 -5.546875 C 14.015625 -3.753906 13.472656 -2.34375 12.390625 -1.3125 C 11.316406 -0.289062 9.832031 0.21875 7.9375 0.21875 C 6.050781 0.21875 4.585938 -0.296875 3.546875 -1.328125 C 2.515625 -2.359375 2 -3.78125 2 -5.59375 L 2 -15.703125 L 3.828125 -15.703125 L 3.828125 -5.453125 C 3.828125 -4.140625 4.179688 -3.132812 4.890625 -2.4375 C 5.609375 -1.738281 6.664062 -1.390625 8.0625 -1.390625 C 9.382812 -1.390625 10.398438 -1.738281 11.109375 -2.4375 C 11.828125 -3.144531 12.1875 -4.160156 12.1875 -5.484375 L 12.1875 -15.703125 Z M 14.015625 -15.703125 "/></g></g></g><g fill="#f8f8f8" fill-opacity="1"><g transform="translate(95.905016, 261.553195)"><g><path d="M 8.890625 -14.296875 C 7.160156 -14.296875 5.796875 -13.71875 4.796875 -12.5625 C 3.796875 -11.414062 3.296875 -9.847656 3.296875 -7.859375 C 3.296875 -5.796875 3.773438 -4.203125 4.734375 -3.078125 C 5.703125 -1.960938 7.078125 -1.40625 8.859375 -1.40625 C 9.953125 -1.40625 11.203125 -1.601562 12.609375 -2 L 12.609375 -0.390625 C 11.523438 0.015625 10.179688 0.21875 8.578125 0.21875 C 6.265625 0.21875 4.476562 -0.484375 3.21875 -1.890625 C 1.96875 -3.296875 1.34375 -5.289062 1.34375 -7.875 C 1.34375 -9.488281 1.644531 -10.90625 2.25 -12.125 C 2.851562 -13.34375 3.722656 -14.28125 4.859375 -14.9375 C 6.003906 -15.601562 7.351562 -15.9375 8.90625 -15.9375 C 10.550781 -15.9375 11.988281 -15.632812 13.21875 -15.03125 L 12.453125 -13.453125 C 11.265625 -14.015625 10.078125 -14.296875 8.890625 -14.296875 Z M 8.890625 -14.296875 "/></g></g></g><g fill="#f8f8f8" fill-opacity="1"><g transform="translate(115.634887, 261.553195)"><g/></g></g><g fill="#f8f8f8" fill-opacity="1"><g transform="translate(127.202145, 261.553195)"><g><path d="M 2.15625 0 L 2.15625 -15.703125 L 3.984375 -15.703125 L 3.984375 -1.65625 L 10.921875 -1.65625 L 10.921875 0 Z M 2.15625 0 "/></g></g></g><g fill="#f8f8f8" fill-opacity="1"><g transform="translate(144.472497, 261.553195)"><g><path d="M 12.03125 0 L 10.078125 -5 L 3.78125 -5 L 1.84375 0 L 0 0 L 6.203125 -15.765625 L 7.75 -15.765625 L 13.921875 0 Z M 9.5 -6.640625 L 7.6875 -11.5 C 7.445312 -12.113281 7.203125 -12.867188 6.953125 -13.765625 C 6.796875 -13.078125 6.570312 -12.320312 6.28125 -11.5 L 4.421875 -6.640625 Z M 9.5 -6.640625 "/></g></g></g><g fill="#f8f8f8" fill-opacity="1"><g transform="translate(164.245329, 261.553195)"><g><path d="M 14.421875 0 L 12.34375 0 L 3.765625 -13.1875 L 3.671875 -13.1875 C 3.785156 -11.632812 3.84375 -10.210938 3.84375 -8.921875 L 3.84375 0 L 2.15625 0 L 2.15625 -15.703125 L 4.21875 -15.703125 L 12.78125 -2.578125 L 12.875 -2.578125 C 12.851562 -2.773438 12.816406 -3.394531 12.765625 -4.4375 C 12.722656 -5.488281 12.707031 -6.238281 12.71875 -6.6875 L 12.71875 -15.703125 L 14.421875 -15.703125 Z M 14.421875 0 "/></g></g></g><g fill="#f8f8f8" fill-opacity="1"><g transform="translate(186.681744, 261.553195)"><g/></g></g><g fill="#f8f8f8" fill-opacity="1"><g transform="translate(198.248996, 261.553195)"><g><path d="M 15.859375 0 L 14.0625 0 L 10.890625 -10.515625 C 10.742188 -10.984375 10.578125 -11.570312 10.390625 -12.28125 C 10.203125 -12.988281 10.101562 -13.414062 10.09375 -13.5625 C 9.9375 -12.613281 9.6875 -11.578125 9.34375 -10.453125 L 6.28125 0 L 4.46875 0 L 0.296875 -15.703125 L 2.21875 -15.703125 L 4.703125 -6 C 5.046875 -4.644531 5.296875 -3.414062 5.453125 -2.3125 C 5.648438 -3.625 5.9375 -4.90625 6.3125 -6.15625 L 9.125 -15.703125 L 11.0625 -15.703125 L 14.015625 -6.0625 C 14.359375 -4.957031 14.648438 -3.707031 14.890625 -2.3125 C 15.023438 -3.320312 15.28125 -4.5625 15.65625 -6.03125 L 18.140625 -15.703125 L 20.0625 -15.703125 Z M 15.859375 0 "/></g></g></g><g fill="#f8f8f8" fill-opacity="1"><g transform="translate(224.46599, 261.553195)"><g><path d="M 10.921875 0 L 2.15625 0 L 2.15625 -15.703125 L 10.921875 -15.703125 L 10.921875 -14.078125 L 3.984375 -14.078125 L 3.984375 -9.03125 L 10.5 -9.03125 L 10.5 -7.40625 L 3.984375 -7.40625 L 3.984375 -1.640625 L 10.921875 -1.640625 Z M 10.921875 0 "/></g></g></g><g fill="#f8f8f8" fill-opacity="1"><g transform="translate(242.552598, 261.553195)"><g><path d="M 2.15625 -15.703125 L 6.59375 -15.703125 C 8.675781 -15.703125 10.179688 -15.390625 11.109375 -14.765625 C 12.046875 -14.148438 12.515625 -13.164062 12.515625 -11.8125 C 12.515625 -10.882812 12.253906 -10.117188 11.734375 -9.515625 C 11.210938 -8.910156 10.457031 -8.519531 9.46875 -8.34375 L 9.46875 -8.234375 C 11.851562 -7.816406 13.046875 -6.5625 13.046875 -4.46875 C 13.046875 -3.0625 12.566406 -1.960938 11.609375 -1.171875 C 10.660156 -0.390625 9.335938 0 7.640625 0 L 2.15625 0 Z M 3.984375 -8.984375 L 7 -8.984375 C 8.28125 -8.984375 9.203125 -9.179688 9.765625 -9.578125 C 10.335938 -9.984375 10.625 -10.671875 10.625 -11.640625 C 10.625 -12.515625 10.304688 -13.144531 9.671875 -13.53125 C 9.046875 -13.925781 8.046875 -14.125 6.671875 -14.125 L 3.984375 -14.125 Z M 3.984375 -7.4375 L 3.984375 -1.5625 L 7.265625 -1.5625 C 8.523438 -1.5625 9.476562 -1.804688 10.125 -2.296875 C 10.769531 -2.785156 11.09375 -3.550781 11.09375 -4.59375 C 11.09375 -5.570312 10.765625 -6.289062 10.109375 -6.75 C 9.453125 -7.207031 8.453125 -7.4375 7.109375 -7.4375 Z M 3.984375 -7.4375 "/></g></g></g><g fill="#f8f8f8" fill-opacity="1"><g transform="translate(262.658379, 261.553195)"><g><path d="M 11.015625 -4.171875 C 11.015625 -2.796875 10.515625 -1.71875 9.515625 -0.9375 C 8.515625 -0.164062 7.15625 0.21875 5.4375 0.21875 C 3.570312 0.21875 2.140625 -0.0195312 1.140625 -0.5 L 1.140625 -2.265625 C 1.785156 -1.992188 2.488281 -1.78125 3.25 -1.625 C 4.007812 -1.46875 4.757812 -1.390625 5.5 -1.390625 C 6.71875 -1.390625 7.632812 -1.617188 8.25 -2.078125 C 8.863281 -2.535156 9.171875 -3.175781 9.171875 -4 C 9.171875 -4.550781 9.0625 -5 8.84375 -5.34375 C 8.625 -5.6875 8.257812 -6.003906 7.75 -6.296875 C 7.238281 -6.597656 6.460938 -6.9375 5.421875 -7.3125 C 3.953125 -7.832031 2.90625 -8.445312 2.28125 -9.15625 C 1.65625 -9.875 1.34375 -10.8125 1.34375 -11.96875 C 1.34375 -13.175781 1.796875 -14.140625 2.703125 -14.859375 C 3.617188 -15.578125 4.820312 -15.9375 6.3125 -15.9375 C 7.875 -15.9375 9.3125 -15.648438 10.625 -15.078125 L 10.0625 -13.484375 C 8.757812 -14.023438 7.5 -14.296875 6.28125 -14.296875 C 5.3125 -14.296875 4.550781 -14.085938 4 -13.671875 C 3.457031 -13.253906 3.1875 -12.679688 3.1875 -11.953125 C 3.1875 -11.398438 3.285156 -10.953125 3.484375 -10.609375 C 3.691406 -10.265625 4.03125 -9.945312 4.5 -9.65625 C 4.976562 -9.363281 5.707031 -9.039062 6.6875 -8.6875 C 8.332031 -8.101562 9.460938 -7.472656 10.078125 -6.796875 C 10.703125 -6.128906 11.015625 -5.253906 11.015625 -4.171875 Z M 11.015625 -4.171875 "/></g></g></g><g fill="#f8f8f8" fill-opacity="1"><g transform="translate(280.583876, 261.553195)"><g><path d="M 2.15625 0 L 2.15625 -15.703125 L 3.984375 -15.703125 L 3.984375 0 Z M 2.15625 0 "/></g></g></g><g fill="#f8f8f8" fill-opacity="1"><g transform="translate(292.570005, 261.553195)"><g><path d="M 7 0 L 5.171875 0 L 5.171875 -14.078125 L 0.1875 -14.078125 L 0.1875 -15.703125 L 11.96875 -15.703125 L 11.96875 -14.078125 L 7 -14.078125 Z M 7 0 "/></g></g></g><g fill="#f8f8f8" fill-opacity="1"><g transform="translate(310.592183, 261.553195)"><g><path d="M 10.921875 0 L 2.15625 0 L 2.15625 -15.703125 L 10.921875 -15.703125 L 10.921875 -14.078125 L 3.984375 -14.078125 L 3.984375 -9.03125 L 10.5 -9.03125 L 10.5 -7.40625 L 3.984375 -7.40625 L 3.984375 -1.640625 L 10.921875 -1.640625 Z M 10.921875 0 "/></g></g></g></svg>