<svg xmlns="http://www.w3.org/2000/svg" xmlns:xlink="http://www.w3.org/1999/xlink" width="500" zoomAndPan="magnify" viewBox="0 0 375 374.999991" height="500" preserveAspectRatio="xMidYMid meet" version="1.0"><defs><g/></defs><g fill="#ffffff" fill-opacity="1"><g transform="translate(13.076547, 228.838442)"><g><path d="M 2.140625 -16.3125 L 8.828125 -16.3125 C 11.265625 -16.3125 13.28125 -15.539062 14.875 -14 C 16.46875 -12.457031 17.265625 -10.503906 17.265625 -8.140625 C 17.265625 -5.785156 16.460938 -3.835938 14.859375 -2.296875 C 13.265625 -0.765625 11.234375 0 8.765625 0 L 2.140625 0 Z M 4.890625 -13.84375 L 4.890625 -2.46875 L 8.90625 -2.46875 C 10.5 -2.46875 11.828125 -3 12.890625 -4.0625 C 13.953125 -5.125 14.484375 -6.476562 14.484375 -8.125 C 14.484375 -9.769531 13.9375 -11.132812 12.84375 -12.21875 C 11.75 -13.300781 10.394531 -13.84375 8.78125 -13.84375 Z M 4.890625 -13.84375 "/></g></g></g><g fill="#ffffff" fill-opacity="1"><g transform="translate(40.450395, 228.838442)"><g><path d="M 16 -16.3125 L 16 -6.75 C 16 -4.625 15.367188 -2.945312 14.109375 -1.71875 C 12.859375 -0.5 11.128906 0.109375 8.921875 0.109375 C 6.710938 0.109375 4.972656 -0.5 3.703125 -1.71875 C 2.441406 -2.945312 1.8125 -4.625 1.8125 -6.75 L 1.8125 -16.3125 L 4.5625 -16.3125 L 4.5625 -6.75 C 4.5625 -5.382812 4.953125 -4.3125 5.734375 -3.53125 C 6.523438 -2.75 7.597656 -2.359375 8.953125 -2.359375 C 10.285156 -2.359375 11.332031 -2.742188 12.09375 -3.515625 C 12.863281 -4.296875 13.25 -5.375 13.25 -6.75 L 13.25 -16.3125 Z M 16 -16.3125 "/></g></g></g><g fill="#ffffff" fill-opacity="1"><g transform="translate(67.568003, 228.838442)"><g><path d="M 9.359375 -16.375 C 10.515625 -16.375 11.640625 -16.148438 12.734375 -15.703125 C 13.828125 -15.265625 14.769531 -14.648438 15.5625 -13.859375 L 13.953125 -11.859375 C 13.359375 -12.492188 12.65625 -13 11.84375 -13.375 C 11.039062 -13.75 10.226562 -13.9375 9.40625 -13.9375 C 7.78125 -13.9375 6.40625 -13.378906 5.28125 -12.265625 C 4.15625 -11.148438 3.59375 -9.796875 3.59375 -8.203125 C 3.59375 -6.585938 4.15625 -5.222656 5.28125 -4.109375 C 6.40625 -3.003906 7.78125 -2.453125 9.40625 -2.453125 C 11.101562 -2.453125 12.617188 -3.09375 13.953125 -4.375 L 15.578125 -2.5625 C 14.742188 -1.738281 13.765625 -1.085938 12.640625 -0.609375 C 11.523438 -0.128906 10.398438 0.109375 9.265625 0.109375 C 6.878906 0.109375 4.867188 -0.679688 3.234375 -2.265625 C 1.609375 -3.859375 0.796875 -5.828125 0.796875 -8.171875 C 0.796875 -10.484375 1.617188 -12.425781 3.265625 -14 C 4.921875 -15.582031 6.953125 -16.375 9.359375 -16.375 Z M 9.359375 -16.375 "/></g></g></g><g fill="#ffffff" fill-opacity="1"><g transform="translate(93.124813, 228.838442)"><g/></g></g><g fill="#ffffff" fill-opacity="1"><g transform="translate(108.454901, 228.838442)"><g><path d="M 4.890625 -2.5 L 11.953125 -2.5 L 11.953125 0 L 2.140625 0 L 2.140625 -16.3125 L 4.890625 -16.3125 Z M 4.890625 -2.5 "/></g></g></g><g fill="#ffffff" fill-opacity="1"><g transform="translate(130.214541, 228.838442)"><g><path d="M 12.671875 -3.6875 L 4.453125 -3.6875 L 2.890625 0 L 0.015625 0 L 7.21875 -16.3125 L 10.046875 -16.3125 L 17.171875 0 L 14.234375 0 Z M 11.625 -6.125 L 8.546875 -13.375 L 5.46875 -6.125 Z M 11.625 -6.125 "/></g></g></g><g fill="#ffffff" fill-opacity="1"><g transform="translate(156.726452, 228.838442)"><g><path d="M 16.28125 0 L 13.578125 0 L 4.890625 -11.6875 L 4.890625 0 L 2.140625 0 L 2.140625 -16.3125 L 4.84375 -16.3125 L 13.578125 -4.59375 L 13.578125 -16.3125 L 16.28125 -16.3125 Z M 16.28125 0 "/></g></g></g><g fill="#ffffff" fill-opacity="1"><g transform="translate(184.496333, 228.838442)"><g/></g></g><g fill="#ffffff" fill-opacity="1"><g transform="translate(199.826416, 228.838442)"><g><path d="M 18.921875 0 L 16.09375 0 L 12.234375 -12.71875 L 8.3125 0 L 5.46875 0 L 0.0625 -16.3125 L 3.03125 -16.3125 L 6.984375 -3.046875 L 10.921875 -16.28125 L 13.625 -16.3125 L 17.59375 -3.046875 L 21.53125 -16.3125 L 24.375 -16.3125 Z M 18.921875 0 "/></g></g></g><g fill="#ffffff" fill-opacity="1"><g transform="translate(233.280399, 228.838442)"><g><path d="M 13.796875 -13.84375 L 4.890625 -13.84375 L 4.890625 -9.4375 L 12.859375 -9.4375 L 12.859375 -6.96875 L 4.890625 -6.96875 L 4.890625 -2.46875 L 14.078125 -2.46875 L 14.078125 0 L 2.140625 0 L 2.140625 -16.3125 L 13.796875 -16.3125 Z M 13.796875 -13.84375 "/></g></g></g><g fill="#ffffff" fill-opacity="1"><g transform="translate(257.882084, 228.838442)"><g><path d="M 2.140625 -16.3125 L 9.21875 -16.3125 C 10.914062 -16.3125 12.253906 -15.945312 13.234375 -15.21875 C 14.210938 -14.5 14.703125 -13.503906 14.703125 -12.234375 C 14.703125 -11.316406 14.441406 -10.535156 13.921875 -9.890625 C 13.410156 -9.242188 12.710938 -8.8125 11.828125 -8.59375 C 12.921875 -8.40625 13.773438 -7.945312 14.390625 -7.21875 C 15.015625 -6.488281 15.328125 -5.570312 15.328125 -4.46875 C 15.328125 -3.070312 14.796875 -1.976562 13.734375 -1.1875 C 12.679688 -0.394531 11.234375 0 9.390625 0 L 2.140625 0 Z M 4.890625 -13.859375 L 4.890625 -9.546875 L 9.078125 -9.546875 C 9.953125 -9.546875 10.632812 -9.738281 11.125 -10.125 C 11.625 -10.519531 11.875 -11.054688 11.875 -11.734375 C 11.875 -12.421875 11.628906 -12.945312 11.140625 -13.3125 C 10.648438 -13.675781 9.960938 -13.859375 9.078125 -13.859375 Z M 4.890625 -7.125 L 4.890625 -2.453125 L 9.078125 -2.453125 C 10.171875 -2.453125 11.015625 -2.65625 11.609375 -3.0625 C 12.210938 -3.476562 12.515625 -4.066406 12.515625 -4.828125 C 12.515625 -5.535156 12.207031 -6.09375 11.59375 -6.5 C 10.988281 -6.914062 10.148438 -7.125 9.078125 -7.125 Z M 4.890625 -7.125 "/></g></g></g><g fill="#ffffff" fill-opacity="1"><g transform="translate(283.648552, 228.838442)"><g><path d="M 7.5 -16.421875 C 9.613281 -16.421875 11.515625 -15.863281 13.203125 -14.75 L 12.0625 -12.328125 C 10.40625 -13.335938 8.816406 -13.84375 7.296875 -13.84375 C 6.472656 -13.84375 5.820312 -13.691406 5.34375 -13.390625 C 4.875 -13.097656 4.640625 -12.679688 4.640625 -12.140625 C 4.640625 -11.597656 4.851562 -11.132812 5.28125 -10.75 C 5.71875 -10.375 6.257812 -10.09375 6.90625 -9.90625 C 7.5625 -9.726562 8.269531 -9.503906 9.03125 -9.234375 C 9.800781 -8.960938 10.507812 -8.675781 11.15625 -8.375 C 11.8125 -8.070312 12.351562 -7.597656 12.78125 -6.953125 C 13.207031 -6.304688 13.421875 -5.523438 13.421875 -4.609375 C 13.421875 -3.179688 12.847656 -2.039062 11.703125 -1.1875 C 10.566406 -0.332031 9.085938 0.09375 7.265625 0.09375 C 6.023438 0.09375 4.820312 -0.132812 3.65625 -0.59375 C 2.488281 -1.0625 1.472656 -1.695312 0.609375 -2.5 L 1.796875 -4.875 C 2.617188 -4.113281 3.519531 -3.523438 4.5 -3.109375 C 5.488281 -2.703125 6.425781 -2.5 7.3125 -2.5 C 8.28125 -2.5 9.03125 -2.671875 9.5625 -3.015625 C 10.09375 -3.367188 10.359375 -3.851562 10.359375 -4.46875 C 10.359375 -5.03125 10.140625 -5.5 9.703125 -5.875 C 9.273438 -6.257812 8.734375 -6.539062 8.078125 -6.71875 C 7.429688 -6.894531 6.726562 -7.113281 5.96875 -7.375 C 5.207031 -7.632812 4.5 -7.90625 3.84375 -8.1875 C 3.1875 -8.476562 2.640625 -8.941406 2.203125 -9.578125 C 1.773438 -10.210938 1.5625 -10.976562 1.5625 -11.875 C 1.5625 -13.257812 2.101562 -14.363281 3.1875 -15.1875 C 4.28125 -16.007812 5.71875 -16.421875 7.5 -16.421875 Z M 7.5 -16.421875 "/></g></g></g><g fill="#ffffff" fill-opacity="1"><g transform="translate(307.458205, 228.838442)"><g><path d="M 4.890625 0 L 2.140625 0 L 2.140625 -16.3125 L 4.890625 -16.3125 Z M 4.890625 0 "/></g></g></g><g fill="#ffffff" fill-opacity="1"><g transform="translate(323.813306, 228.838442)"><g><path d="M 13.28125 -13.84375 L 8.109375 -13.84375 L 8.109375 0 L 5.359375 0 L 5.359375 -13.84375 L 0.203125 -13.84375 L 0.203125 -16.3125 L 13.28125 -16.3125 Z M 13.28125 -13.84375 "/></g></g></g><g fill="#ffffff" fill-opacity="1"><g transform="translate(346.621252, 228.838442)"><g><path d="M 13.796875 -13.84375 L 4.890625 -13.84375 L 4.890625 -9.4375 L 12.859375 -9.4375 L 12.859375 -6.96875 L 4.890625 -6.96875 L 4.890625 -2.46875 L 14.078125 -2.46875 L 14.078125 0 L 2.140625 0 L 2.140625 -16.3125 L 13.796875 -16.3125 Z M 13.796875 -13.84375 "/></g></g></g><g fill="#ca8126" fill-opacity="1"><g transform="translate(136.873047, 161.057721)"><g><path d="M 77.265625 -1.453125 C 77.503906 -1.453125 77.625 -1.207031 77.625 -0.71875 C 77.625 -0.238281 77.503906 0 77.265625 0 L 63.640625 0 C 60.796875 0 59.085938 -0.160156 58.515625 -0.484375 C 57.953125 -0.804688 56.472656 -2.671875 54.078125 -6.078125 C 51.691406 -9.484375 48.796875 -13.335938 45.390625 -17.640625 L 26.03125 -41.609375 L 21.78125 -37.46875 L 21.78125 -9.859375 C 21.78125 -7.335938 22.039062 -5.507812 22.5625 -4.375 C 23.09375 -3.238281 24.085938 -2.46875 25.546875 -2.0625 C 27.003906 -1.65625 29.359375 -1.453125 32.609375 -1.453125 C 32.765625 -1.453125 32.84375 -1.207031 32.84375 -0.71875 C 32.84375 -0.238281 32.765625 0 32.609375 0 C 30.171875 0 28.222656 -0.0390625 26.765625 -0.125 L 18.5 -0.25 L 10.46875 -0.125 C 9.007812 -0.0390625 6.976562 0 4.375 0 C 4.21875 0 4.140625 -0.238281 4.140625 -0.71875 C 4.140625 -1.207031 4.21875 -1.453125 4.375 -1.453125 C 7.539062 -1.453125 9.875 -1.65625 11.375 -2.0625 C 12.875 -2.46875 13.90625 -3.257812 14.46875 -4.4375 C 15.039062 -5.613281 15.328125 -7.421875 15.328125 -9.859375 L 15.328125 -66.1875 C 15.328125 -68.625 15.0625 -70.410156 14.53125 -71.546875 C 14.007812 -72.679688 13 -73.46875 11.5 -73.90625 C 10 -74.351562 7.664062 -74.578125 4.5 -74.578125 C 4.34375 -74.578125 4.265625 -74.820312 4.265625 -75.3125 C 4.265625 -75.800781 4.34375 -76.046875 4.5 -76.046875 L 10.46875 -75.921875 C 13.875 -75.765625 16.550781 -75.6875 18.5 -75.6875 C 20.6875 -75.6875 23.484375 -75.765625 26.890625 -75.921875 L 32.609375 -76.046875 C 32.765625 -76.046875 32.84375 -75.800781 32.84375 -75.3125 C 32.84375 -74.820312 32.765625 -74.578125 32.609375 -74.578125 C 29.441406 -74.578125 27.109375 -74.332031 25.609375 -73.84375 C 24.109375 -73.363281 23.09375 -72.535156 22.5625 -71.359375 C 22.039062 -70.179688 21.78125 -68.378906 21.78125 -65.953125 L 21.78125 -40.265625 L 48.546875 -66.921875 C 51.304688 -69.679688 52.6875 -71.585938 52.6875 -72.640625 C 52.6875 -73.367188 52.140625 -73.875 51.046875 -74.15625 C 49.953125 -74.4375 48.144531 -74.578125 45.625 -74.578125 C 45.46875 -74.578125 45.390625 -74.820312 45.390625 -75.3125 C 45.390625 -75.800781 45.46875 -76.046875 45.625 -76.046875 L 50.734375 -75.921875 C 53.816406 -75.765625 56.695312 -75.6875 59.375 -75.6875 C 61.882812 -75.6875 64.519531 -75.765625 67.28125 -75.921875 L 71.546875 -76.046875 C 71.785156 -76.046875 71.90625 -75.800781 71.90625 -75.3125 C 71.90625 -74.820312 71.785156 -74.578125 71.546875 -74.578125 C 68.210938 -74.578125 64.78125 -73.945312 61.25 -72.6875 C 57.726562 -71.4375 54.425781 -69.269531 51.34375 -66.1875 L 30.65625 -45.984375 L 48.0625 -24.09375 C 54.226562 -16.382812 58.929688 -10.945312 62.171875 -7.78125 C 65.421875 -4.625 67.894531 -2.78125 69.59375 -2.25 C 71.300781 -1.71875 73.859375 -1.453125 77.265625 -1.453125 Z M 77.265625 -1.453125 "/></g></g></g><g fill="#ca8126" fill-opacity="1"><g transform="translate(166.507347, 189.564429)"><g><path d="M 36.234375 0.484375 C 33.878906 0.484375 31.234375 0.363281 28.296875 0.125 C 27.160156 0.0390625 25.757812 -0.0390625 24.09375 -0.125 C 22.425781 -0.207031 20.578125 -0.25 18.546875 -0.25 L 10.484375 -0.125 C 9.023438 -0.0390625 6.992188 0 4.390625 0 C 4.222656 0 4.140625 -0.242188 4.140625 -0.734375 C 4.140625 -1.222656 4.222656 -1.46875 4.390625 -1.46875 C 7.566406 -1.46875 9.90625 -1.671875 11.40625 -2.078125 C 12.90625 -2.484375 13.941406 -3.273438 14.515625 -4.453125 C 15.085938 -5.628906 15.375 -7.4375 15.375 -9.875 L 15.375 -66.375 C 15.375 -68.8125 15.109375 -70.597656 14.578125 -71.734375 C 14.046875 -72.867188 13.023438 -73.660156 11.515625 -74.109375 C 10.015625 -74.554688 7.679688 -74.78125 4.515625 -74.78125 C 4.347656 -74.78125 4.265625 -75.023438 4.265625 -75.515625 C 4.265625 -76.003906 4.347656 -76.25 4.515625 -76.25 L 10.484375 -76.125 C 13.898438 -75.96875 16.585938 -75.890625 18.546875 -75.890625 C 21.390625 -75.890625 24.273438 -76.007812 27.203125 -76.25 C 30.785156 -76.414062 33.226562 -76.5 34.53125 -76.5 C 43.070312 -76.5 50.632812 -74.867188 57.21875 -71.609375 C 63.800781 -68.359375 68.898438 -63.925781 72.515625 -58.3125 C 76.140625 -52.695312 77.953125 -46.394531 77.953125 -39.40625 C 77.953125 -31.519531 76.0625 -24.546875 72.28125 -18.484375 C 68.5 -12.421875 63.4375 -7.742188 57.09375 -4.453125 C 50.75 -1.160156 43.796875 0.484375 36.234375 0.484375 Z M 35.015625 -1.09375 C 41.847656 -1.09375 47.90625 -2.472656 53.1875 -5.234375 C 58.476562 -8.003906 62.609375 -12.070312 65.578125 -17.4375 C 68.546875 -22.8125 70.03125 -29.238281 70.03125 -36.71875 C 70.03125 -43.875 68.625 -50.335938 65.8125 -56.109375 C 63.007812 -61.890625 58.984375 -66.46875 53.734375 -69.84375 C 48.492188 -73.21875 42.457031 -74.90625 35.625 -74.90625 C 32.039062 -74.90625 29.289062 -74.703125 27.375 -74.296875 C 25.46875 -73.890625 24.066406 -73.054688 23.171875 -71.796875 C 22.285156 -70.535156 21.84375 -68.644531 21.84375 -66.125 L 21.84375 -11.21875 C 21.84375 -8.78125 22.207031 -6.828125 22.9375 -5.359375 C 23.664062 -3.898438 24.960938 -2.820312 26.828125 -2.125 C 28.703125 -1.4375 31.429688 -1.09375 35.015625 -1.09375 Z M 35.015625 -1.09375 "/></g></g></g><g fill="#ca8126" fill-opacity="1"><g transform="translate(26.318721, 270.176092)"><g><path d="M 12.875 -0.25 C 12.914062 -0.25 12.9375 -0.207031 12.9375 -0.125 C 12.9375 -0.0390625 12.914062 0 12.875 0 L 9.6875 0 C 9.488281 0 9.226562 -0.226562 8.90625 -0.6875 C 8.582031 -1.144531 8.210938 -1.859375 7.796875 -2.828125 C 7.390625 -3.804688 6.960938 -5.035156 6.515625 -6.515625 C 6.054688 -6.441406 5.640625 -6.40625 5.265625 -6.40625 L 5.03125 -6.40625 L 4.1875 -1.703125 C 4.132812 -1.304688 4.109375 -1.066406 4.109375 -0.984375 C 4.109375 -0.691406 4.191406 -0.492188 4.359375 -0.390625 C 4.523438 -0.296875 4.828125 -0.25 5.265625 -0.25 C 5.316406 -0.25 5.34375 -0.207031 5.34375 -0.125 C 5.34375 -0.0390625 5.320312 0 5.28125 0 C 4.851562 0 4.519531 -0.00390625 4.28125 -0.015625 L 2.859375 -0.046875 L 1.40625 -0.015625 C 1.164062 -0.00390625 0.832031 0 0.40625 0 C 0.34375 0 0.3125 -0.0390625 0.3125 -0.125 C 0.3125 -0.207031 0.34375 -0.25 0.40625 -0.25 C 0.820312 -0.25 1.132812 -0.285156 1.34375 -0.359375 C 1.550781 -0.441406 1.710938 -0.582031 1.828125 -0.78125 C 1.941406 -0.988281 2.039062 -1.296875 2.125 -1.703125 L 3.828125 -11.453125 C 3.890625 -11.722656 3.921875 -11.960938 3.921875 -12.171875 C 3.921875 -12.460938 3.832031 -12.65625 3.65625 -12.75 C 3.488281 -12.851562 3.179688 -12.90625 2.734375 -12.90625 C 2.679688 -12.90625 2.65625 -12.945312 2.65625 -13.03125 C 2.65625 -13.125 2.679688 -13.171875 2.734375 -13.171875 L 3.75 -13.140625 C 4.3125 -13.109375 4.773438 -13.09375 5.140625 -13.09375 C 5.378906 -13.09375 5.597656 -13.097656 5.796875 -13.109375 C 6.003906 -13.128906 6.1875 -13.148438 6.34375 -13.171875 C 6.75 -13.210938 7.097656 -13.234375 7.390625 -13.234375 C 9.835938 -13.234375 11.0625 -12.472656 11.0625 -10.953125 C 11.0625 -10.097656 10.800781 -9.332031 10.28125 -8.65625 C 9.769531 -7.976562 9.09375 -7.445312 8.25 -7.0625 C 8.914062 -5.351562 9.503906 -4.007812 10.015625 -3.03125 C 10.523438 -2.050781 11.003906 -1.34375 11.453125 -0.90625 C 11.898438 -0.46875 12.375 -0.25 12.875 -0.25 Z M 5.140625 -7.03125 C 5.335938 -6.988281 5.519531 -6.96875 5.6875 -6.96875 C 6.613281 -6.96875 7.316406 -7.191406 7.796875 -7.640625 C 8.285156 -8.085938 8.609375 -8.832031 8.765625 -9.875 C 8.816406 -10.195312 8.84375 -10.515625 8.84375 -10.828125 C 8.84375 -11.503906 8.691406 -12 8.390625 -12.3125 C 8.085938 -12.625 7.691406 -12.78125 7.203125 -12.78125 C 6.867188 -12.78125 6.628906 -12.753906 6.484375 -12.703125 C 6.347656 -12.660156 6.238281 -12.550781 6.15625 -12.375 C 6.082031 -12.195312 6.003906 -11.878906 5.921875 -11.421875 Z M 5.140625 -7.03125 "/></g></g></g><g fill="#ca8126" fill-opacity="1"><g transform="translate(46.004728, 270.176092)"><g><path d="M 10.9375 -13.171875 C 11.039062 -13.171875 11.082031 -13.101562 11.0625 -12.96875 L 10.609375 -10.15625 C 10.609375 -10.113281 10.582031 -10.09375 10.53125 -10.09375 C 10.488281 -10.09375 10.445312 -10.101562 10.40625 -10.125 C 10.375 -10.144531 10.359375 -10.160156 10.359375 -10.171875 C 10.304688 -10.941406 10.03125 -11.554688 9.53125 -12.015625 C 9.039062 -12.484375 8.410156 -12.71875 7.640625 -12.71875 L 7.265625 -12.71875 C 6.859375 -12.71875 6.5625 -12.6875 6.375 -12.625 C 6.195312 -12.5625 6.066406 -12.445312 5.984375 -12.28125 C 5.910156 -12.113281 5.835938 -11.832031 5.765625 -11.4375 L 5.015625 -7.140625 L 7.390625 -7.140625 C 8.035156 -7.140625 8.53125 -7.257812 8.875 -7.5 C 9.21875 -7.75 9.453125 -8.160156 9.578125 -8.734375 C 9.597656 -8.804688 9.648438 -8.835938 9.734375 -8.828125 C 9.816406 -8.828125 9.851562 -8.789062 9.84375 -8.71875 C 9.78125 -8.320312 9.691406 -7.882812 9.578125 -7.40625 C 9.578125 -7.351562 9.546875 -7.164062 9.484375 -6.84375 C 9.441406 -6.59375 9.390625 -6.265625 9.328125 -5.859375 C 9.296875 -5.703125 9.265625 -5.523438 9.234375 -5.328125 C 9.210938 -5.128906 9.179688 -4.910156 9.140625 -4.671875 C 9.128906 -4.617188 9.082031 -4.59375 9 -4.59375 C 8.914062 -4.601562 8.878906 -4.640625 8.890625 -4.703125 C 8.921875 -4.890625 8.9375 -5.03125 8.9375 -5.125 C 8.9375 -5.582031 8.785156 -5.929688 8.484375 -6.171875 C 8.191406 -6.421875 7.78125 -6.546875 7.25 -6.546875 L 4.90625 -6.546875 L 4.0625 -1.796875 C 4.019531 -1.535156 4 -1.320312 4 -1.15625 C 4 -0.875 4.078125 -0.679688 4.234375 -0.578125 C 4.390625 -0.484375 4.671875 -0.4375 5.078125 -0.4375 L 5.625 -0.4375 C 6.4375 -0.4375 7.234375 -0.695312 8.015625 -1.21875 C 8.804688 -1.75 9.460938 -2.457031 9.984375 -3.34375 C 9.992188 -3.382812 10.039062 -3.394531 10.125 -3.375 C 10.207031 -3.351562 10.238281 -3.332031 10.21875 -3.3125 C 9.988281 -2.582031 9.75 -1.582031 9.5 -0.3125 C 9.46875 -0.1875 9.429688 -0.101562 9.390625 -0.0625 C 9.347656 -0.0195312 9.269531 0 9.15625 0 L 0.421875 0 C 0.378906 0 0.359375 -0.0390625 0.359375 -0.125 C 0.359375 -0.207031 0.378906 -0.25 0.421875 -0.25 C 0.816406 -0.25 1.109375 -0.285156 1.296875 -0.359375 C 1.484375 -0.429688 1.625 -0.5625 1.71875 -0.75 C 1.8125 -0.945312 1.898438 -1.265625 1.984375 -1.703125 L 3.6875 -11.453125 C 3.738281 -11.722656 3.765625 -11.960938 3.765625 -12.171875 C 3.765625 -12.460938 3.679688 -12.65625 3.515625 -12.75 C 3.359375 -12.851562 3.070312 -12.90625 2.65625 -12.90625 C 2.625 -12.90625 2.609375 -12.945312 2.609375 -13.03125 C 2.609375 -13.125 2.625 -13.171875 2.65625 -13.171875 Z M 10.9375 -13.171875 "/></g></g></g><g fill="#ca8126" fill-opacity="1"><g transform="translate(63.50118, 270.176092)"><g><path d="M 4.046875 0.25 C 2.910156 0.25 1.835938 0.0078125 0.828125 -0.46875 C 0.679688 -0.5625 0.632812 -0.691406 0.6875 -0.859375 L 1.375 -3.828125 C 1.375 -3.898438 1.410156 -3.9375 1.484375 -3.9375 C 1.554688 -3.9375 1.601562 -3.898438 1.625 -3.828125 C 2.144531 -1.441406 3.140625 -0.25 4.609375 -0.25 C 5.296875 -0.25 5.851562 -0.488281 6.28125 -0.96875 C 6.707031 -1.457031 6.921875 -2.101562 6.921875 -2.90625 C 6.921875 -3.582031 6.726562 -4.164062 6.34375 -4.65625 C 5.957031 -5.144531 5.398438 -5.671875 4.671875 -6.234375 C 4.140625 -6.640625 3.71875 -6.984375 3.40625 -7.265625 C 3.101562 -7.546875 2.84375 -7.875 2.625 -8.25 C 2.414062 -8.632812 2.3125 -9.054688 2.3125 -9.515625 C 2.3125 -9.710938 2.332031 -9.914062 2.375 -10.125 C 2.601562 -11.175781 3.160156 -11.984375 4.046875 -12.546875 C 4.941406 -13.109375 5.953125 -13.390625 7.078125 -13.390625 C 7.898438 -13.390625 8.726562 -13.222656 9.5625 -12.890625 C 9.757812 -12.796875 9.835938 -12.675781 9.796875 -12.53125 L 9.484375 -9.796875 C 9.460938 -9.753906 9.421875 -9.734375 9.359375 -9.734375 C 9.296875 -9.734375 9.257812 -9.753906 9.25 -9.796875 C 9.019531 -10.773438 8.660156 -11.546875 8.171875 -12.109375 C 7.679688 -12.671875 7.128906 -12.953125 6.515625 -12.953125 C 6.035156 -12.953125 5.640625 -12.820312 5.328125 -12.5625 C 5.015625 -12.300781 4.785156 -11.988281 4.640625 -11.625 C 4.503906 -11.269531 4.4375 -10.925781 4.4375 -10.59375 C 4.4375 -10.175781 4.535156 -9.796875 4.734375 -9.453125 C 4.929688 -9.117188 5.160156 -8.828125 5.421875 -8.578125 C 5.691406 -8.335938 6.097656 -8.003906 6.640625 -7.578125 C 7.460938 -6.929688 8.09375 -6.34375 8.53125 -5.8125 C 8.96875 -5.28125 9.1875 -4.648438 9.1875 -3.921875 C 9.1875 -3.679688 9.171875 -3.5 9.140625 -3.375 C 8.941406 -2.300781 8.398438 -1.425781 7.515625 -0.75 C 6.628906 -0.0820312 5.472656 0.25 4.046875 0.25 Z M 4.046875 0.25 "/></g></g></g><g fill="#ca8126" fill-opacity="1"><g transform="translate(79.713362, 270.176092)"><g><path d="M 2.375 0 C 2.351562 0 2.34375 -0.0390625 2.34375 -0.125 C 2.34375 -0.207031 2.351562 -0.25 2.375 -0.25 C 2.894531 -0.25 3.285156 -0.285156 3.546875 -0.359375 C 3.804688 -0.429688 4 -0.566406 4.125 -0.765625 C 4.25 -0.972656 4.351562 -1.285156 4.4375 -1.703125 L 6.15625 -11.453125 C 6.207031 -11.796875 6.234375 -12.007812 6.234375 -12.09375 C 6.234375 -12.3125 6.175781 -12.460938 6.0625 -12.546875 C 5.945312 -12.640625 5.757812 -12.6875 5.5 -12.6875 L 5.25 -12.6875 C 4.8125 -12.6875 4.351562 -12.535156 3.875 -12.234375 C 3.394531 -11.929688 2.960938 -11.53125 2.578125 -11.03125 C 2.203125 -10.53125 1.929688 -9.984375 1.765625 -9.390625 C 1.753906 -9.347656 1.707031 -9.332031 1.625 -9.34375 C 1.550781 -9.363281 1.519531 -9.394531 1.53125 -9.4375 C 1.644531 -9.84375 1.8125 -10.515625 2.03125 -11.453125 C 2.257812 -12.398438 2.425781 -13.125 2.53125 -13.625 C 2.539062 -13.664062 2.585938 -13.679688 2.671875 -13.671875 C 2.753906 -13.671875 2.789062 -13.648438 2.78125 -13.609375 C 2.738281 -13.316406 3.015625 -13.171875 3.609375 -13.171875 C 4.640625 -13.117188 5.921875 -13.09375 7.453125 -13.09375 C 8.171875 -13.09375 8.96875 -13.109375 9.84375 -13.140625 L 11.15625 -13.171875 C 11.582031 -13.171875 11.898438 -13.203125 12.109375 -13.265625 C 12.316406 -13.335938 12.460938 -13.476562 12.546875 -13.6875 C 12.578125 -13.726562 12.628906 -13.742188 12.703125 -13.734375 C 12.773438 -13.734375 12.800781 -13.707031 12.78125 -13.65625 C 12.65625 -13.195312 12.484375 -12.46875 12.265625 -11.46875 C 12.046875 -10.46875 11.914062 -9.789062 11.875 -9.4375 C 11.863281 -9.382812 11.816406 -9.359375 11.734375 -9.359375 C 11.648438 -9.367188 11.613281 -9.398438 11.625 -9.453125 C 11.664062 -9.691406 11.6875 -9.914062 11.6875 -10.125 C 11.6875 -10.851562 11.484375 -11.460938 11.078125 -11.953125 C 10.671875 -12.441406 10.144531 -12.6875 9.5 -12.6875 L 9.265625 -12.6875 C 8.898438 -12.6875 8.65625 -12.601562 8.53125 -12.4375 C 8.414062 -12.269531 8.316406 -11.929688 8.234375 -11.421875 L 6.53125 -1.703125 C 6.46875 -1.367188 6.4375 -1.148438 6.4375 -1.046875 C 6.4375 -0.722656 6.550781 -0.507812 6.78125 -0.40625 C 7.019531 -0.300781 7.457031 -0.25 8.09375 -0.25 C 8.113281 -0.25 8.125 -0.207031 8.125 -0.125 C 8.125 -0.0390625 8.113281 0 8.09375 0 C 7.59375 0 7.203125 -0.00390625 6.921875 -0.015625 L 5.21875 -0.046875 L 3.578125 -0.015625 C 3.296875 -0.00390625 2.894531 0 2.375 0 Z M 2.375 0 "/></g></g></g><g fill="#ca8126" fill-opacity="1"><g transform="translate(97.672993, 270.176092)"><g><path d="M 12.0625 -0.25 C 12.125 -0.25 12.15625 -0.207031 12.15625 -0.125 C 12.15625 -0.0390625 12.125 0 12.0625 0 C 11.84375 0 11.492188 -0.015625 11.015625 -0.046875 C 10.484375 -0.0664062 10.054688 -0.078125 9.734375 -0.078125 C 9.421875 -0.078125 9.015625 -0.0664062 8.515625 -0.046875 C 8.054688 -0.015625 7.71875 0 7.5 0 C 7.4375 0 7.40625 -0.0390625 7.40625 -0.125 C 7.40625 -0.207031 7.4375 -0.25 7.5 -0.25 C 7.914062 -0.25 8.210938 -0.3125 8.390625 -0.4375 C 8.578125 -0.5625 8.671875 -0.78125 8.671875 -1.09375 C 8.671875 -1.320312 8.644531 -1.546875 8.59375 -1.765625 L 7.984375 -4.828125 L 3.890625 -4.828125 L 2.734375 -2.71875 C 2.367188 -2.0625 2.1875 -1.546875 2.1875 -1.171875 C 2.1875 -0.847656 2.316406 -0.613281 2.578125 -0.46875 C 2.847656 -0.320312 3.257812 -0.25 3.8125 -0.25 C 3.863281 -0.25 3.882812 -0.207031 3.875 -0.125 C 3.875 -0.0390625 3.847656 0 3.796875 0 C 3.609375 0 3.25 -0.015625 2.71875 -0.046875 C 2.070312 -0.0664062 1.570312 -0.078125 1.21875 -0.078125 C 0.925781 -0.078125 0.582031 -0.0664062 0.1875 -0.046875 C -0.207031 -0.015625 -0.507812 0 -0.71875 0 C -0.769531 0 -0.796875 -0.0390625 -0.796875 -0.125 C -0.796875 -0.207031 -0.769531 -0.25 -0.71875 -0.25 C -0.320312 -0.25 0.140625 -0.472656 0.671875 -0.921875 C 1.203125 -1.367188 1.703125 -2.015625 2.171875 -2.859375 L 8.046875 -13.359375 C 8.078125 -13.398438 8.132812 -13.421875 8.21875 -13.421875 C 8.257812 -13.421875 8.300781 -13.410156 8.34375 -13.390625 C 8.382812 -13.378906 8.410156 -13.359375 8.421875 -13.328125 L 10.71875 -1.765625 C 10.800781 -1.304688 10.875 -0.984375 10.9375 -0.796875 C 11 -0.617188 11.113281 -0.484375 11.28125 -0.390625 C 11.457031 -0.296875 11.71875 -0.25 12.0625 -0.25 Z M 4.21875 -5.40625 L 7.859375 -5.40625 L 6.890625 -10.25 Z M 4.21875 -5.40625 "/></g></g></g><g fill="#ca8126" fill-opacity="1"><g transform="translate(116.727401, 270.176092)"><g><path d="M 11.78125 -10.546875 C 11.820312 -10.804688 11.84375 -11.046875 11.84375 -11.265625 C 11.84375 -11.785156 11.722656 -12.1875 11.484375 -12.46875 C 11.242188 -12.757812 10.898438 -12.90625 10.453125 -12.90625 C 10.410156 -12.90625 10.390625 -12.945312 10.390625 -13.03125 C 10.398438 -13.125 10.421875 -13.171875 10.453125 -13.171875 L 11.375 -13.140625 C 11.851562 -13.109375 12.234375 -13.09375 12.515625 -13.09375 C 12.796875 -13.09375 13.160156 -13.109375 13.609375 -13.140625 L 14.40625 -13.171875 C 14.457031 -13.171875 14.476562 -13.125 14.46875 -13.03125 C 14.46875 -12.945312 14.445312 -12.90625 14.40625 -12.90625 C 13.90625 -12.90625 13.472656 -12.675781 13.109375 -12.21875 C 12.753906 -11.769531 12.515625 -11.164062 12.390625 -10.40625 L 11.265625 -4.046875 C 11.023438 -2.710938 10.40625 -1.65625 9.40625 -0.875 C 8.414062 -0.09375 7.222656 0.296875 5.828125 0.296875 C 4.554688 0.296875 3.546875 -0.0234375 2.796875 -0.671875 C 2.054688 -1.316406 1.6875 -2.203125 1.6875 -3.328125 C 1.6875 -3.648438 1.710938 -3.953125 1.765625 -4.234375 L 3.078125 -11.515625 C 3.128906 -11.878906 3.15625 -12.113281 3.15625 -12.21875 C 3.15625 -12.5 3.070312 -12.679688 2.90625 -12.765625 C 2.738281 -12.859375 2.4375 -12.90625 2 -12.90625 C 1.957031 -12.90625 1.9375 -12.945312 1.9375 -13.03125 C 1.9375 -13.125 1.953125 -13.171875 1.984375 -13.171875 L 3.015625 -13.140625 C 3.578125 -13.109375 4.023438 -13.09375 4.359375 -13.09375 C 4.753906 -13.09375 5.257812 -13.109375 5.875 -13.140625 L 6.796875 -13.171875 C 6.828125 -13.171875 6.84375 -13.125 6.84375 -13.03125 C 6.84375 -12.945312 6.828125 -12.90625 6.796875 -12.90625 C 6.222656 -12.90625 5.832031 -12.796875 5.625 -12.578125 C 5.414062 -12.367188 5.253906 -11.953125 5.140625 -11.328125 L 3.984375 -4.828125 C 3.898438 -4.304688 3.859375 -3.832031 3.859375 -3.40625 C 3.859375 -2.414062 4.09375 -1.679688 4.5625 -1.203125 C 5.03125 -0.722656 5.707031 -0.484375 6.59375 -0.484375 C 7.65625 -0.484375 8.546875 -0.804688 9.265625 -1.453125 C 9.984375 -2.109375 10.441406 -3.015625 10.640625 -4.171875 Z M 11.78125 -10.546875 "/></g></g></g><g fill="#ca8126" fill-opacity="1"><g transform="translate(136.09761, 270.176092)"><g><path d="M 12.875 -0.25 C 12.914062 -0.25 12.9375 -0.207031 12.9375 -0.125 C 12.9375 -0.0390625 12.914062 0 12.875 0 L 9.6875 0 C 9.488281 0 9.226562 -0.226562 8.90625 -0.6875 C 8.582031 -1.144531 8.210938 -1.859375 7.796875 -2.828125 C 7.390625 -3.804688 6.960938 -5.035156 6.515625 -6.515625 C 6.054688 -6.441406 5.640625 -6.40625 5.265625 -6.40625 L 5.03125 -6.40625 L 4.1875 -1.703125 C 4.132812 -1.304688 4.109375 -1.066406 4.109375 -0.984375 C 4.109375 -0.691406 4.191406 -0.492188 4.359375 -0.390625 C 4.523438 -0.296875 4.828125 -0.25 5.265625 -0.25 C 5.316406 -0.25 5.34375 -0.207031 5.34375 -0.125 C 5.34375 -0.0390625 5.320312 0 5.28125 0 C 4.851562 0 4.519531 -0.00390625 4.28125 -0.015625 L 2.859375 -0.046875 L 1.40625 -0.015625 C 1.164062 -0.00390625 0.832031 0 0.40625 0 C 0.34375 0 0.3125 -0.0390625 0.3125 -0.125 C 0.3125 -0.207031 0.34375 -0.25 0.40625 -0.25 C 0.820312 -0.25 1.132812 -0.285156 1.34375 -0.359375 C 1.550781 -0.441406 1.710938 -0.582031 1.828125 -0.78125 C 1.941406 -0.988281 2.039062 -1.296875 2.125 -1.703125 L 3.828125 -11.453125 C 3.890625 -11.722656 3.921875 -11.960938 3.921875 -12.171875 C 3.921875 -12.460938 3.832031 -12.65625 3.65625 -12.75 C 3.488281 -12.851562 3.179688 -12.90625 2.734375 -12.90625 C 2.679688 -12.90625 2.65625 -12.945312 2.65625 -13.03125 C 2.65625 -13.125 2.679688 -13.171875 2.734375 -13.171875 L 3.75 -13.140625 C 4.3125 -13.109375 4.773438 -13.09375 5.140625 -13.09375 C 5.378906 -13.09375 5.597656 -13.097656 5.796875 -13.109375 C 6.003906 -13.128906 6.1875 -13.148438 6.34375 -13.171875 C 6.75 -13.210938 7.097656 -13.234375 7.390625 -13.234375 C 9.835938 -13.234375 11.0625 -12.472656 11.0625 -10.953125 C 11.0625 -10.097656 10.800781 -9.332031 10.28125 -8.65625 C 9.769531 -7.976562 9.09375 -7.445312 8.25 -7.0625 C 8.914062 -5.351562 9.503906 -4.007812 10.015625 -3.03125 C 10.523438 -2.050781 11.003906 -1.34375 11.453125 -0.90625 C 11.898438 -0.46875 12.375 -0.25 12.875 -0.25 Z M 5.140625 -7.03125 C 5.335938 -6.988281 5.519531 -6.96875 5.6875 -6.96875 C 6.613281 -6.96875 7.316406 -7.191406 7.796875 -7.640625 C 8.285156 -8.085938 8.609375 -8.832031 8.765625 -9.875 C 8.816406 -10.195312 8.84375 -10.515625 8.84375 -10.828125 C 8.84375 -11.503906 8.691406 -12 8.390625 -12.3125 C 8.085938 -12.625 7.691406 -12.78125 7.203125 -12.78125 C 6.867188 -12.78125 6.628906 -12.753906 6.484375 -12.703125 C 6.347656 -12.660156 6.238281 -12.550781 6.15625 -12.375 C 6.082031 -12.195312 6.003906 -11.878906 5.921875 -11.421875 Z M 5.140625 -7.03125 "/></g></g></g><g fill="#ca8126" fill-opacity="1"><g transform="translate(155.78362, 270.176092)"><g><path d="M 12.0625 -0.25 C 12.125 -0.25 12.15625 -0.207031 12.15625 -0.125 C 12.15625 -0.0390625 12.125 0 12.0625 0 C 11.84375 0 11.492188 -0.015625 11.015625 -0.046875 C 10.484375 -0.0664062 10.054688 -0.078125 9.734375 -0.078125 C 9.421875 -0.078125 9.015625 -0.0664062 8.515625 -0.046875 C 8.054688 -0.015625 7.71875 0 7.5 0 C 7.4375 0 7.40625 -0.0390625 7.40625 -0.125 C 7.40625 -0.207031 7.4375 -0.25 7.5 -0.25 C 7.914062 -0.25 8.210938 -0.3125 8.390625 -0.4375 C 8.578125 -0.5625 8.671875 -0.78125 8.671875 -1.09375 C 8.671875 -1.320312 8.644531 -1.546875 8.59375 -1.765625 L 7.984375 -4.828125 L 3.890625 -4.828125 L 2.734375 -2.71875 C 2.367188 -2.0625 2.1875 -1.546875 2.1875 -1.171875 C 2.1875 -0.847656 2.316406 -0.613281 2.578125 -0.46875 C 2.847656 -0.320312 3.257812 -0.25 3.8125 -0.25 C 3.863281 -0.25 3.882812 -0.207031 3.875 -0.125 C 3.875 -0.0390625 3.847656 0 3.796875 0 C 3.609375 0 3.25 -0.015625 2.71875 -0.046875 C 2.070312 -0.0664062 1.570312 -0.078125 1.21875 -0.078125 C 0.925781 -0.078125 0.582031 -0.0664062 0.1875 -0.046875 C -0.207031 -0.015625 -0.507812 0 -0.71875 0 C -0.769531 0 -0.796875 -0.0390625 -0.796875 -0.125 C -0.796875 -0.207031 -0.769531 -0.25 -0.71875 -0.25 C -0.320312 -0.25 0.140625 -0.472656 0.671875 -0.921875 C 1.203125 -1.367188 1.703125 -2.015625 2.171875 -2.859375 L 8.046875 -13.359375 C 8.078125 -13.398438 8.132812 -13.421875 8.21875 -13.421875 C 8.257812 -13.421875 8.300781 -13.410156 8.34375 -13.390625 C 8.382812 -13.378906 8.410156 -13.359375 8.421875 -13.328125 L 10.71875 -1.765625 C 10.800781 -1.304688 10.875 -0.984375 10.9375 -0.796875 C 11 -0.617188 11.113281 -0.484375 11.28125 -0.390625 C 11.457031 -0.296875 11.71875 -0.25 12.0625 -0.25 Z M 4.21875 -5.40625 L 7.859375 -5.40625 L 6.890625 -10.25 Z M 4.21875 -5.40625 "/></g></g></g><g fill="#ca8126" fill-opacity="1"><g transform="translate(174.838028, 270.176092)"><g><path d="M 14.953125 -13.171875 C 14.984375 -13.171875 15 -13.125 15 -13.03125 C 15 -12.945312 14.984375 -12.90625 14.953125 -12.90625 C 14.421875 -12.90625 13.960938 -12.707031 13.578125 -12.3125 C 13.191406 -11.925781 12.9375 -11.394531 12.8125 -10.71875 L 10.875 0.140625 C 10.875 0.179688 10.832031 0.21875 10.75 0.25 C 10.675781 0.289062 10.597656 0.3125 10.515625 0.3125 C 10.390625 0.3125 10.300781 0.269531 10.25 0.1875 L 4.1875 -10.890625 L 2.671875 -2.4375 C 2.648438 -2.300781 2.640625 -2.109375 2.640625 -1.859375 C 2.640625 -1.347656 2.765625 -0.953125 3.015625 -0.671875 C 3.265625 -0.390625 3.613281 -0.25 4.0625 -0.25 C 4.09375 -0.25 4.109375 -0.207031 4.109375 -0.125 C 4.109375 -0.0390625 4.09375 0 4.0625 0 C 3.695312 0 3.414062 -0.00390625 3.21875 -0.015625 L 2.015625 -0.046875 L 0.890625 -0.015625 C 0.671875 -0.00390625 0.359375 0 -0.046875 0 C -0.0859375 0 -0.109375 -0.0390625 -0.109375 -0.125 C -0.109375 -0.207031 -0.0859375 -0.25 -0.046875 -0.25 C 0.492188 -0.25 0.957031 -0.445312 1.34375 -0.84375 C 1.726562 -1.238281 1.972656 -1.769531 2.078125 -2.4375 L 3.75 -11.671875 C 3.476562 -12.128906 3.21875 -12.445312 2.96875 -12.625 C 2.71875 -12.8125 2.441406 -12.90625 2.140625 -12.90625 C 2.097656 -12.90625 2.078125 -12.945312 2.078125 -13.03125 C 2.078125 -13.125 2.097656 -13.171875 2.140625 -13.171875 L 3.140625 -13.140625 C 3.347656 -13.128906 3.628906 -13.125 3.984375 -13.125 C 4.316406 -13.125 4.601562 -13.128906 4.84375 -13.140625 C 5.09375 -13.160156 5.257812 -13.171875 5.34375 -13.171875 C 5.425781 -13.171875 5.488281 -13.144531 5.53125 -13.09375 C 5.582031 -13.039062 5.632812 -12.9375 5.6875 -12.78125 C 5.71875 -12.726562 5.765625 -12.632812 5.828125 -12.5 C 5.890625 -12.363281 5.960938 -12.21875 6.046875 -12.0625 L 10.875 -3.28125 L 12.21875 -10.71875 C 12.257812 -10.957031 12.28125 -11.171875 12.28125 -11.359375 C 12.28125 -11.847656 12.148438 -12.226562 11.890625 -12.5 C 11.640625 -12.769531 11.289062 -12.90625 10.84375 -12.90625 C 10.800781 -12.90625 10.78125 -12.945312 10.78125 -13.03125 C 10.78125 -13.125 10.800781 -13.171875 10.84375 -13.171875 L 11.609375 -13.140625 C 12.109375 -13.109375 12.535156 -13.09375 12.890625 -13.09375 C 13.140625 -13.09375 13.519531 -13.109375 14.03125 -13.140625 Z M 14.953125 -13.171875 "/></g></g></g><g fill="#ca8126" fill-opacity="1"><g transform="translate(194.94511, 270.176092)"><g><path d="M 2.375 0 C 2.351562 0 2.34375 -0.0390625 2.34375 -0.125 C 2.34375 -0.207031 2.351562 -0.25 2.375 -0.25 C 2.894531 -0.25 3.285156 -0.285156 3.546875 -0.359375 C 3.804688 -0.429688 4 -0.566406 4.125 -0.765625 C 4.25 -0.972656 4.351562 -1.285156 4.4375 -1.703125 L 6.15625 -11.453125 C 6.207031 -11.796875 6.234375 -12.007812 6.234375 -12.09375 C 6.234375 -12.3125 6.175781 -12.460938 6.0625 -12.546875 C 5.945312 -12.640625 5.757812 -12.6875 5.5 -12.6875 L 5.25 -12.6875 C 4.8125 -12.6875 4.351562 -12.535156 3.875 -12.234375 C 3.394531 -11.929688 2.960938 -11.53125 2.578125 -11.03125 C 2.203125 -10.53125 1.929688 -9.984375 1.765625 -9.390625 C 1.753906 -9.347656 1.707031 -9.332031 1.625 -9.34375 C 1.550781 -9.363281 1.519531 -9.394531 1.53125 -9.4375 C 1.644531 -9.84375 1.8125 -10.515625 2.03125 -11.453125 C 2.257812 -12.398438 2.425781 -13.125 2.53125 -13.625 C 2.539062 -13.664062 2.585938 -13.679688 2.671875 -13.671875 C 2.753906 -13.671875 2.789062 -13.648438 2.78125 -13.609375 C 2.738281 -13.316406 3.015625 -13.171875 3.609375 -13.171875 C 4.640625 -13.117188 5.921875 -13.09375 7.453125 -13.09375 C 8.171875 -13.09375 8.96875 -13.109375 9.84375 -13.140625 L 11.15625 -13.171875 C 11.582031 -13.171875 11.898438 -13.203125 12.109375 -13.265625 C 12.316406 -13.335938 12.460938 -13.476562 12.546875 -13.6875 C 12.578125 -13.726562 12.628906 -13.742188 12.703125 -13.734375 C 12.773438 -13.734375 12.800781 -13.707031 12.78125 -13.65625 C 12.65625 -13.195312 12.484375 -12.46875 12.265625 -11.46875 C 12.046875 -10.46875 11.914062 -9.789062 11.875 -9.4375 C 11.863281 -9.382812 11.816406 -9.359375 11.734375 -9.359375 C 11.648438 -9.367188 11.613281 -9.398438 11.625 -9.453125 C 11.664062 -9.691406 11.6875 -9.914062 11.6875 -10.125 C 11.6875 -10.851562 11.484375 -11.460938 11.078125 -11.953125 C 10.671875 -12.441406 10.144531 -12.6875 9.5 -12.6875 L 9.265625 -12.6875 C 8.898438 -12.6875 8.65625 -12.601562 8.53125 -12.4375 C 8.414062 -12.269531 8.316406 -11.929688 8.234375 -11.421875 L 6.53125 -1.703125 C 6.46875 -1.367188 6.4375 -1.148438 6.4375 -1.046875 C 6.4375 -0.722656 6.550781 -0.507812 6.78125 -0.40625 C 7.019531 -0.300781 7.457031 -0.25 8.09375 -0.25 C 8.113281 -0.25 8.125 -0.207031 8.125 -0.125 C 8.125 -0.0390625 8.113281 0 8.09375 0 C 7.59375 0 7.203125 -0.00390625 6.921875 -0.015625 L 5.21875 -0.046875 L 3.578125 -0.015625 C 3.296875 -0.00390625 2.894531 0 2.375 0 Z M 2.375 0 "/></g></g></g><g fill="#ca8126" fill-opacity="1"><g transform="translate(212.904741, 270.176092)"><g/></g></g><g fill="#ca8126" fill-opacity="1"><g transform="translate(224.148308, 270.176092)"><g><path d="M 0.71875 -3.453125 C 0.675781 -3.441406 0.640625 -3.523438 0.609375 -3.703125 C 0.578125 -3.890625 0.5625 -4.070312 0.5625 -4.25 C 0.5625 -4.4375 0.578125 -4.53125 0.609375 -4.53125 L 5.859375 -5.515625 C 5.898438 -5.535156 5.929688 -5.457031 5.953125 -5.28125 C 5.984375 -5.101562 6 -4.929688 6 -4.765625 C 6 -4.546875 5.976562 -4.4375 5.9375 -4.4375 Z M 0.71875 -3.453125 "/></g></g></g><g fill="#ca8126" fill-opacity="1"><g transform="translate(236.886661, 270.176092)"><g/></g></g><g fill="#ca8126" fill-opacity="1"><g transform="translate(248.130217, 270.176092)"><g><path d="M 6.734375 0.25 C 4.785156 0.25 3.359375 -0.253906 2.453125 -1.265625 C 1.554688 -2.285156 1.109375 -3.554688 1.109375 -5.078125 C 1.109375 -5.523438 1.160156 -6.03125 1.265625 -6.59375 C 1.515625 -7.976562 2.039062 -9.1875 2.84375 -10.21875 C 3.644531 -11.257812 4.601562 -12.046875 5.71875 -12.578125 C 6.832031 -13.117188 7.988281 -13.390625 9.1875 -13.390625 C 9.75 -13.390625 10.328125 -13.328125 10.921875 -13.203125 C 11.515625 -13.085938 11.984375 -12.945312 12.328125 -12.78125 C 12.410156 -12.726562 12.460938 -12.671875 12.484375 -12.609375 C 12.503906 -12.554688 12.503906 -12.453125 12.484375 -12.296875 L 12.15625 -9.484375 C 12.15625 -9.441406 12.117188 -9.421875 12.046875 -9.421875 C 11.972656 -9.421875 11.929688 -9.441406 11.921875 -9.484375 C 11.679688 -10.535156 11.25 -11.351562 10.625 -11.9375 C 10 -12.53125 9.226562 -12.828125 8.3125 -12.828125 C 7.09375 -12.828125 6.066406 -12.332031 5.234375 -11.34375 C 4.398438 -10.363281 3.863281 -9.007812 3.625 -7.28125 C 3.539062 -6.695312 3.5 -6.125 3.5 -5.5625 C 3.5 -4.53125 3.628906 -3.609375 3.890625 -2.796875 C 4.160156 -1.984375 4.550781 -1.34375 5.0625 -0.875 C 5.570312 -0.40625 6.171875 -0.171875 6.859375 -0.171875 C 7.566406 -0.171875 8.285156 -0.429688 9.015625 -0.953125 C 9.742188 -1.472656 10.515625 -2.28125 11.328125 -3.375 C 11.347656 -3.394531 11.378906 -3.40625 11.421875 -3.40625 C 11.460938 -3.40625 11.5 -3.394531 11.53125 -3.375 C 11.5625 -3.351562 11.570312 -3.332031 11.5625 -3.3125 L 11 -0.890625 C 10.957031 -0.710938 10.914062 -0.59375 10.875 -0.53125 C 10.832031 -0.46875 10.742188 -0.425781 10.609375 -0.40625 C 9.347656 0.03125 8.054688 0.25 6.734375 0.25 Z M 6.734375 0.25 "/></g></g></g><g fill="#ca8126" fill-opacity="1"><g transform="translate(266.826708, 270.176092)"><g><path d="M 5.921875 0.25 C 4.921875 0.25 4.054688 0.0234375 3.328125 -0.421875 C 2.609375 -0.878906 2.054688 -1.507812 1.671875 -2.3125 C 1.296875 -3.113281 1.109375 -4.019531 1.109375 -5.03125 C 1.109375 -5.457031 1.160156 -5.976562 1.265625 -6.59375 C 1.484375 -7.882812 1.945312 -9.046875 2.65625 -10.078125 C 3.375 -11.109375 4.257812 -11.914062 5.3125 -12.5 C 6.363281 -13.09375 7.476562 -13.390625 8.65625 -13.390625 C 9.664062 -13.390625 10.539062 -13.164062 11.28125 -12.71875 C 12.019531 -12.269531 12.582031 -11.648438 12.96875 -10.859375 C 13.363281 -10.066406 13.5625 -9.15625 13.5625 -8.125 C 13.5625 -7.59375 13.515625 -7.082031 13.421875 -6.59375 C 13.179688 -5.21875 12.679688 -4.007812 11.921875 -2.96875 C 11.160156 -1.925781 10.25 -1.128906 9.1875 -0.578125 C 8.132812 -0.0234375 7.046875 0.25 5.921875 0.25 Z M 6.828125 -0.296875 C 7.816406 -0.296875 8.691406 -0.757812 9.453125 -1.6875 C 10.222656 -2.625 10.742188 -3.882812 11.015625 -5.46875 C 11.128906 -6.09375 11.1875 -6.773438 11.1875 -7.515625 C 11.1875 -9.078125 10.890625 -10.363281 10.296875 -11.375 C 9.710938 -12.382812 8.890625 -12.890625 7.828125 -12.890625 C 6.816406 -12.890625 5.929688 -12.421875 5.171875 -11.484375 C 4.421875 -10.554688 3.910156 -9.296875 3.640625 -7.703125 C 3.523438 -6.960938 3.46875 -6.289062 3.46875 -5.6875 C 3.46875 -4.144531 3.757812 -2.859375 4.34375 -1.828125 C 4.925781 -0.804688 5.753906 -0.296875 6.828125 -0.296875 Z M 6.828125 -0.296875 "/></g></g></g><g fill="#ca8126" fill-opacity="1"><g transform="translate(286.933791, 270.176092)"><g><path d="M 10.875 -13.171875 C 10.976562 -13.171875 11.019531 -13.101562 11 -12.96875 L 10.828125 -11.90625 L 10.546875 -10.15625 C 10.535156 -10.113281 10.503906 -10.09375 10.453125 -10.09375 C 10.421875 -10.09375 10.382812 -10.101562 10.34375 -10.125 C 10.3125 -10.144531 10.296875 -10.160156 10.296875 -10.171875 C 10.222656 -10.960938 9.941406 -11.582031 9.453125 -12.03125 C 8.960938 -12.488281 8.332031 -12.71875 7.5625 -12.71875 L 7.203125 -12.71875 C 6.796875 -12.71875 6.5 -12.6875 6.3125 -12.625 C 6.132812 -12.5625 6.003906 -12.445312 5.921875 -12.28125 C 5.847656 -12.113281 5.769531 -11.832031 5.6875 -11.4375 L 4.890625 -6.890625 L 6.828125 -6.890625 C 7.453125 -6.890625 7.941406 -7.015625 8.296875 -7.265625 C 8.648438 -7.515625 8.890625 -7.929688 9.015625 -8.515625 C 9.015625 -8.554688 9.054688 -8.578125 9.140625 -8.578125 C 9.171875 -8.578125 9.203125 -8.566406 9.234375 -8.546875 C 9.265625 -8.523438 9.273438 -8.5 9.265625 -8.46875 C 9.210938 -8.070312 9.128906 -7.632812 9.015625 -7.15625 C 9.015625 -7.101562 8.976562 -6.914062 8.90625 -6.59375 L 8.828125 -6.046875 C 8.765625 -5.640625 8.679688 -5.101562 8.578125 -4.4375 C 8.554688 -4.382812 8.503906 -4.359375 8.421875 -4.359375 C 8.335938 -4.367188 8.300781 -4.40625 8.3125 -4.46875 C 8.34375 -4.664062 8.359375 -4.804688 8.359375 -4.890625 C 8.359375 -5.347656 8.210938 -5.695312 7.921875 -5.9375 C 7.628906 -6.175781 7.210938 -6.296875 6.671875 -6.296875 L 4.78125 -6.296875 L 3.984375 -1.796875 C 3.941406 -1.566406 3.921875 -1.375 3.921875 -1.21875 C 3.921875 -0.84375 4.050781 -0.585938 4.3125 -0.453125 C 4.570312 -0.316406 5.050781 -0.25 5.75 -0.25 C 5.78125 -0.25 5.796875 -0.207031 5.796875 -0.125 C 5.796875 -0.0390625 5.78125 0 5.75 0 C 5.457031 0 5.203125 -0.00390625 4.984375 -0.015625 L 2.609375 -0.046875 L 1.265625 -0.015625 C 1.035156 -0.00390625 0.71875 0 0.3125 0 C 0.289062 0 0.28125 -0.0390625 0.28125 -0.125 C 0.28125 -0.207031 0.289062 -0.25 0.3125 -0.25 C 0.707031 -0.25 1.003906 -0.285156 1.203125 -0.359375 C 1.398438 -0.429688 1.546875 -0.566406 1.640625 -0.765625 C 1.742188 -0.972656 1.828125 -1.285156 1.890625 -1.703125 L 3.625 -11.453125 C 3.675781 -11.816406 3.703125 -12.050781 3.703125 -12.15625 C 3.703125 -12.445312 3.617188 -12.644531 3.453125 -12.75 C 3.285156 -12.851562 3 -12.90625 2.59375 -12.90625 C 2.550781 -12.90625 2.53125 -12.945312 2.53125 -13.03125 C 2.53125 -13.125 2.550781 -13.171875 2.59375 -13.171875 Z M 10.875 -13.171875 "/></g></g></g><g fill="#ca8126" fill-opacity="1"><g transform="translate(303.461779, 270.176092)"><g><path d="M 10.875 -13.171875 C 10.976562 -13.171875 11.019531 -13.101562 11 -12.96875 L 10.828125 -11.90625 L 10.546875 -10.15625 C 10.535156 -10.113281 10.503906 -10.09375 10.453125 -10.09375 C 10.421875 -10.09375 10.382812 -10.101562 10.34375 -10.125 C 10.3125 -10.144531 10.296875 -10.160156 10.296875 -10.171875 C 10.222656 -10.960938 9.941406 -11.582031 9.453125 -12.03125 C 8.960938 -12.488281 8.332031 -12.71875 7.5625 -12.71875 L 7.203125 -12.71875 C 6.796875 -12.71875 6.5 -12.6875 6.3125 -12.625 C 6.132812 -12.5625 6.003906 -12.445312 5.921875 -12.28125 C 5.847656 -12.113281 5.769531 -11.832031 5.6875 -11.4375 L 4.890625 -6.890625 L 6.828125 -6.890625 C 7.453125 -6.890625 7.941406 -7.015625 8.296875 -7.265625 C 8.648438 -7.515625 8.890625 -7.929688 9.015625 -8.515625 C 9.015625 -8.554688 9.054688 -8.578125 9.140625 -8.578125 C 9.171875 -8.578125 9.203125 -8.566406 9.234375 -8.546875 C 9.265625 -8.523438 9.273438 -8.5 9.265625 -8.46875 C 9.210938 -8.070312 9.128906 -7.632812 9.015625 -7.15625 C 9.015625 -7.101562 8.976562 -6.914062 8.90625 -6.59375 L 8.828125 -6.046875 C 8.765625 -5.640625 8.679688 -5.101562 8.578125 -4.4375 C 8.554688 -4.382812 8.503906 -4.359375 8.421875 -4.359375 C 8.335938 -4.367188 8.300781 -4.40625 8.3125 -4.46875 C 8.34375 -4.664062 8.359375 -4.804688 8.359375 -4.890625 C 8.359375 -5.347656 8.210938 -5.695312 7.921875 -5.9375 C 7.628906 -6.175781 7.210938 -6.296875 6.671875 -6.296875 L 4.78125 -6.296875 L 3.984375 -1.796875 C 3.941406 -1.566406 3.921875 -1.375 3.921875 -1.21875 C 3.921875 -0.84375 4.050781 -0.585938 4.3125 -0.453125 C 4.570312 -0.316406 5.050781 -0.25 5.75 -0.25 C 5.78125 -0.25 5.796875 -0.207031 5.796875 -0.125 C 5.796875 -0.0390625 5.78125 0 5.75 0 C 5.457031 0 5.203125 -0.00390625 4.984375 -0.015625 L 2.609375 -0.046875 L 1.265625 -0.015625 C 1.035156 -0.00390625 0.71875 0 0.3125 0 C 0.289062 0 0.28125 -0.0390625 0.28125 -0.125 C 0.28125 -0.207031 0.289062 -0.25 0.3125 -0.25 C 0.707031 -0.25 1.003906 -0.285156 1.203125 -0.359375 C 1.398438 -0.429688 1.546875 -0.566406 1.640625 -0.765625 C 1.742188 -0.972656 1.828125 -1.285156 1.890625 -1.703125 L 3.625 -11.453125 C 3.675781 -11.816406 3.703125 -12.050781 3.703125 -12.15625 C 3.703125 -12.445312 3.617188 -12.644531 3.453125 -12.75 C 3.285156 -12.851562 3 -12.90625 2.59375 -12.90625 C 2.550781 -12.90625 2.53125 -12.945312 2.53125 -13.03125 C 2.53125 -13.125 2.550781 -13.171875 2.59375 -13.171875 Z M 10.875 -13.171875 "/></g></g></g><g fill="#ca8126" fill-opacity="1"><g transform="translate(319.989767, 270.176092)"><g><path d="M 10.9375 -13.171875 C 11.039062 -13.171875 11.082031 -13.101562 11.0625 -12.96875 L 10.609375 -10.15625 C 10.609375 -10.113281 10.582031 -10.09375 10.53125 -10.09375 C 10.488281 -10.09375 10.445312 -10.101562 10.40625 -10.125 C 10.375 -10.144531 10.359375 -10.160156 10.359375 -10.171875 C 10.304688 -10.941406 10.03125 -11.554688 9.53125 -12.015625 C 9.039062 -12.484375 8.410156 -12.71875 7.640625 -12.71875 L 7.265625 -12.71875 C 6.859375 -12.71875 6.5625 -12.6875 6.375 -12.625 C 6.195312 -12.5625 6.066406 -12.445312 5.984375 -12.28125 C 5.910156 -12.113281 5.835938 -11.832031 5.765625 -11.4375 L 5.015625 -7.140625 L 7.390625 -7.140625 C 8.035156 -7.140625 8.53125 -7.257812 8.875 -7.5 C 9.21875 -7.75 9.453125 -8.160156 9.578125 -8.734375 C 9.597656 -8.804688 9.648438 -8.835938 9.734375 -8.828125 C 9.816406 -8.828125 9.851562 -8.789062 9.84375 -8.71875 C 9.78125 -8.320312 9.691406 -7.882812 9.578125 -7.40625 C 9.578125 -7.351562 9.546875 -7.164062 9.484375 -6.84375 C 9.441406 -6.59375 9.390625 -6.265625 9.328125 -5.859375 C 9.296875 -5.703125 9.265625 -5.523438 9.234375 -5.328125 C 9.210938 -5.128906 9.179688 -4.910156 9.140625 -4.671875 C 9.128906 -4.617188 9.082031 -4.59375 9 -4.59375 C 8.914062 -4.601562 8.878906 -4.640625 8.890625 -4.703125 C 8.921875 -4.890625 8.9375 -5.03125 8.9375 -5.125 C 8.9375 -5.582031 8.785156 -5.929688 8.484375 -6.171875 C 8.191406 -6.421875 7.78125 -6.546875 7.25 -6.546875 L 4.90625 -6.546875 L 4.0625 -1.796875 C 4.019531 -1.535156 4 -1.320312 4 -1.15625 C 4 -0.875 4.078125 -0.679688 4.234375 -0.578125 C 4.390625 -0.484375 4.671875 -0.4375 5.078125 -0.4375 L 5.625 -0.4375 C 6.4375 -0.4375 7.234375 -0.695312 8.015625 -1.21875 C 8.804688 -1.75 9.460938 -2.457031 9.984375 -3.34375 C 9.992188 -3.382812 10.039062 -3.394531 10.125 -3.375 C 10.207031 -3.351562 10.238281 -3.332031 10.21875 -3.3125 C 9.988281 -2.582031 9.75 -1.582031 9.5 -0.3125 C 9.46875 -0.1875 9.429688 -0.101562 9.390625 -0.0625 C 9.347656 -0.0195312 9.269531 0 9.15625 0 L 0.421875 0 C 0.378906 0 0.359375 -0.0390625 0.359375 -0.125 C 0.359375 -0.207031 0.378906 -0.25 0.421875 -0.25 C 0.816406 -0.25 1.109375 -0.285156 1.296875 -0.359375 C 1.484375 -0.429688 1.625 -0.5625 1.71875 -0.75 C 1.8125 -0.945312 1.898438 -1.265625 1.984375 -1.703125 L 3.6875 -11.453125 C 3.738281 -11.722656 3.765625 -11.960938 3.765625 -12.171875 C 3.765625 -12.460938 3.679688 -12.65625 3.515625 -12.75 C 3.359375 -12.851562 3.070312 -12.90625 2.65625 -12.90625 C 2.625 -12.90625 2.609375 -12.945312 2.609375 -13.03125 C 2.609375 -13.125 2.625 -13.171875 2.65625 -13.171875 Z M 10.9375 -13.171875 "/></g></g></g><g fill="#ca8126" fill-opacity="1"><g transform="translate(337.48621, 270.176092)"><g><path d="M 10.9375 -13.171875 C 11.039062 -13.171875 11.082031 -13.101562 11.0625 -12.96875 L 10.609375 -10.15625 C 10.609375 -10.113281 10.582031 -10.09375 10.53125 -10.09375 C 10.488281 -10.09375 10.445312 -10.101562 10.40625 -10.125 C 10.375 -10.144531 10.359375 -10.160156 10.359375 -10.171875 C 10.304688 -10.941406 10.03125 -11.554688 9.53125 -12.015625 C 9.039062 -12.484375 8.410156 -12.71875 7.640625 -12.71875 L 7.265625 -12.71875 C 6.859375 -12.71875 6.5625 -12.6875 6.375 -12.625 C 6.195312 -12.5625 6.066406 -12.445312 5.984375 -12.28125 C 5.910156 -12.113281 5.835938 -11.832031 5.765625 -11.4375 L 5.015625 -7.140625 L 7.390625 -7.140625 C 8.035156 -7.140625 8.53125 -7.257812 8.875 -7.5 C 9.21875 -7.75 9.453125 -8.160156 9.578125 -8.734375 C 9.597656 -8.804688 9.648438 -8.835938 9.734375 -8.828125 C 9.816406 -8.828125 9.851562 -8.789062 9.84375 -8.71875 C 9.78125 -8.320312 9.691406 -7.882812 9.578125 -7.40625 C 9.578125 -7.351562 9.546875 -7.164062 9.484375 -6.84375 C 9.441406 -6.59375 9.390625 -6.265625 9.328125 -5.859375 C 9.296875 -5.703125 9.265625 -5.523438 9.234375 -5.328125 C 9.210938 -5.128906 9.179688 -4.910156 9.140625 -4.671875 C 9.128906 -4.617188 9.082031 -4.59375 9 -4.59375 C 8.914062 -4.601562 8.878906 -4.640625 8.890625 -4.703125 C 8.921875 -4.890625 8.9375 -5.03125 8.9375 -5.125 C 8.9375 -5.582031 8.785156 -5.929688 8.484375 -6.171875 C 8.191406 -6.421875 7.78125 -6.546875 7.25 -6.546875 L 4.90625 -6.546875 L 4.0625 -1.796875 C 4.019531 -1.535156 4 -1.320312 4 -1.15625 C 4 -0.875 4.078125 -0.679688 4.234375 -0.578125 C 4.390625 -0.484375 4.671875 -0.4375 5.078125 -0.4375 L 5.625 -0.4375 C 6.4375 -0.4375 7.234375 -0.695312 8.015625 -1.21875 C 8.804688 -1.75 9.460938 -2.457031 9.984375 -3.34375 C 9.992188 -3.382812 10.039062 -3.394531 10.125 -3.375 C 10.207031 -3.351562 10.238281 -3.332031 10.21875 -3.3125 C 9.988281 -2.582031 9.75 -1.582031 9.5 -0.3125 C 9.46875 -0.1875 9.429688 -0.101562 9.390625 -0.0625 C 9.347656 -0.0195312 9.269531 0 9.15625 0 L 0.421875 0 C 0.378906 0 0.359375 -0.0390625 0.359375 -0.125 C 0.359375 -0.207031 0.378906 -0.25 0.421875 -0.25 C 0.816406 -0.25 1.109375 -0.285156 1.296875 -0.359375 C 1.484375 -0.429688 1.625 -0.5625 1.71875 -0.75 C 1.8125 -0.945312 1.898438 -1.265625 1.984375 -1.703125 L 3.6875 -11.453125 C 3.738281 -11.722656 3.765625 -11.960938 3.765625 -12.171875 C 3.765625 -12.460938 3.679688 -12.65625 3.515625 -12.75 C 3.359375 -12.851562 3.070312 -12.90625 2.65625 -12.90625 C 2.625 -12.90625 2.609375 -12.945312 2.609375 -13.03125 C 2.609375 -13.125 2.625 -13.171875 2.65625 -13.171875 Z M 10.9375 -13.171875 "/></g></g></g></svg>