<svg xmlns="http://www.w3.org/2000/svg" xmlns:xlink="http://www.w3.org/1999/xlink" width="500" zoomAndPan="magnify" viewBox="0 0 375 374.999991" height="500" preserveAspectRatio="xMidYMid meet" version="1.0"><defs><g/><clipPath id="e99a6d8848"><path d="M 49.304688 49.503906 L 314.054688 49.503906 L 314.054688 123.003906 L 49.304688 123.003906 Z M 49.304688 49.503906 " clip-rule="nonzero"/></clipPath><clipPath id="e3b75c4144"><path d="M 49.304688 230.164062 L 314.054688 230.164062 L 314.054688 314.054688 L 49.304688 314.054688 Z M 49.304688 230.164062 " clip-rule="nonzero"/></clipPath><clipPath id="c4a54a5624"><path d="M 64.3125 176.054688 L 94 176.054688 L 94 206 L 64.3125 206 Z M 64.3125 176.054688 " clip-rule="nonzero"/></clipPath><clipPath id="795cbf48c5"><path d="M 313.988281 173.175781 L 358.988281 173.175781 L 358.988281 218 L 313.988281 218 Z M 313.988281 173.175781 " clip-rule="nonzero"/></clipPath></defs><path fill="#ca8126" d="M 187.5 375 C 84.144531 375 0 290.855469 0 187.5 C 0 84.144531 84.144531 0 187.5 0 C 290.855469 0 375 84.144531 375 187.5 C 375 290.855469 290.855469 375 187.5 375 Z M 187.5 2.769531 C 85.621094 2.769531 2.769531 85.621094 2.769531 187.5 C 2.769531 289.378906 85.621094 372.230469 187.5 372.230469 C 289.378906 372.230469 372.230469 289.378906 372.230469 187.5 C 372.230469 85.621094 289.378906 2.769531 187.5 2.769531 Z M 187.5 2.769531 " fill-opacity="1" fill-rule="nonzero"/><g clip-path="url(#e99a6d8848)"><path fill="#ca8126" d="M 181.726562 314.347656 C 108.734375 314.347656 49.304688 254.921875 49.304688 181.925781 C 49.304688 108.933594 108.734375 49.503906 181.726562 49.503906 C 254.722656 49.503906 314.148438 108.933594 314.148438 181.925781 C 314.148438 254.921875 254.722656 314.347656 181.726562 314.347656 Z M 181.726562 51.460938 C 109.777344 51.460938 51.261719 109.976562 51.261719 181.925781 C 51.261719 253.878906 109.777344 312.390625 181.726562 312.390625 C 253.679688 312.390625 312.191406 253.878906 312.191406 181.925781 C 312.191406 109.976562 253.679688 51.460938 181.726562 51.460938 Z M 181.726562 51.460938 " fill-opacity="1" fill-rule="nonzero"/></g><g clip-path="url(#e3b75c4144)"><path fill="#ca8126" d="M 181.726562 314.148438 C 108.734375 314.148438 49.304688 254.722656 49.304688 181.726562 C 49.304688 108.734375 108.734375 49.304688 181.726562 49.304688 C 254.722656 49.304688 314.148438 108.734375 314.148438 181.726562 C 314.148438 254.722656 254.722656 314.148438 181.726562 314.148438 Z M 181.726562 51.261719 C 109.777344 51.261719 51.261719 109.777344 51.261719 181.726562 C 51.261719 253.679688 109.777344 312.191406 181.726562 312.191406 C 253.679688 312.191406 312.191406 253.679688 312.191406 181.726562 C 312.191406 109.777344 253.679688 51.261719 181.726562 51.261719 Z M 181.726562 51.261719 " fill-opacity="1" fill-rule="nonzero"/></g><path fill="#ca8126" d="M 195 158.695312 C 234.890625 89.605469 128.515625 89.605469 168.40625 158.695312 C 128.519531 89.605469 75.332031 181.726562 155.109375 181.726562 C 75.332031 181.726562 128.519531 273.847656 168.40625 204.757812 C 128.519531 273.851562 234.890625 273.851562 195 204.757812 C 234.890625 273.851562 288.078125 181.726562 208.296875 181.726562 C 288.078125 181.726562 234.890625 89.605469 195 158.695312 Z M 195 158.695312 " fill-opacity="1" fill-rule="nonzero"/><path fill="#d6af7f" d="M 201.066406 181.726562 C 201.066406 182.363281 201.035156 182.996094 200.972656 183.625 C 200.910156 184.257812 200.816406 184.882812 200.695312 185.503906 C 200.570312 186.125 200.414062 186.742188 200.230469 187.347656 C 200.046875 187.953125 199.835938 188.550781 199.589844 189.136719 C 199.347656 189.722656 199.078125 190.296875 198.78125 190.855469 C 198.480469 191.414062 198.15625 191.957031 197.800781 192.484375 C 197.449219 193.011719 197.074219 193.519531 196.671875 194.011719 C 196.269531 194.5 195.84375 194.96875 195.394531 195.417969 C 194.945312 195.867188 194.476562 196.292969 193.988281 196.695312 C 193.496094 197.097656 192.988281 197.472656 192.460938 197.824219 C 191.933594 198.179688 191.390625 198.503906 190.832031 198.804688 C 190.273438 199.101562 189.699219 199.371094 189.113281 199.613281 C 188.527344 199.859375 187.929688 200.070312 187.324219 200.253906 C 186.71875 200.4375 186.101562 200.59375 185.480469 200.71875 C 184.859375 200.839844 184.234375 200.933594 183.601562 200.996094 C 182.972656 201.058594 182.339844 201.089844 181.703125 201.089844 C 181.070312 201.089844 180.4375 201.058594 179.804688 200.996094 C 179.175781 200.933594 178.550781 200.839844 177.925781 200.71875 C 177.304688 200.59375 176.691406 200.4375 176.082031 200.253906 C 175.476562 200.070312 174.878906 199.859375 174.296875 199.613281 C 173.710938 199.371094 173.136719 199.101562 172.578125 198.804688 C 172.019531 198.503906 171.476562 198.179688 170.949219 197.824219 C 170.421875 197.472656 169.910156 197.097656 169.421875 196.695312 C 168.929688 196.292969 168.460938 195.867188 168.011719 195.417969 C 167.566406 194.96875 167.140625 194.5 166.738281 194.011719 C 166.335938 193.519531 165.957031 193.011719 165.605469 192.484375 C 165.253906 191.957031 164.929688 191.414062 164.628906 190.855469 C 164.332031 190.296875 164.058594 189.722656 163.816406 189.136719 C 163.574219 188.550781 163.359375 187.953125 163.175781 187.347656 C 162.992188 186.742188 162.839844 186.125 162.714844 185.503906 C 162.589844 184.882812 162.5 184.257812 162.4375 183.625 C 162.375 182.996094 162.34375 182.363281 162.34375 181.726562 C 162.34375 181.09375 162.375 180.460938 162.4375 179.828125 C 162.5 179.199219 162.589844 178.574219 162.714844 177.949219 C 162.839844 177.328125 162.992188 176.714844 163.175781 176.105469 C 163.359375 175.5 163.574219 174.902344 163.816406 174.316406 C 164.058594 173.734375 164.332031 173.160156 164.628906 172.601562 C 164.929688 172.042969 165.253906 171.5 165.605469 170.972656 C 165.957031 170.445312 166.335938 169.933594 166.738281 169.445312 C 167.140625 168.953125 167.566406 168.484375 168.011719 168.035156 C 168.460938 167.589844 168.929688 167.164062 169.421875 166.761719 C 169.910156 166.359375 170.421875 165.980469 170.949219 165.628906 C 171.476562 165.277344 172.019531 164.953125 172.578125 164.652344 C 173.136719 164.351562 173.710938 164.082031 174.296875 163.839844 C 174.878906 163.597656 175.476562 163.382812 176.082031 163.199219 C 176.691406 163.015625 177.304688 162.863281 177.925781 162.738281 C 178.550781 162.613281 179.175781 162.523438 179.804688 162.460938 C 180.4375 162.398438 181.070312 162.367188 181.703125 162.367188 C 182.339844 162.367188 182.972656 162.398438 183.601562 162.460938 C 184.234375 162.523438 184.859375 162.613281 185.480469 162.738281 C 186.101562 162.863281 186.71875 163.015625 187.324219 163.199219 C 187.929688 163.382812 188.527344 163.597656 189.113281 163.839844 C 189.699219 164.082031 190.273438 164.351562 190.832031 164.652344 C 191.390625 164.953125 191.933594 165.277344 192.460938 165.628906 C 192.988281 165.980469 193.496094 166.359375 193.988281 166.761719 C 194.476562 167.164062 194.945312 167.589844 195.394531 168.035156 C 195.84375 168.484375 196.269531 168.953125 196.671875 169.445312 C 197.074219 169.933594 197.449219 170.445312 197.800781 170.972656 C 198.15625 171.5 198.480469 172.042969 198.78125 172.601562 C 199.078125 173.160156 199.347656 173.734375 199.589844 174.316406 C 199.835938 174.902344 200.046875 175.5 200.230469 176.105469 C 200.414062 176.714844 200.570312 177.328125 200.695312 177.949219 C 200.816406 178.574219 200.910156 179.199219 200.972656 179.828125 C 201.035156 180.460938 201.066406 181.09375 201.066406 181.726562 Z M 201.066406 181.726562 " fill-opacity="1" fill-rule="nonzero"/><g clip-path="url(#c4a54a5624)"><path fill="#ca8126" d="M 79.144531 176.054688 C 77.699219 188.269531 76.527344 189.441406 64.3125 190.886719 C 64.339844 190.890625 64.363281 190.890625 64.390625 190.894531 C 76.53125 192.335938 77.703125 193.527344 79.144531 205.714844 C 80.589844 193.503906 81.761719 192.332031 93.972656 190.886719 C 81.761719 189.441406 80.589844 188.269531 79.144531 176.054688 Z M 79.144531 176.054688 " fill-opacity="1" fill-rule="nonzero"/></g><g clip-path="url(#795cbf48c5)"><path fill="#ca8126" d="M 336.335938 173.175781 C 334.15625 191.582031 332.390625 193.347656 313.988281 195.523438 C 314.027344 195.53125 314.0625 195.535156 314.101562 195.539062 C 332.398438 197.710938 334.160156 199.507812 336.335938 217.871094 C 338.511719 199.46875 340.277344 197.703125 358.683594 195.523438 C 340.277344 193.347656 338.511719 191.582031 336.335938 173.175781 Z M 336.335938 173.175781 " fill-opacity="1" fill-rule="nonzero"/></g><g fill="#ffffff" fill-opacity="1"><g transform="translate(36.407245, 146.201216)"><g><path d="M 0.609375 -1.765625 L -14.390625 -6.9375 L -12.9375 -11.171875 C -12.539062 -12.316406 -12.035156 -13.296875 -11.421875 -14.109375 C -10.816406 -14.929688 -10.097656 -15.566406 -9.265625 -16.015625 C -8.429688 -16.472656 -7.484375 -16.71875 -6.421875 -16.75 C -5.367188 -16.78125 -4.195312 -16.578125 -2.90625 -16.140625 C -1.613281 -15.691406 -0.554688 -15.125 0.265625 -14.4375 C 1.097656 -13.757812 1.710938 -12.988281 2.109375 -12.125 C 2.503906 -11.269531 2.703125 -10.34375 2.703125 -9.34375 C 2.703125 -8.34375 2.507812 -7.289062 2.125 -6.1875 Z M -0.953125 -6.09375 L -0.734375 -6.734375 C -0.515625 -7.378906 -0.398438 -7.992188 -0.390625 -8.578125 C -0.378906 -9.160156 -0.5 -9.695312 -0.75 -10.1875 C -1 -10.675781 -1.394531 -11.128906 -1.9375 -11.546875 C -2.476562 -11.972656 -3.203125 -12.34375 -4.109375 -12.65625 C -5.003906 -12.957031 -5.785156 -13.109375 -6.453125 -13.109375 C -7.128906 -13.109375 -7.707031 -12.988281 -8.1875 -12.75 C -8.675781 -12.507812 -9.085938 -12.15625 -9.421875 -11.6875 C -9.765625 -11.21875 -10.046875 -10.660156 -10.265625 -10.015625 L -10.484375 -9.375 Z M -0.953125 -6.09375 "/></g></g></g><g fill="#ffffff" fill-opacity="1"><g transform="translate(47.308212, 118.709456)"><g><path d="M 4.34375 -6.859375 C 3.300781 -5.078125 1.976562 -4.023438 0.375 -3.703125 C -1.21875 -3.378906 -3.160156 -3.890625 -5.453125 -5.234375 L -12.8125 -9.515625 L -11 -12.625 L -3.328125 -8.15625 C -1.984375 -7.375 -0.925781 -7.03125 -0.15625 -7.125 C 0.613281 -7.21875 1.222656 -7.648438 1.671875 -8.421875 C 2.117188 -9.191406 2.195312 -9.941406 1.90625 -10.671875 C 1.625 -11.410156 0.8125 -12.171875 -0.53125 -12.953125 L -8.203125 -17.421875 L -6.46875 -20.40625 L 0.890625 -16.125 C 3.179688 -14.78125 4.585938 -13.34375 5.109375 -11.8125 C 5.628906 -10.28125 5.375 -8.628906 4.34375 -6.859375 Z M 4.34375 -6.859375 "/></g></g></g><g fill="#ffffff" fill-opacity="1"><g transform="translate(63.826168, 93.274385)"><g><path d="M 5.8125 -6.171875 C 5.15625 -5.421875 4.398438 -4.828125 3.546875 -4.390625 C 2.703125 -3.953125 1.796875 -3.703125 0.828125 -3.640625 C -0.128906 -3.585938 -1.113281 -3.75 -2.125 -4.125 C -3.144531 -4.507812 -4.15625 -5.132812 -5.15625 -6 C -6.132812 -6.863281 -6.878906 -7.785156 -7.390625 -8.765625 C -7.898438 -9.753906 -8.195312 -10.738281 -8.28125 -11.71875 C -8.363281 -12.695312 -8.242188 -13.65625 -7.921875 -14.59375 C -7.609375 -15.53125 -7.125 -16.375 -6.46875 -17.125 C -5.789062 -17.894531 -5.023438 -18.445312 -4.171875 -18.78125 C -3.328125 -19.113281 -2.53125 -19.304688 -1.78125 -19.359375 L -1.296875 -16.421875 C -1.847656 -16.359375 -2.359375 -16.234375 -2.828125 -16.046875 C -3.296875 -15.867188 -3.710938 -15.566406 -4.078125 -15.140625 C -4.441406 -14.734375 -4.691406 -14.273438 -4.828125 -13.765625 C -4.972656 -13.253906 -4.992188 -12.722656 -4.890625 -12.171875 C -4.796875 -11.617188 -4.578125 -11.054688 -4.234375 -10.484375 C -3.890625 -9.921875 -3.421875 -9.378906 -2.828125 -8.859375 C -1.597656 -7.773438 -0.414062 -7.195312 0.71875 -7.125 C 1.863281 -7.0625 2.820312 -7.46875 3.59375 -8.34375 C 4.019531 -8.820312 4.289062 -9.347656 4.40625 -9.921875 C 4.53125 -10.492188 4.566406 -11.066406 4.515625 -11.640625 L 7.453125 -11.59375 C 7.742188 -9.550781 7.195312 -7.742188 5.8125 -6.171875 Z M 5.8125 -6.171875 "/></g></g></g><g fill="#ffffff" fill-opacity="1"><g transform="translate(83.763135, 72.807969)"><g/></g></g><g fill="#ffffff" fill-opacity="1"><g transform="translate(99.139068, 61.069886)"><g><path d="M 1.609375 -0.96875 L -6.5625 -14.5625 L -3.5 -16.40625 L 3.109375 -5.390625 L 8.484375 -8.625 L 10.046875 -6.046875 Z M 1.609375 -0.96875 "/></g></g></g><g fill="#ffffff" fill-opacity="1"><g transform="translate(122.753137, 48.287852)"><g><path d="M 2.390625 -9.5 L 2.53125 -7.984375 L 5.703125 -9.171875 L 4.84375 -10.421875 C 4.34375 -11.078125 3.835938 -11.785156 3.328125 -12.546875 C 2.828125 -13.304688 2.332031 -14.039062 1.84375 -14.75 L 1.765625 -14.71875 C 1.867188 -13.851562 1.976562 -12.96875 2.09375 -12.0625 C 2.21875 -11.164062 2.316406 -10.3125 2.390625 -9.5 Z M -0.125 0.046875 L -1.109375 -16.53125 L 2.921875 -18.0625 L 13.1875 -4.984375 L 9.625 -3.640625 L 7.375 -6.8125 L 2.859375 -5.09375 L 3.28125 -1.234375 Z M -0.125 0.046875 "/></g></g></g><g fill="#ffffff" fill-opacity="1"><g transform="translate(149.460769, 39.526676)"><g><path d="M 1.84375 -0.3125 L -0.84375 -15.9375 L 2.78125 -16.5625 L 8.203125 -9.515625 L 10.328125 -6.3125 L 10.4375 -6.328125 C 10.207031 -7.140625 9.953125 -8.050781 9.671875 -9.0625 C 9.390625 -10.070312 9.171875 -11.039062 9.015625 -11.96875 L 8.0625 -17.46875 L 11.421875 -18.046875 L 14.109375 -2.421875 L 10.46875 -1.796875 L 5.0625 -8.890625 L 2.9375 -12.03125 L 2.859375 -12.015625 C 3.078125 -11.171875 3.320312 -10.257812 3.59375 -9.28125 C 3.875 -8.3125 4.09375 -7.363281 4.25 -6.4375 L 5.203125 -0.890625 Z M 1.84375 -0.3125 "/></g></g></g><g fill="#ffffff" fill-opacity="1"><g transform="translate(179.789381, 35.978462)"><g/></g></g><g fill="#ffffff" fill-opacity="1"><g transform="translate(198.978032, 36.448473)"><g><path d="M 3.234375 0.546875 L 2.984375 -15.578125 L 6.59375 -14.96875 L 6.4375 -7.453125 C 6.394531 -6.640625 6.359375 -5.8125 6.328125 -4.96875 C 6.304688 -4.125 6.273438 -3.28125 6.234375 -2.4375 L 6.34375 -2.421875 C 6.632812 -3.222656 6.925781 -4.019531 7.21875 -4.8125 C 7.507812 -5.613281 7.800781 -6.40625 8.09375 -7.1875 L 11 -14.21875 L 14.015625 -13.71875 L 14.453125 -6.109375 C 14.484375 -5.285156 14.5 -4.445312 14.5 -3.59375 C 14.507812 -2.75 14.53125 -1.890625 14.5625 -1.015625 L 14.65625 -1 C 14.90625 -1.832031 15.148438 -2.644531 15.390625 -3.4375 C 15.640625 -4.238281 15.890625 -5.03125 16.140625 -5.8125 L 18.453125 -12.96875 L 21.84375 -12.390625 L 16.40625 2.78125 L 11.96875 2.03125 L 11.625 -5.34375 C 11.613281 -5.96875 11.609375 -6.59375 11.609375 -7.21875 C 11.609375 -7.851562 11.613281 -8.46875 11.625 -9.0625 L 11.53125 -9.078125 C 11.332031 -8.515625 11.128906 -7.9375 10.921875 -7.34375 C 10.722656 -6.75 10.507812 -6.160156 10.28125 -5.578125 L 7.609375 1.28125 Z M 3.234375 0.546875 "/></g></g></g><g fill="#ffffff" fill-opacity="1"><g transform="translate(232.01838, 43.803495)"><g><path d="M 1.75 0.671875 L 7.46875 -14.125 L 16.71875 -10.546875 L 15.625 -7.734375 L 9.71875 -10.015625 L 8.578125 -7.046875 L 13.59375 -5.109375 L 12.515625 -2.3125 L 7.5 -4.25 L 6.1875 -0.84375 L 12.328125 1.53125 L 11.234375 4.34375 Z M 1.75 0.671875 "/></g></g></g><g fill="#ffffff" fill-opacity="1"><g transform="translate(257.238084, 54.882115)"><g><path d="M 1.59375 0.984375 L 9.9375 -12.5 L 14.546875 -9.65625 C 15.253906 -9.207031 15.875 -8.75 16.40625 -8.28125 C 16.9375 -7.8125 17.34375 -7.304688 17.625 -6.765625 C 17.914062 -6.234375 18.054688 -5.671875 18.046875 -5.078125 C 18.035156 -4.492188 17.832031 -3.878906 17.4375 -3.234375 C 17.25 -2.929688 17.019531 -2.648438 16.75 -2.390625 C 16.476562 -2.140625 16.1875 -1.929688 15.875 -1.765625 C 15.5625 -1.597656 15.234375 -1.472656 14.890625 -1.390625 C 14.554688 -1.316406 14.210938 -1.320312 13.859375 -1.40625 L 13.8125 -1.328125 C 14.113281 -1.023438 14.359375 -0.695312 14.546875 -0.34375 C 14.734375 0 14.851562 0.367188 14.90625 0.765625 C 14.96875 1.171875 14.953125 1.585938 14.859375 2.015625 C 14.765625 2.441406 14.578125 2.882812 14.296875 3.34375 C 13.867188 4.03125 13.363281 4.535156 12.78125 4.859375 C 12.207031 5.191406 11.582031 5.375 10.90625 5.40625 C 10.226562 5.4375 9.523438 5.332031 8.796875 5.09375 C 8.066406 4.863281 7.335938 4.523438 6.609375 4.078125 Z M 9.640625 -5.234375 L 11.0625 -4.34375 C 11.800781 -3.882812 12.429688 -3.691406 12.953125 -3.765625 C 13.472656 -3.847656 13.882812 -4.132812 14.1875 -4.625 C 14.507812 -5.144531 14.566406 -5.625 14.359375 -6.0625 C 14.160156 -6.5 13.703125 -6.9375 12.984375 -7.375 L 11.53125 -8.28125 Z M 6.09375 0.5 L 7.8125 1.5625 C 9.476562 2.59375 10.691406 2.5 11.453125 1.28125 C 11.804688 0.695312 11.851562 0.148438 11.59375 -0.359375 C 11.34375 -0.867188 10.800781 -1.382812 9.96875 -1.90625 L 8.25 -2.96875 Z M 6.09375 0.5 "/></g></g></g><g fill="#ffffff" fill-opacity="1"><g transform="translate(281.090076, 71.238321)"><g><path d="M 4.765625 4.75 C 3.992188 4.039062 3.351562 3.195312 2.84375 2.21875 C 2.34375 1.25 2.050781 0.203125 1.96875 -0.921875 L 5.140625 -1.34375 C 5.222656 -0.59375 5.414062 0.125 5.71875 0.8125 C 6.03125 1.507812 6.429688 2.082031 6.921875 2.53125 C 7.472656 3.03125 7.972656 3.300781 8.421875 3.34375 C 8.878906 3.382812 9.269531 3.226562 9.59375 2.875 C 9.757812 2.695312 9.863281 2.503906 9.90625 2.296875 C 9.945312 2.085938 9.9375 1.863281 9.875 1.625 C 9.8125 1.394531 9.71875 1.140625 9.59375 0.859375 C 9.46875 0.578125 9.332031 0.265625 9.1875 -0.078125 L 8.25 -2.109375 C 8.050781 -2.492188 7.894531 -2.910156 7.78125 -3.359375 C 7.675781 -3.804688 7.628906 -4.257812 7.640625 -4.71875 C 7.648438 -5.1875 7.742188 -5.648438 7.921875 -6.109375 C 8.109375 -6.578125 8.398438 -7.023438 8.796875 -7.453125 C 9.234375 -7.929688 9.75 -8.289062 10.34375 -8.53125 C 10.9375 -8.769531 11.5625 -8.878906 12.21875 -8.859375 C 12.875 -8.835938 13.539062 -8.679688 14.21875 -8.390625 C 14.90625 -8.109375 15.550781 -7.691406 16.15625 -7.140625 C 16.84375 -6.515625 17.394531 -5.765625 17.8125 -4.890625 C 18.238281 -4.015625 18.472656 -3.101562 18.515625 -2.15625 L 15.640625 -1.703125 C 15.535156 -2.347656 15.363281 -2.925781 15.125 -3.4375 C 14.882812 -3.957031 14.53125 -4.429688 14.0625 -4.859375 C 13.601562 -5.273438 13.15625 -5.507812 12.71875 -5.5625 C 12.289062 -5.625 11.921875 -5.488281 11.609375 -5.15625 C 11.453125 -4.976562 11.359375 -4.78125 11.328125 -4.5625 C 11.296875 -4.351562 11.316406 -4.125 11.390625 -3.875 C 11.460938 -3.632812 11.5625 -3.367188 11.6875 -3.078125 C 11.820312 -2.796875 11.960938 -2.484375 12.109375 -2.140625 L 13.078125 -0.15625 C 13.535156 0.78125 13.738281 1.691406 13.6875 2.578125 C 13.644531 3.460938 13.25 4.316406 12.5 5.140625 C 12.050781 5.640625 11.523438 6.015625 10.921875 6.265625 C 10.316406 6.523438 9.675781 6.644531 9 6.625 C 8.332031 6.613281 7.628906 6.453125 6.890625 6.140625 C 6.160156 5.835938 5.453125 5.375 4.765625 4.75 Z M 4.765625 4.75 "/></g></g></g><g fill="#ffffff" fill-opacity="1"><g transform="translate(300.72532, 91.055201)"><g><path d="M 1.15625 1.46875 L 13.59375 -8.375 L 15.8125 -5.5625 L 3.375 4.28125 Z M 1.15625 1.46875 "/></g></g></g><g fill="#ffffff" fill-opacity="1"><g transform="translate(313.4621, 108.649002)"><g><path d="M 2.40625 4.34375 L 13.640625 -1.890625 L 11.53125 -5.703125 L 14.171875 -7.15625 L 20.140625 3.609375 L 17.5 5.0625 L 15.390625 1.25 L 4.15625 7.484375 Z M 2.40625 4.34375 "/></g></g></g><g fill="#ffffff" fill-opacity="1"><g transform="translate(325.778339, 133.532093)"><g><path d="M 0.59375 1.78125 L 15.625 -3.28125 L 18.796875 6.109375 L 15.9375 7.0625 L 13.90625 1.0625 L 10.890625 2.09375 L 12.625 7.203125 L 9.796875 8.15625 L 8.0625 3.046875 L 4.59375 4.203125 L 6.703125 10.453125 L 3.84375 11.421875 Z M 0.59375 1.78125 "/></g></g></g><g fill="#ffffff" fill-opacity="1"><g transform="translate(36.750984, 254.751137)"><g><path d="M 2.09375 4.375 L 13.421875 -1.0625 L 11.578125 -4.90625 L 14.234375 -6.171875 L 19.453125 4.703125 L 16.796875 5.96875 L 14.953125 2.109375 L 3.625 7.546875 Z M 2.09375 4.375 "/></g></g></g><g fill="#ffffff" fill-opacity="1"><g transform="translate(48.82602, 277.758705)"><g><path d="M 1.046875 1.5 L 13.734375 -7.4375 L 15.75 -4.578125 L 10.875 -1.140625 L 13.96875 3.234375 L 18.84375 -0.203125 L 20.859375 2.671875 L 8.171875 11.609375 L 6.15625 8.734375 L 11.4375 5.015625 L 8.34375 0.640625 L 3.0625 4.359375 Z M 1.046875 1.5 "/></g></g></g><g fill="#ffffff" fill-opacity="1"><g transform="translate(66.317067, 300.418806)"><g><path d="M 1.265625 1.328125 L 12.5 -9.375 L 14.90625 -6.84375 L 3.671875 3.859375 Z M 1.265625 1.328125 "/></g></g></g><g fill="#ffffff" fill-opacity="1"><g transform="translate(80.373561, 314.222027)"><g><path d="M 1.4375 1.140625 L 11.09375 -11 L 18.6875 -4.953125 L 16.859375 -2.640625 L 12 -6.515625 L 10.0625 -4.078125 L 14.1875 -0.78125 L 12.359375 1.515625 L 8.234375 -1.78125 L 6.015625 1 L 11.0625 5.03125 L 9.21875 7.34375 Z M 1.4375 1.140625 "/></g></g></g><g fill="#ffffff" fill-opacity="1"><g transform="translate(101.093562, 329.450031)"><g><path d="M 4.234375 2.390625 L 10.421875 -8.546875 L 6.703125 -10.640625 L 8.15625 -13.203125 L 18.640625 -7.265625 L 17.1875 -4.703125 L 13.46875 -6.8125 L 7.28125 4.125 Z M 4.234375 2.390625 "/></g></g></g><g fill="#ffffff" fill-opacity="1"><g transform="translate(123.973073, 341.153092)"><g/></g></g><g fill="#ffffff" fill-opacity="1"><g transform="translate(140.180182, 347.157535)"><g><path d="M 1.765625 0.453125 L 5.59375 -14.578125 L 8.984375 -13.71875 L 7.421875 -7.5625 L 7.515625 -7.53125 L 13.5625 -12.546875 L 17.28125 -11.609375 L 11.21875 -6.78125 L 14.296875 3.640625 L 10.578125 2.703125 L 8.53125 -4.578125 L 6.1875 -2.734375 L 5.15625 1.3125 Z M 1.765625 0.453125 "/></g></g></g><g fill="#ffffff" fill-opacity="1"><g transform="translate(166.896465, 352.841057)"><g><path d="M 1.828125 0.15625 L 3.1875 -15.296875 L 12.859375 -14.4375 L 12.609375 -11.5 L 6.421875 -12.046875 L 6.140625 -8.953125 L 11.390625 -8.484375 L 11.140625 -5.546875 L 5.890625 -6.015625 L 5.578125 -2.46875 L 12 -1.90625 L 11.734375 1.03125 Z M 1.828125 0.15625 "/></g></g></g><g fill="#ffffff" fill-opacity="1"><g transform="translate(192.373795, 354.006709)"><g/></g></g><g fill="#ffffff" fill-opacity="1"><g transform="translate(209.745837, 352.87433)"><g><path d="M 3.15625 -0.609375 L -2.640625 -15.296875 L 0.875 -15.984375 L 3.328125 -9.046875 C 3.578125 -8.285156 3.832031 -7.515625 4.09375 -6.734375 C 4.363281 -5.953125 4.617188 -5.164062 4.859375 -4.375 L 4.96875 -4.390625 C 4.96875 -5.234375 4.960938 -6.066406 4.953125 -6.890625 C 4.941406 -7.722656 4.9375 -8.546875 4.9375 -9.359375 L 5.1875 -16.828125 L 8.109375 -17.390625 L 11.140625 -10.5625 C 11.441406 -9.820312 11.742188 -9.066406 12.046875 -8.296875 C 12.359375 -7.523438 12.671875 -6.742188 12.984375 -5.953125 L 13.078125 -5.96875 C 13.023438 -6.8125 12.96875 -7.640625 12.90625 -8.453125 C 12.851562 -9.265625 12.804688 -10.078125 12.765625 -10.890625 L 12.4375 -18.234375 L 15.71875 -18.875 L 15.984375 -3.109375 L 11.65625 -2.265625 L 8.828125 -8.90625 C 8.578125 -9.46875 8.34375 -10.035156 8.125 -10.609375 C 7.90625 -11.179688 7.707031 -11.742188 7.53125 -12.296875 L 7.4375 -12.28125 C 7.445312 -11.695312 7.457031 -11.097656 7.46875 -10.484375 C 7.488281 -9.867188 7.492188 -9.253906 7.484375 -8.640625 L 7.40625 -1.4375 Z M 3.15625 -0.609375 "/></g></g></g><g fill="#ffffff" fill-opacity="1"><g transform="translate(241.046124, 345.373601)"><g><path d="M 1.703125 -0.671875 L -3.953125 -15.125 L 1 -17.0625 C 1.75 -17.351562 2.46875 -17.566406 3.15625 -17.703125 C 3.84375 -17.835938 4.476562 -17.859375 5.0625 -17.765625 C 5.65625 -17.671875 6.175781 -17.453125 6.625 -17.109375 C 7.070312 -16.765625 7.429688 -16.242188 7.703125 -15.546875 C 7.828125 -15.222656 7.910156 -14.878906 7.953125 -14.515625 C 8.003906 -14.160156 8.003906 -13.8125 7.953125 -13.46875 C 7.898438 -13.125 7.800781 -12.789062 7.65625 -12.46875 C 7.507812 -12.15625 7.304688 -11.894531 7.046875 -11.6875 L 7.09375 -11.59375 C 7.5 -11.644531 7.890625 -11.640625 8.265625 -11.578125 C 8.648438 -11.515625 9.015625 -11.390625 9.359375 -11.203125 C 9.710938 -11.015625 10.023438 -10.753906 10.296875 -10.421875 C 10.578125 -10.097656 10.816406 -9.691406 11.015625 -9.203125 C 11.296875 -8.460938 11.394531 -7.773438 11.3125 -7.140625 C 11.238281 -6.503906 11.015625 -5.910156 10.640625 -5.359375 C 10.265625 -4.816406 9.769531 -4.328125 9.15625 -3.890625 C 8.550781 -3.453125 7.859375 -3.078125 7.078125 -2.765625 Z M 1.578125 -10.59375 L 3.09375 -11.203125 C 3.894531 -11.503906 4.414062 -11.882812 4.65625 -12.34375 C 4.90625 -12.800781 4.925781 -13.289062 4.71875 -13.8125 C 4.5 -14.375 4.160156 -14.695312 3.703125 -14.78125 C 3.242188 -14.875 2.628906 -14.769531 1.859375 -14.46875 L 0.3125 -13.859375 Z M 3.984375 -4.46875 L 5.828125 -5.203125 C 7.609375 -5.898438 8.242188 -6.898438 7.734375 -8.203125 C 7.484375 -8.828125 7.082031 -9.1875 6.53125 -9.28125 C 5.976562 -9.382812 5.257812 -9.265625 4.375 -8.921875 L 2.53125 -8.1875 Z M 3.984375 -4.46875 "/></g></g></g><g fill="#ffffff" fill-opacity="1"><g transform="translate(265.867198, 334.507967)"><g><path d="M 1.578125 -0.9375 L -6.3125 -14.296875 L 2.046875 -19.234375 L 3.546875 -16.6875 L -1.796875 -13.515625 L -0.21875 -10.84375 L 4.328125 -13.53125 L 5.828125 -11 L 1.28125 -8.3125 L 3.09375 -5.25 L 8.640625 -8.546875 L 10.140625 -6 Z M 1.578125 -0.9375 "/></g></g></g><g fill="#ffffff" fill-opacity="1"><g transform="translate(287.486894, 320.586727)"><g><path d="M 5.234375 -3.96875 C 4.453125 -3.320312 3.550781 -2.816406 2.53125 -2.453125 C 1.519531 -2.097656 0.472656 -1.957031 -0.609375 -2.03125 L -0.59375 -5.15625 C 0.144531 -5.15625 0.867188 -5.25 1.578125 -5.4375 C 2.296875 -5.632812 2.898438 -5.9375 3.390625 -6.34375 C 3.953125 -6.8125 4.28125 -7.265625 4.375 -7.703125 C 4.476562 -8.140625 4.382812 -8.535156 4.09375 -8.890625 C 3.945312 -9.078125 3.78125 -9.203125 3.59375 -9.265625 C 3.40625 -9.328125 3.191406 -9.347656 2.953125 -9.328125 C 2.710938 -9.304688 2.445312 -9.253906 2.15625 -9.171875 C 1.863281 -9.085938 1.546875 -9 1.203125 -8.90625 L -0.921875 -8.265625 C -1.316406 -8.140625 -1.738281 -8.054688 -2.1875 -8.015625 C -2.632812 -7.972656 -3.082031 -7.984375 -3.53125 -8.046875 C -3.976562 -8.117188 -4.410156 -8.273438 -4.828125 -8.515625 C -5.242188 -8.753906 -5.632812 -9.097656 -6 -9.546875 C -6.40625 -10.035156 -6.679688 -10.582031 -6.828125 -11.1875 C -6.984375 -11.789062 -7.003906 -12.410156 -6.890625 -13.046875 C -6.785156 -13.691406 -6.546875 -14.316406 -6.171875 -14.921875 C -5.804688 -15.535156 -5.3125 -16.097656 -4.6875 -16.609375 C -3.988281 -17.191406 -3.1875 -17.628906 -2.28125 -17.921875 C -1.382812 -18.210938 -0.472656 -18.3125 0.453125 -18.21875 L 0.5 -15.390625 C -0.144531 -15.367188 -0.726562 -15.273438 -1.25 -15.109375 C -1.78125 -14.953125 -2.285156 -14.675781 -2.765625 -14.28125 C -3.234375 -13.894531 -3.523438 -13.492188 -3.640625 -13.078125 C -3.753906 -12.671875 -3.671875 -12.296875 -3.390625 -11.953125 C -3.234375 -11.765625 -3.054688 -11.644531 -2.859375 -11.59375 C -2.671875 -11.550781 -2.445312 -11.546875 -2.1875 -11.578125 C -1.9375 -11.609375 -1.664062 -11.664062 -1.375 -11.75 C -1.082031 -11.84375 -0.757812 -11.941406 -0.40625 -12.046875 L 1.65625 -12.703125 C 2.625 -13.003906 3.53125 -13.070312 4.375 -12.90625 C 5.226562 -12.738281 6.003906 -12.234375 6.703125 -11.390625 C 7.109375 -10.890625 7.394531 -10.332031 7.5625 -9.71875 C 7.726562 -9.113281 7.757812 -8.484375 7.65625 -7.828125 C 7.550781 -7.171875 7.296875 -6.507812 6.890625 -5.84375 C 6.492188 -5.175781 5.941406 -4.550781 5.234375 -3.96875 Z M 5.234375 -3.96875 "/></g></g></g><g fill="#ffffff" fill-opacity="1"><g transform="translate(306.635748, 303.359405)"><g><path d="M 1.234375 -1.34375 L -10.203125 -11.828125 L -7.84375 -14.40625 L 3.59375 -3.921875 Z M 1.234375 -1.34375 "/></g></g></g><g fill="#ffffff" fill-opacity="1"><g transform="translate(319.457967, 288.397104)"><g><path d="M 2.75 -4 L -7.59375 -11.125 L -10 -7.609375 L -12.4375 -9.28125 L -5.609375 -19.203125 L -3.171875 -17.53125 L -5.59375 -14.015625 L 4.75 -6.890625 Z M 2.75 -4 "/></g></g></g><g fill="#ffffff" fill-opacity="1"><g transform="translate(333.320476, 266.51385)"><g><path d="M 0.796875 -1.65625 L -13.203125 -8.359375 L -9.015625 -17.125 L -6.34375 -15.84375 L -9.03125 -10.234375 L -6.234375 -8.890625 L -3.953125 -13.640625 L -1.296875 -12.375 L -3.578125 -7.625 L -0.359375 -6.09375 L 2.4375 -11.90625 L 5.09375 -10.625 Z M 0.796875 -1.65625 "/></g></g></g></svg>