<svg xmlns="http://www.w3.org/2000/svg" xmlns:xlink="http://www.w3.org/1999/xlink" width="500" zoomAndPan="magnify" viewBox="0 0 375 374.999991" height="500" preserveAspectRatio="xMidYMid meet" version="1.0"><defs><g/><clipPath id="e46fee537a"><path d="M 85.582031 10.25 L 289.582031 10.25 L 289.582031 139.25 L 85.582031 139.25 Z M 85.582031 10.25 " clip-rule="nonzero"/></clipPath><clipPath id="8d741ecebc"><path d="M 0 137.183594 L 375 137.183594 L 375 255.683594 L 0 255.683594 Z M 0 137.183594 " clip-rule="nonzero"/></clipPath><clipPath id="f25def633f"><path d="M 24 264.523438 L 358 264.523438 L 358 366.523438 L 24 366.523438 Z M 24 264.523438 " clip-rule="nonzero"/></clipPath><clipPath id="de10fb4ced"><path d="M 173.105469 240.894531 L 201.605469 240.894531 L 201.605469 269.394531 L 173.105469 269.394531 Z M 173.105469 240.894531 " clip-rule="nonzero"/></clipPath></defs><g clip-path="url(#e46fee537a)"><path fill="#ca8126" d="M 246.058594 126.476562 L 245.773438 126.417969 L 245.773438 90.652344 C 252.671875 88.585938 257.609375 81.769531 257.609375 70.027344 C 257.609375 55.675781 250.261719 39.257812 241.117188 39.257812 C 231.96875 39.257812 224.527344 55.675781 224.527344 70.027344 C 224.527344 81.773438 229.546875 88.589844 236.363281 90.652344 L 236.363281 124.757812 C 221.867188 122.484375 207.28125 121.230469 192.609375 121 L 192.609375 67.015625 L 195.203125 67.015625 C 195.882812 67.015625 196.550781 66.949219 197.214844 66.816406 C 197.878906 66.683594 198.527344 66.488281 199.152344 66.230469 C 199.777344 65.96875 200.371094 65.652344 200.933594 65.277344 C 201.496094 64.898438 202.019531 64.472656 202.496094 63.992188 C 202.976562 63.515625 203.402344 62.992188 203.78125 62.429688 C 204.15625 61.867188 204.472656 61.273438 204.734375 60.648438 C 204.992188 60.023438 205.1875 59.375 205.320312 58.710938 C 205.453125 58.046875 205.519531 57.378906 205.519531 56.699219 L 205.519531 12.925781 C 205.507812 12.589844 205.433594 12.265625 205.296875 11.957031 C 205.160156 11.648438 204.972656 11.375 204.730469 11.140625 C 204.488281 10.90625 204.207031 10.726562 203.894531 10.601562 C 203.582031 10.476562 203.257812 10.414062 202.921875 10.414062 C 202.585938 10.414062 202.265625 10.476562 201.957031 10.605469 C 201.652344 10.734375 201.378906 10.914062 201.144531 11.148438 C 200.910156 11.386719 200.726562 11.65625 200.601562 11.964844 C 200.472656 12.273438 200.410156 12.59375 200.414062 12.925781 L 200.414062 46.472656 C 200.394531 46.804688 200.316406 47.121094 200.175781 47.425781 C 200.035156 47.726562 199.84375 47.992188 199.601562 48.222656 C 199.359375 48.453125 199.085938 48.628906 198.773438 48.75 C 198.464844 48.875 198.144531 48.9375 197.808594 48.9375 C 197.476562 48.9375 197.15625 48.875 196.847656 48.75 C 196.535156 48.628906 196.261719 48.453125 196.019531 48.222656 C 195.777344 47.992188 195.585938 47.726562 195.445312 47.425781 C 195.304688 47.121094 195.226562 46.804688 195.207031 46.472656 L 195.207031 12.925781 C 195.203125 12.589844 195.132812 12.269531 195 11.964844 C 194.867188 11.65625 194.679688 11.386719 194.441406 11.152344 C 194.203125 10.917969 193.929688 10.738281 193.621094 10.613281 C 193.308594 10.484375 192.988281 10.421875 192.652344 10.421875 C 192.320312 10.421875 191.996094 10.484375 191.6875 10.613281 C 191.378906 10.738281 191.105469 10.917969 190.867188 11.152344 C 190.625 11.386719 190.441406 11.65625 190.308594 11.964844 C 190.175781 12.269531 190.105469 12.589844 190.097656 12.925781 L 190.097656 46.472656 C 190.078125 46.804688 189.996094 47.117188 189.855469 47.417969 C 189.714844 47.71875 189.523438 47.984375 189.28125 48.210938 C 189.042969 48.4375 188.765625 48.613281 188.457031 48.734375 C 188.148438 48.855469 187.828125 48.917969 187.5 48.917969 C 187.167969 48.917969 186.847656 48.855469 186.539062 48.734375 C 186.230469 48.613281 185.953125 48.4375 185.714844 48.210938 C 185.472656 47.984375 185.28125 47.71875 185.140625 47.417969 C 185 47.117188 184.917969 46.804688 184.898438 46.472656 L 184.898438 12.925781 C 184.898438 12.585938 184.832031 12.261719 184.703125 11.949219 C 184.574219 11.636719 184.390625 11.359375 184.148438 11.121094 C 183.910156 10.882812 183.636719 10.699219 183.324219 10.570312 C 183.011719 10.4375 182.683594 10.375 182.347656 10.375 C 182.007812 10.375 181.683594 10.4375 181.371094 10.570312 C 181.058594 10.699219 180.78125 10.882812 180.542969 11.121094 C 180.304688 11.359375 180.117188 11.636719 179.988281 11.949219 C 179.859375 12.261719 179.796875 12.585938 179.796875 12.925781 L 179.796875 46.472656 C 179.773438 46.800781 179.691406 47.117188 179.550781 47.414062 C 179.410156 47.714844 179.21875 47.976562 178.976562 48.203125 C 178.734375 48.429688 178.460938 48.605469 178.152344 48.726562 C 177.84375 48.847656 177.527344 48.910156 177.195312 48.910156 C 176.863281 48.910156 176.542969 48.847656 176.238281 48.726562 C 175.929688 48.605469 175.65625 48.429688 175.414062 48.203125 C 175.171875 47.976562 174.980469 47.714844 174.839844 47.417969 C 174.699219 47.117188 174.617188 46.800781 174.59375 46.472656 L 174.59375 12.925781 C 174.59375 12.59375 174.53125 12.273438 174.402344 11.964844 C 174.277344 11.65625 174.09375 11.382812 173.859375 11.148438 C 173.625 10.914062 173.351562 10.730469 173.042969 10.605469 C 172.734375 10.476562 172.414062 10.414062 172.082031 10.414062 C 171.742188 10.414062 171.417969 10.476562 171.105469 10.601562 C 170.792969 10.726562 170.515625 10.90625 170.269531 11.140625 C 170.027344 11.375 169.839844 11.648438 169.703125 11.957031 C 169.566406 12.265625 169.492188 12.589844 169.484375 12.925781 L 169.484375 56.699219 C 169.484375 57.375 169.546875 58.046875 169.679688 58.710938 C 169.8125 59.375 170.007812 60.019531 170.269531 60.644531 C 170.527344 61.269531 170.84375 61.863281 171.222656 62.429688 C 171.597656 62.992188 172.023438 63.511719 172.503906 63.992188 C 172.980469 64.46875 173.503906 64.898438 174.066406 65.273438 C 174.628906 65.648438 175.222656 65.96875 175.847656 66.226562 C 176.476562 66.484375 177.121094 66.679688 177.785156 66.8125 C 178.449219 66.945312 179.117188 67.011719 179.796875 67.011719 L 182.394531 67.011719 L 182.394531 121.003906 C 167.722656 121.238281 153.136719 122.5 138.644531 124.789062 L 138.644531 90.652344 C 145.457031 88.585938 150.476562 81.769531 150.476562 70.027344 C 150.476562 55.675781 143.035156 39.257812 133.898438 39.257812 C 124.757812 39.257812 117.394531 55.675781 117.394531 70.027344 C 117.394531 81.773438 122.320312 88.589844 129.230469 90.652344 L 129.230469 126.46875 L 128.976562 126.511719 C 114.105469 129.304688 99.636719 133.503906 85.582031 139.113281 C 102.285156 135.210938 119.160156 132.277344 136.203125 130.316406 C 153.246094 128.351562 170.34375 127.371094 187.5 127.371094 C 204.652344 127.371094 221.75 128.351562 238.792969 130.316406 C 255.835938 132.277344 272.710938 135.210938 289.417969 139.113281 C 275.378906 133.472656 260.925781 129.261719 246.058594 126.476562 Z M 246.058594 126.476562 " fill-opacity="1" fill-rule="evenodd"/></g><g clip-path="url(#8d741ecebc)"><path fill="#ca8126" d="M 373.996094 200.421875 C 373.332031 199.222656 372.445312 198.222656 371.332031 197.425781 C 368.027344 195 364.675781 192.644531 361.277344 190.355469 C 357.878906 188.066406 354.433594 185.84375 350.949219 183.691406 C 347.460938 181.535156 343.933594 179.453125 340.363281 177.4375 C 336.796875 175.421875 333.1875 173.480469 329.542969 171.609375 C 325.898438 169.734375 322.214844 167.9375 318.5 166.210938 C 314.78125 164.484375 311.03125 162.832031 307.25 161.253906 C 303.46875 159.675781 299.65625 158.171875 295.816406 156.746094 C 291.972656 155.316406 288.105469 153.96875 284.210938 152.691406 C 280.316406 151.417969 276.398438 150.222656 272.453125 149.101562 C 268.511719 147.980469 264.550781 146.941406 260.566406 145.976562 C 256.582031 145.015625 252.582031 144.132812 248.5625 143.328125 C 244.542969 142.523438 240.511719 141.796875 236.464844 141.152344 C 232.417969 140.507812 228.359375 139.941406 224.289062 139.457031 C 220.222656 138.972656 216.144531 138.566406 212.058594 138.242188 C 207.972656 137.921875 203.882812 137.675781 199.789062 137.515625 C 195.691406 137.351562 191.597656 137.273438 187.5 137.273438 C 183.398438 137.273438 179.304688 137.351562 175.207031 137.515625 C 171.113281 137.675781 167.023438 137.921875 162.9375 138.242188 C 158.851562 138.566406 154.773438 138.972656 150.707031 139.457031 C 146.636719 139.941406 142.578125 140.507812 138.53125 141.152344 C 134.484375 141.796875 130.453125 142.523438 126.433594 143.328125 C 122.414062 144.132812 118.414062 145.015625 114.429688 145.976562 C 110.445312 146.941406 106.484375 147.980469 102.542969 149.101562 C 98.597656 150.222656 94.679688 151.417969 90.785156 152.691406 C 86.890625 153.96875 83.023438 155.316406 79.179688 156.746094 C 75.339844 158.171875 71.527344 159.675781 67.746094 161.253906 C 63.964844 162.832031 60.214844 164.484375 56.496094 166.210938 C 52.78125 167.9375 49.097656 169.734375 45.453125 171.609375 C 41.808594 173.480469 38.199219 175.421875 34.632812 177.4375 C 31.0625 179.453125 27.535156 181.535156 24.046875 183.691406 C 20.5625 185.84375 17.117188 188.066406 13.71875 190.355469 C 10.320312 192.644531 6.96875 195 3.664062 197.425781 C 2.550781 198.222656 1.664062 199.222656 1.003906 200.421875 C 0.367188 201.574219 0.03125 202.808594 0 204.125 C -0.0507812 205.378906 0.214844 206.5625 0.789062 207.679688 C 1.371094 208.765625 2.183594 209.640625 3.226562 210.304688 C 10.398438 214.949219 17.414062 219.757812 24.265625 224.738281 C 24.53125 224.921875 24.757812 225.144531 24.949219 225.40625 C 25.136719 225.664062 25.277344 225.949219 25.378906 226.253906 C 28.042969 234.296875 30.910156 242.226562 33.976562 250.039062 C 34.414062 251.171875 35.066406 252.160156 35.9375 253.003906 C 36.804688 253.847656 37.8125 254.472656 38.957031 254.875 C 40.03125 255.277344 41.136719 255.417969 42.277344 255.300781 C 43.355469 255.171875 44.335938 254.78125 45.210938 254.132812 C 47.769531 252.257812 50.363281 250.4375 52.992188 248.664062 C 55.625 246.890625 58.289062 245.171875 60.988281 243.503906 C 63.6875 241.835938 66.417969 240.222656 69.179688 238.664062 C 71.941406 237.105469 74.734375 235.601562 77.554688 234.152344 C 80.375 232.703125 83.226562 231.3125 86.101562 229.976562 C 88.980469 228.640625 91.882812 227.359375 94.808594 226.140625 C 97.734375 224.917969 100.6875 223.753906 103.660156 222.652344 C 106.632812 221.546875 109.628906 220.5 112.640625 219.515625 C 115.65625 218.527344 118.691406 217.601562 121.742188 216.734375 C 124.792969 215.867188 127.859375 215.0625 130.941406 214.316406 C 134.027344 213.570312 137.121094 212.886719 140.234375 212.265625 C 143.34375 211.640625 146.464844 211.082031 149.597656 210.582031 C 152.730469 210.082031 155.871094 209.644531 159.019531 209.269531 C 162.167969 208.894531 165.324219 208.582031 168.488281 208.332031 C 171.648438 208.082031 174.816406 207.894531 177.984375 207.765625 C 181.152344 207.640625 184.324219 207.578125 187.496094 207.578125 C 190.667969 207.578125 193.839844 207.640625 197.007812 207.765625 C 200.179688 207.894531 203.34375 208.082031 206.507812 208.332031 C 209.667969 208.582031 212.824219 208.894531 215.972656 209.269531 C 219.121094 209.644531 222.265625 210.082031 225.394531 210.582031 C 228.527344 211.082031 231.648438 211.640625 234.761719 212.265625 C 237.871094 212.886719 240.96875 213.570312 244.050781 214.316406 C 247.132812 215.0625 250.199219 215.867188 253.253906 216.734375 C 256.304688 217.601562 259.335938 218.527344 262.351562 219.515625 C 265.367188 220.5 268.359375 221.546875 271.332031 222.652344 C 274.304688 223.753906 277.257812 224.917969 280.183594 226.140625 C 283.113281 227.359375 286.011719 228.640625 288.890625 229.976562 C 291.765625 231.3125 294.617188 232.703125 297.4375 234.152344 C 300.261719 235.601562 303.050781 237.105469 305.8125 238.664062 C 308.578125 240.222656 311.308594 241.835938 314.003906 243.503906 C 316.703125 245.171875 319.367188 246.890625 322 248.664062 C 324.628906 250.4375 327.222656 252.257812 329.78125 254.132812 C 330.65625 254.78125 331.636719 255.171875 332.71875 255.300781 C 333.855469 255.417969 334.960938 255.277344 336.035156 254.878906 C 337.179688 254.472656 338.183594 253.851562 339.054688 253.003906 C 339.925781 252.160156 340.578125 251.171875 341.015625 250.042969 C 344.082031 242.226562 346.949219 234.296875 349.613281 226.257812 C 349.699219 226.011719 349.808594 225.777344 349.941406 225.554688 L 350.046875 225.40625 C 350.238281 225.148438 350.464844 224.925781 350.726562 224.742188 C 357.582031 219.765625 364.59375 214.953125 371.765625 210.304688 C 372.808594 209.640625 373.621094 208.765625 374.203125 207.675781 C 374.777344 206.558594 375.042969 205.375 374.996094 204.121094 C 374.960938 202.804688 374.628906 201.574219 373.996094 200.421875 Z M 373.996094 200.421875 " fill-opacity="1" fill-rule="nonzero"/></g><g fill="#ffffff" fill-opacity="1"><g transform="translate(36.383815, 232.052759)"><g><path d="M -2.21875 -32.171875 C 0.632812 -33.816406 3.25 -34.453125 5.625 -34.078125 C 8 -33.703125 9.847656 -32.363281 11.171875 -30.0625 C 11.898438 -28.800781 12.191406 -27.503906 12.046875 -26.171875 C 11.898438 -24.847656 11.34375 -23.53125 10.375 -22.21875 C 12.101562 -22.613281 13.582031 -22.488281 14.8125 -21.84375 C 16.050781 -21.207031 17.109375 -20.140625 17.984375 -18.640625 L 18.703125 -17.359375 C 19.023438 -16.796875 19.382812 -16.425781 19.78125 -16.25 C 20.175781 -16.082031 20.644531 -16.117188 21.1875 -16.359375 L 21.859375 -16.609375 L 23.609375 -13.578125 L 20.984375 -12.078125 C 19.347656 -11.128906 17.9375 -10.90625 16.75 -11.40625 C 15.570312 -11.914062 14.578125 -12.875 13.765625 -14.28125 L 12.953125 -15.703125 C 12.253906 -16.921875 11.378906 -17.691406 10.328125 -18.015625 C 9.273438 -18.335938 8.148438 -18.171875 6.953125 -17.515625 L 2.84375 -15.15625 L 6.65625 -8.53125 L 9.640625 -9.5625 L 11.375 -6.546875 L 0.96875 -0.546875 L -0.765625 -3.5625 L 1.609375 -5.625 L -8.765625 -23.65625 L -11.75 -22.640625 L -13.484375 -25.671875 L -10.8125 -27.21875 Z M 0.609375 -19.046875 L 4.078125 -21.046875 C 5.484375 -21.859375 6.363281 -22.757812 6.71875 -23.75 C 7.082031 -24.75 6.941406 -25.8125 6.296875 -26.9375 C 5.640625 -28.070312 4.769531 -28.773438 3.6875 -29.046875 C 2.601562 -29.316406 1.378906 -29.0625 0.015625 -28.28125 L -3.53125 -26.234375 Z M 0.609375 -19.046875 "/></g></g></g><g fill="#ffffff" fill-opacity="1"><g transform="translate(64.33342, 216.291187)"><g><path d="M 13.109375 -19.578125 L 4.109375 -15.671875 L 7.40625 -8.078125 L 15.984375 -11.8125 L 14.84375 -15.09375 L 18.890625 -16.859375 L 22.046875 -9.59375 L 1.015625 -0.4375 L -0.375 -3.625 L 2.234375 -5.40625 L -6.0625 -24.484375 L -9.15625 -23.8125 L -10.546875 -27.015625 L -7.703125 -28.25 L 10.4375 -36.15625 L 13.609375 -28.875 L 9.53125 -27.09375 L 7.890625 -30.15625 L -0.59375 -26.46875 L 2.3125 -19.78125 L 11.3125 -23.6875 Z M 13.109375 -19.578125 "/></g></g></g><g fill="#ffffff" fill-opacity="1"><g transform="translate(92.107776, 204.48311)"><g><path d="M 16.15625 -25.734375 L 12 -24.4375 L 10.09375 -28 C 9.5 -28.164062 8.707031 -28.21875 7.71875 -28.15625 C 6.726562 -28.09375 5.710938 -27.898438 4.671875 -27.578125 C 3.148438 -27.097656 2.070312 -26.40625 1.4375 -25.5 C 0.8125 -24.601562 0.660156 -23.644531 0.984375 -22.625 C 1.273438 -21.695312 1.945312 -21.066406 3 -20.734375 C 4.0625 -20.398438 5.757812 -20.234375 8.09375 -20.234375 C 11.414062 -20.335938 14.082031 -19.941406 16.09375 -19.046875 C 18.113281 -18.148438 19.476562 -16.570312 20.1875 -14.3125 C 20.9375 -11.9375 20.585938 -9.769531 19.140625 -7.8125 C 17.691406 -5.863281 15.4375 -4.40625 12.375 -3.4375 C 10.175781 -2.75 8.085938 -2.476562 6.109375 -2.625 C 4.128906 -2.769531 2.351562 -3.269531 0.78125 -4.125 L -1.03125 -9.890625 L 3.265625 -11.234375 L 5.09375 -7.5 C 5.800781 -7.226562 6.675781 -7.09375 7.71875 -7.09375 C 8.769531 -7.09375 9.882812 -7.273438 11.0625 -7.640625 C 12.582031 -8.117188 13.640625 -8.796875 14.234375 -9.671875 C 14.828125 -10.546875 14.960938 -11.5 14.640625 -12.53125 C 14.304688 -13.59375 13.660156 -14.328125 12.703125 -14.734375 C 11.742188 -15.140625 10.234375 -15.328125 8.171875 -15.296875 C 4.585938 -15.222656 1.753906 -15.570312 -0.328125 -16.34375 C -2.421875 -17.125 -3.828125 -18.644531 -4.546875 -20.90625 C -5.242188 -23.15625 -4.863281 -25.289062 -3.40625 -27.3125 C -1.957031 -29.332031 0.191406 -30.8125 3.046875 -31.75 C 5.179688 -32.414062 7.222656 -32.703125 9.171875 -32.609375 C 11.117188 -32.515625 12.851562 -32.113281 14.375 -31.40625 Z M 16.15625 -25.734375 "/></g></g></g><g fill="#ffffff" fill-opacity="1"><g transform="translate(119.66523, 195.988272)"><g><path d="M 20.484375 -33.625 L 21.984375 -26.046875 L 17.609375 -25.171875 L 16.75 -28.296875 L 11.515625 -27.265625 L 15.484375 -7.234375 L 18.65625 -7.25 L 19.328125 -3.828125 L 7.546875 -1.5 L 6.875 -4.921875 L 9.78125 -6.09375 L 5.8125 -26.125 L 0.59375 -25.09375 L 1 -21.875 L -3.359375 -21.015625 L -4.859375 -28.59375 Z M 20.484375 -33.625 "/></g></g></g><g fill="#ffffff" fill-opacity="1"><g transform="translate(150.51019, 190.053893)"><g><path d="M 0.53125 -3.53125 L 2.578125 -4 L 9.375 -29.8125 L 15.296875 -30.296875 L 26.03125 -5.859375 L 28.109375 -5.734375 L 28.390625 -2.265625 L 18.546875 -1.46875 L 18.265625 -4.9375 L 20.25 -5.46875 L 18.65625 -9.328125 L 9.296875 -8.59375 L 8.328125 -4.515625 L 10.375 -4.3125 L 10.65625 -0.84375 L 0.8125 -0.0625 Z M 10.34375 -12.984375 L 16.953125 -13.5 L 12.890625 -23.40625 L 12.78125 -23.390625 Z M 10.34375 -12.984375 "/></g></g></g><g fill="#ffffff" fill-opacity="1"><g transform="translate(183.618305, 187.612763)"><g><path d="M 14 -28.40625 L 13.859375 -24.921875 L 10.71875 -24.453125 L 10.078125 -9.328125 C 9.992188 -7.429688 10.445312 -5.984375 11.4375 -4.984375 C 12.425781 -3.992188 13.816406 -3.460938 15.609375 -3.390625 C 17.421875 -3.304688 18.863281 -3.710938 19.9375 -4.609375 C 21.019531 -5.515625 21.601562 -6.921875 21.6875 -8.828125 L 22.328125 -23.953125 L 19.265625 -24.6875 L 19.40625 -28.171875 L 31.40625 -27.671875 L 31.265625 -24.1875 L 28.125 -23.703125 L 27.484375 -8.578125 C 27.335938 -5.335938 26.15625 -2.878906 23.9375 -1.203125 C 21.726562 0.460938 18.890625 1.222656 15.421875 1.078125 C 11.953125 0.929688 9.191406 -0.0664062 7.140625 -1.921875 C 5.085938 -3.773438 4.132812 -6.320312 4.28125 -9.5625 L 4.921875 -24.6875 L 1.875 -25.4375 L 2.015625 -28.921875 L 5.09375 -28.78125 L 10.890625 -28.546875 Z M 14 -28.40625 "/></g></g></g><g fill="#ffffff" fill-opacity="1"><g transform="translate(218.306536, 189.413501)"><g><path d="M 18.625 -26.328125 C 21.875 -25.785156 24.300781 -24.617188 25.90625 -22.828125 C 27.519531 -21.035156 28.109375 -18.832031 27.671875 -16.21875 C 27.441406 -14.78125 26.847656 -13.59375 25.890625 -12.65625 C 24.941406 -11.71875 23.671875 -11.046875 22.078125 -10.640625 C 23.679688 -9.867188 24.757812 -8.84375 25.3125 -7.5625 C 25.863281 -6.28125 25.992188 -4.78125 25.703125 -3.0625 L 25.46875 -1.609375 C 25.363281 -0.972656 25.40625 -0.460938 25.59375 -0.078125 C 25.789062 0.304688 26.175781 0.578125 26.75 0.734375 L 27.4375 0.953125 L 26.875 4.40625 L 23.90625 3.921875 C 22.03125 3.609375 20.796875 2.890625 20.203125 1.765625 C 19.609375 0.640625 19.441406 -0.722656 19.703125 -2.328125 L 19.96875 -3.953125 C 20.195312 -5.335938 20.003906 -6.488281 19.390625 -7.40625 C 18.785156 -8.332031 17.8125 -8.921875 16.46875 -9.171875 L 11.78125 -9.9375 L 10.546875 -2.40625 L 13.515625 -1.3125 L 12.953125 2.125 L 1.09375 0.171875 L 1.65625 -3.265625 L 4.796875 -3.34375 L 8.171875 -23.859375 L 5.21875 -24.96875 L 5.78125 -28.4375 L 8.828125 -27.921875 Z M 12.515625 -14.359375 L 16.46875 -13.71875 C 18.070312 -13.445312 19.328125 -13.585938 20.234375 -14.140625 C 21.140625 -14.691406 21.695312 -15.609375 21.90625 -16.890625 C 22.125 -18.171875 21.898438 -19.257812 21.234375 -20.15625 C 20.566406 -21.050781 19.457031 -21.628906 17.90625 -21.890625 L 13.859375 -22.546875 Z M 12.515625 -14.359375 "/></g></g></g><g fill="#ffffff" fill-opacity="1"><g transform="translate(249.863236, 194.790451)"><g><path d="M 1.75 -3.125 L 3.828125 -2.84375 L 19.265625 -24.625 L 24.984375 -22.984375 L 26.421875 3.65625 L 28.34375 4.53125 L 27.375 7.875 L 17.890625 5.140625 L 18.859375 1.796875 L 20.890625 2.015625 L 20.75 -2.171875 L 11.71875 -4.765625 L 9.390625 -1.296875 L 11.234375 -0.390625 L 10.265625 2.953125 L 0.78125 0.21875 Z M 14.234375 -8.515625 L 20.609375 -6.671875 L 20.296875 -17.375 L 20.203125 -17.40625 Z M 14.234375 -8.515625 "/></g></g></g><g fill="#ffffff" fill-opacity="1"><g transform="translate(281.705458, 204.124244)"><g><path d="M 39.640625 -14.59375 L 38.265625 -11.375 L 35.171875 -12.03125 L 25.40625 10.84375 L 20.078125 8.5625 L 16.96875 -13.96875 L 16.859375 -13.984375 L 10.8125 0.1875 L 13.453125 1.953125 L 12.078125 5.15625 L 1.015625 0.4375 L 2.390625 -2.765625 L 5.453125 -2.09375 L 13.625 -21.21875 L 11.015625 -23 L 12.390625 -26.21875 L 15.234375 -25 L 20.59375 -22.71875 L 23.703125 -0.1875 L 23.8125 -0.171875 L 29.84375 -14.3125 L 27.234375 -16.09375 L 28.609375 -19.3125 L 36.78125 -15.8125 Z M 39.640625 -14.59375 "/></g></g></g><g fill="#ffffff" fill-opacity="1"><g transform="translate(314.149335, 218.354816)"><g><path d="M 37.5625 -11.796875 L 33.703125 -5.109375 L 29.828125 -7.34375 L 31.25 -10.25 L 26.625 -12.921875 L 16.40625 4.765625 L 18.796875 6.828125 L 17.0625 9.84375 L 6.65625 3.84375 L 8.390625 0.828125 L 11.375 1.859375 L 21.59375 -15.828125 L 16.984375 -18.484375 L 15.15625 -15.8125 L 11.3125 -18.03125 L 15.171875 -24.71875 Z M 37.5625 -11.796875 "/></g></g></g><g clip-path="url(#f25def633f)"><path fill="#ca8126" d="M 62.398438 268.558594 C 70.296875 273.445312 78.496094 277.765625 86.992188 281.523438 C 102.855469 288.5625 119.265625 293.921875 136.226562 297.59375 C 146.75 299.851562 157.375 301.457031 168.09375 302.40625 C 177.808594 303.269531 185.992188 303.390625 190.878906 303.414062 C 195.769531 303.390625 203.957031 303.269531 213.671875 302.40625 C 224.390625 301.457031 235.011719 299.851562 245.53125 297.59375 C 262.496094 293.917969 278.910156 288.5625 294.773438 281.523438 C 303.265625 277.765625 311.460938 273.445312 319.363281 268.558594 C 323.652344 265.824219 324.855469 264.785156 324.722656 264.5625 C 324.585938 264.339844 323.140625 264.976562 318.660156 267.335938 C 314.152344 269.632812 306.632812 273.753906 293.796875 279.289062 C 278.027344 286.082031 261.75 291.28125 244.960938 294.890625 C 234.546875 297.089844 224.039062 298.652344 213.433594 299.578125 C 203.820312 300.40625 195.722656 300.515625 190.886719 300.546875 C 186.054688 300.515625 177.953125 300.40625 168.34375 299.578125 C 157.742188 298.652344 147.230469 297.089844 136.820312 294.890625 C 120.027344 291.28125 103.746094 286.078125 87.972656 279.289062 C 75.136719 273.753906 67.617188 269.632812 63.113281 267.335938 C 58.628906 264.976562 57.175781 264.34375 57.042969 264.5625 C 56.910156 264.78125 58.105469 265.824219 62.398438 268.558594 Z M 357.375 318.234375 C 357.234375 318.011719 355.472656 318.851562 349.910156 321.832031 C 344.324219 324.734375 334.984375 329.90625 319.007812 336.828125 C 314.652344 338.707031 306.242188 342.246094 295.492188 345.949219 C 283.246094 350.148438 270.789062 353.601562 258.128906 356.316406 C 245.160156 359.0625 232.074219 361.011719 218.867188 362.160156 C 206.917969 363.191406 196.867188 363.335938 190.878906 363.359375 C 184.886719 363.335938 174.84375 363.191406 162.898438 362.160156 C 149.691406 361.011719 136.601562 359.0625 123.628906 356.3125 C 110.96875 353.601562 98.515625 350.148438 86.269531 345.945312 C 75.515625 342.246094 67.105469 338.707031 62.757812 336.824219 C 46.78125 329.902344 37.4375 324.734375 31.851562 321.832031 C 26.292969 318.851562 24.527344 318.011719 24.394531 318.234375 C 24.257812 318.460938 25.773438 319.707031 31.144531 323.0625 C 41.003906 329.070312 51.210938 334.40625 61.773438 339.066406 C 66.128906 341.023438 74.585938 344.640625 85.410156 348.429688 C 97.746094 352.722656 110.292969 356.25 123.058594 359.019531 C 136.132812 361.828125 149.332031 363.820312 162.652344 364.996094 C 174.703125 366.058594 184.839844 366.214844 190.878906 366.242188 C 196.921875 366.214844 207.066406 366.058594 219.113281 364.996094 C 232.433594 363.820312 245.632812 361.828125 258.707031 359.019531 C 271.46875 356.253906 284.015625 352.722656 296.347656 348.429688 C 307.175781 344.644531 315.636719 341.023438 319.992188 339.066406 C 330.550781 334.402344 340.761719 329.066406 350.617188 323.0625 C 355.988281 319.707031 357.507812 318.460938 357.375 318.234375 Z M 357.375 318.234375 " fill-opacity="1" fill-rule="evenodd"/></g><g fill="#4e4d4d" fill-opacity="1"><g transform="translate(7.167813, 291.346188)"><g><path d="M 21.203125 -13.96875 C 23.609375 -12.550781 25.132812 -10.617188 25.78125 -8.171875 C 26.425781 -5.722656 26.035156 -3.296875 24.609375 -0.890625 L 22.703125 2.359375 C 21.273438 4.765625 19.332031 6.269531 16.875 6.875 C 14.425781 7.488281 12 7.085938 9.59375 5.671875 L 0.75 0.4375 L 2.15625 -1.9375 L 4.5 -1.078125 L 12.828125 -15.1875 L 10.953125 -16.84375 L 12.359375 -19.203125 L 14.46875 -17.953125 Z M 16.59375 -12.609375 L 8.5625 0.96875 L 11.171875 2.515625 C 12.578125 3.347656 13.960938 3.523438 15.328125 3.046875 C 16.691406 2.578125 17.832031 1.570312 18.75 0.03125 L 20.671875 -3.25 C 21.578125 -4.769531 21.910156 -6.242188 21.671875 -7.671875 C 21.429688 -9.097656 20.609375 -10.226562 19.203125 -11.0625 Z M 16.59375 -12.609375 "/></g></g></g><g fill="#4e4d4d" fill-opacity="1"><g transform="translate(31.70495, 305.579012)"><g><path d="M 18.921875 -16.234375 L 17.734375 -13.75 L 15.3125 -14.390625 L 10.171875 -3.640625 C 9.523438 -2.285156 9.40625 -1.097656 9.8125 -0.078125 C 10.226562 0.941406 11.070312 1.757812 12.34375 2.375 C 13.632812 2.988281 14.804688 3.132812 15.859375 2.8125 C 16.910156 2.5 17.765625 1.660156 18.421875 0.296875 L 23.5625 -10.453125 L 21.578125 -11.921875 L 22.765625 -14.40625 L 31.28125 -10.328125 L 30.09375 -7.84375 L 27.703125 -8.46875 L 22.5625 2.28125 C 21.457031 4.582031 19.84375 5.992188 17.71875 6.515625 C 15.59375 7.046875 13.296875 6.722656 10.828125 5.546875 C 8.367188 4.367188 6.679688 2.789062 5.765625 0.8125 C 4.859375 -1.164062 4.957031 -3.304688 6.0625 -5.609375 L 11.203125 -16.359375 L 9.203125 -17.828125 L 10.390625 -20.3125 L 12.59375 -19.265625 L 16.703125 -17.296875 Z M 18.921875 -16.234375 "/></g></g></g><g fill="#4e4d4d" fill-opacity="1"><g transform="translate(59.338285, 318.410293)"><g><path d="M 23.65625 -7.25 L 20.46875 -8.453125 L 21.09375 -11.453125 C 20.832031 -12.046875 20.425781 -12.582031 19.875 -13.0625 C 19.332031 -13.539062 18.625 -13.945312 17.75 -14.28125 C 15.90625 -14.976562 14.222656 -14.835938 12.703125 -13.859375 C 11.191406 -12.890625 10.03125 -11.316406 9.21875 -9.140625 L 8.9375 -8.40625 C 8.113281 -6.226562 7.945312 -4.273438 8.4375 -2.546875 C 8.925781 -0.816406 10.078125 0.382812 11.890625 1.0625 C 12.722656 1.382812 13.535156 1.554688 14.328125 1.578125 C 15.128906 1.597656 15.796875 1.46875 16.328125 1.1875 L 17.84375 -1.46875 L 21.03125 -0.265625 L 19.453125 3.9375 C 18.191406 4.601562 16.785156 4.984375 15.234375 5.078125 C 13.691406 5.171875 12.09375 4.90625 10.4375 4.28125 C 7.570312 3.207031 5.597656 1.332031 4.515625 -1.34375 C 3.429688 -4.019531 3.476562 -6.914062 4.65625 -10.03125 L 4.921875 -10.75 C 6.085938 -13.84375 7.953125 -16.039062 10.515625 -17.34375 C 13.085938 -18.65625 15.816406 -18.769531 18.703125 -17.6875 C 20.359375 -17.0625 21.734375 -16.195312 22.828125 -15.09375 C 23.929688 -14 24.738281 -12.789062 25.25 -11.46875 Z M 23.65625 -7.25 "/></g></g></g><g fill="#4e4d4d" fill-opacity="1"><g transform="translate(84.454769, 327.473398)"><g/></g></g><g fill="#4e4d4d" fill-opacity="1"><g transform="translate(97.585848, 331.524094)"><g><path d="M 0.84375 0.203125 L 1.5 -2.46875 L 4 -2.328125 L 7.921875 -18.21875 L 5.671875 -19.265625 L 6.328125 -21.9375 L 8.703125 -21.34375 L 13.125 -20.25 L 15.515625 -19.65625 L 14.859375 -16.984375 L 12.34375 -17.125 L 8.484375 -1.515625 L 14.75 0.03125 L 15.65625 -2.6875 L 19.03125 -1.859375 L 17.5 4.328125 Z M 0.84375 0.203125 "/></g></g></g><g fill="#4e4d4d" fill-opacity="1"><g transform="translate(121.864533, 337.368548)"><g><path d="M 1.0625 -2.609375 L 2.71875 -2.578125 L 12.78125 -21.03125 L 17.40625 -20.265625 L 21.015625 0.421875 L 22.5625 0.90625 L 22.125 3.625 L 14.46875 2.359375 L 14.90625 -0.359375 L 16.5 -0.359375 L 16.03125 -3.625 L 8.71875 -4.8125 L 7.21875 -1.875 L 8.75 -1.359375 L 8.3125 1.359375 L 0.625 0.109375 Z M 10.34375 -7.96875 L 15.5 -7.125 L 14.25 -15.453125 L 14.15625 -15.46875 Z M 10.34375 -7.96875 "/></g></g></g><g fill="#4e4d4d" fill-opacity="1"><g transform="translate(150.853003, 341.862649)"><g><path d="M 25.78125 -21 L 25.59375 -18.265625 L 23.09375 -17.984375 L 21.6875 1.5625 L 17.140625 1.234375 L 9.0625 -14.734375 L 8.96875 -14.734375 L 8.09375 -2.640625 L 10.5 -2 L 10.296875 0.75 L 0.875 0.0625 L 1.078125 -2.6875 L 3.53125 -2.96875 L 4.703125 -19.3125 L 2.328125 -19.953125 L 2.515625 -22.6875 L 4.9375 -22.515625 L 9.5 -22.1875 L 17.578125 -6.203125 L 17.671875 -6.21875 L 18.546875 -18.3125 L 16.171875 -18.953125 L 16.359375 -21.6875 L 23.328125 -21.1875 Z M 25.78125 -21 "/></g></g></g><g fill="#4e4d4d" fill-opacity="1"><g transform="translate(181.576277, 343.601686)"><g/></g></g><g fill="#4e4d4d" fill-opacity="1"><g transform="translate(195.560609, 343.886404)"><g><path d="M 28.953125 -22.15625 L 27.078125 -21.78125 L 23.859375 -1.671875 L 19.640625 -1.375 L 14.40625 -16.125 L 14.3125 -16.109375 L 11.1875 -0.78125 L 6.953125 -0.484375 L 0.921875 -19.9375 L -0.953125 -20.046875 L -1.140625 -22.78125 L 7.25 -23.375 L 7.4375 -20.640625 L 5.359375 -20.125 L 8.875 -7.828125 L 8.953125 -7.828125 L 12.140625 -23.71875 L 15.484375 -23.953125 L 20.890625 -8.65625 L 20.984375 -8.6875 L 22.6875 -21.34375 L 20.59375 -21.5625 L 20.40625 -24.296875 L 28.765625 -24.890625 Z M 28.953125 -22.15625 "/></g></g></g><g fill="#4e4d4d" fill-opacity="1"><g transform="translate(232.671803, 340.722974)"><g><path d="M 13.734375 -12.46875 L 6.109375 -11.1875 L 7.1875 -4.765625 L 14.46875 -5.984375 L 14.203125 -8.703125 L 17.640625 -9.28125 L 18.671875 -3.125 L 0.859375 -0.140625 L 0.40625 -2.859375 L 2.734375 -3.71875 L 0.03125 -19.875 L -2.453125 -19.921875 L -2.90625 -22.640625 L -0.5 -23.046875 L 14.875 -25.625 L 15.90625 -19.453125 L 12.453125 -18.859375 L 11.796875 -21.53125 L 4.578125 -20.328125 L 5.53125 -14.671875 L 13.15625 -15.953125 Z M 13.734375 -12.46875 "/></g></g></g><g fill="#4e4d4d" fill-opacity="1"><g transform="translate(258.926984, 336.095206)"><g><path d="M 5.125 -24.8125 C 7.726562 -25.46875 9.882812 -25.472656 11.59375 -24.828125 C 13.3125 -24.179688 14.425781 -22.847656 14.9375 -20.828125 C 15.1875 -19.804688 15.140625 -18.820312 14.796875 -17.875 C 14.460938 -16.9375 13.832031 -16.132812 12.90625 -15.46875 C 14.300781 -15.519531 15.445312 -15.164062 16.34375 -14.40625 C 17.25 -13.644531 17.851562 -12.644531 18.15625 -11.40625 C 18.6875 -9.289062 18.390625 -7.515625 17.265625 -6.078125 C 16.140625 -4.640625 14.296875 -3.597656 11.734375 -2.953125 L 0.84375 -0.21875 L 0.171875 -2.890625 L 2.4375 -3.9375 L -1.5625 -19.8125 L -4.046875 -19.671875 L -4.71875 -22.34375 L -2.34375 -22.9375 Z M 5.1875 -11.71875 L 6.78125 -5.328125 L 10.875 -6.359375 C 12.050781 -6.648438 12.882812 -7.128906 13.375 -7.796875 C 13.863281 -8.460938 13.976562 -9.296875 13.71875 -10.296875 C 13.445312 -11.390625 12.976562 -12.15625 12.3125 -12.59375 C 11.65625 -13.039062 10.753906 -13.117188 9.609375 -12.828125 Z M 4.40625 -14.765625 L 7.59375 -15.5625 C 8.78125 -15.863281 9.632812 -16.34375 10.15625 -17 C 10.675781 -17.65625 10.816406 -18.445312 10.578125 -19.375 C 10.328125 -20.394531 9.816406 -21.066406 9.046875 -21.390625 C 8.273438 -21.722656 7.253906 -21.726562 5.984375 -21.40625 L 2.9375 -20.640625 Z M 4.40625 -14.765625 "/></g></g></g><g fill="#4e4d4d" fill-opacity="1"><g transform="translate(285.392815, 329.161414)"><g><path d="M 12.296875 -20.53125 L 9.046875 -19.4375 L 7.484375 -22.203125 C 7.023438 -22.328125 6.398438 -22.351562 5.609375 -22.28125 C 4.828125 -22.21875 4.03125 -22.050781 3.21875 -21.78125 C 2.039062 -21.375 1.210938 -20.8125 0.734375 -20.09375 C 0.253906 -19.375 0.144531 -18.617188 0.40625 -17.828125 C 0.65625 -17.097656 1.195312 -16.613281 2.03125 -16.375 C 2.863281 -16.132812 4.207031 -16.023438 6.0625 -16.046875 C 8.664062 -16.191406 10.765625 -15.929688 12.359375 -15.265625 C 13.953125 -14.597656 15.050781 -13.375 15.65625 -11.59375 C 16.269531 -9.75 16.023438 -8.039062 14.921875 -6.46875 C 13.828125 -4.90625 12.082031 -3.722656 9.6875 -2.921875 C 7.96875 -2.335938 6.328125 -2.082031 4.765625 -2.15625 C 3.210938 -2.238281 1.804688 -2.609375 0.546875 -3.265625 L -0.96875 -7.765625 L 2.390625 -8.890625 L 3.875 -5.984375 C 4.4375 -5.773438 5.128906 -5.679688 5.953125 -5.703125 C 6.785156 -5.722656 7.660156 -5.890625 8.578125 -6.203125 C 9.765625 -6.597656 10.585938 -7.140625 11.046875 -7.828125 C 11.503906 -8.523438 11.59375 -9.28125 11.3125 -10.09375 C 11.039062 -10.925781 10.523438 -11.492188 9.765625 -11.796875 C 9.003906 -12.109375 7.804688 -12.238281 6.171875 -12.1875 C 3.359375 -12.0625 1.125 -12.285156 -0.53125 -12.859375 C -2.195312 -13.441406 -3.328125 -14.617188 -3.921875 -16.390625 C -4.515625 -18.140625 -4.253906 -19.820312 -3.140625 -21.4375 C -2.035156 -23.050781 -0.363281 -24.25 1.875 -25.03125 C 3.53125 -25.59375 5.128906 -25.851562 6.671875 -25.8125 C 8.210938 -25.769531 9.585938 -25.484375 10.796875 -24.953125 Z M 12.296875 -20.53125 "/></g></g></g><g fill="#4e4d4d" fill-opacity="1"><g transform="translate(309.366747, 320.744109)"><g><path d="M -6.796875 -18.890625 L -7.84375 -21.4375 L 0.90625 -25.015625 L 1.953125 -22.46875 L -0.140625 -21.109375 L 6.0625 -5.953125 L 8.5 -6.453125 L 9.546875 -3.90625 L 0.796875 -0.328125 L -0.25 -2.875 L 1.84375 -4.234375 L -4.359375 -19.390625 Z M -6.796875 -18.890625 "/></g></g></g><g fill="#4e4d4d" fill-opacity="1"><g transform="translate(325.244378, 314.219089)"><g><path d="M 8.796875 -29.703125 L 11.46875 -24.25 L 8.3125 -22.703125 L 7.03125 -24.921875 L 3.25 -23.0625 L 10.3125 -8.625 L 12.734375 -9.28125 L 13.9375 -6.8125 L 5.4375 -2.65625 L 4.234375 -5.125 L 6.21875 -6.625 L -0.84375 -21.0625 L -4.609375 -19.21875 L -3.65625 -16.84375 L -6.796875 -15.3125 L -9.46875 -20.765625 Z M 8.796875 -29.703125 "/></g></g></g><g fill="#4e4d4d" fill-opacity="1"><g transform="translate(350.04807, 301.782538)"><g><path d="M 8.296875 -16.59375 L 1.640625 -12.640625 L 4.96875 -7.03125 L 11.3125 -10.796875 L 10.09375 -13.25 L 13.09375 -15.03125 L 16.28125 -9.671875 L 0.75 -0.453125 L -0.65625 -2.8125 L 1.203125 -4.453125 L -7.15625 -18.53125 L -9.5 -17.703125 L -10.90625 -20.0625 L -8.8125 -21.296875 L 4.59375 -29.265625 L 7.796875 -23.890625 L 4.78125 -22.09375 L 3.203125 -24.34375 L -3.09375 -20.609375 L -0.15625 -15.671875 L 6.5 -19.625 Z M 8.296875 -16.59375 "/></g></g></g><g fill="#4e4d4d" fill-opacity="1"><g transform="translate(93.097733, 264.617457)"><g><path d="M 0.6875 -2.15625 L 2.609375 -2.53125 L 2.609375 -15.421875 L 0.6875 -15.796875 L 0.6875 -17.96875 L 8.03125 -17.96875 L 8.03125 -15.796875 L 6.203125 -15.421875 L 6.203125 -10.625 L 7.765625 -10.625 L 11.21875 -15.640625 L 10.171875 -15.796875 L 10.171875 -17.96875 L 17.28125 -17.96875 L 17.28125 -15.796875 L 15.328125 -15.453125 L 10.921875 -9.5625 L 15.875 -2.46875 L 17.671875 -2.15625 L 17.671875 0 L 10.5625 0 L 10.5625 -2.15625 L 11.671875 -2.3125 L 8.21875 -7.5 L 6.203125 -7.5 L 6.203125 -2.53125 L 8.03125 -2.15625 L 8.03125 0 L 0.6875 0 Z M 0.6875 -2.15625 "/></g></g></g><g fill="#4e4d4d" fill-opacity="1"><g transform="translate(113.601225, 264.617457)"><g><path d="M 0.5 -2.15625 L 1.78125 -2.34375 L 7.25 -17.96875 L 10.9375 -17.96875 L 16.375 -2.34375 L 17.65625 -2.15625 L 17.65625 0 L 11.53125 0 L 11.53125 -2.15625 L 12.78125 -2.375 L 11.984375 -4.84375 L 6.171875 -4.84375 L 5.375 -2.375 L 6.625 -2.15625 L 6.625 0 L 0.5 0 Z M 7.015625 -7.5 L 11.140625 -7.5 L 9.109375 -13.828125 L 9.046875 -13.828125 Z M 7.015625 -7.5 "/></g></g></g><g fill="#4e4d4d" fill-opacity="1"><g transform="translate(134.191041, 264.617457)"><g><path d="M 14.328125 -12.21875 L 11.640625 -12.21875 L 11.171875 -14.6875 C 10.859375 -14.882812 10.398438 -15.054688 9.796875 -15.203125 C 9.191406 -15.359375 8.554688 -15.4375 7.890625 -15.4375 C 6.898438 -15.4375 6.132812 -15.226562 5.59375 -14.8125 C 5.050781 -14.394531 4.78125 -13.859375 4.78125 -13.203125 C 4.78125 -12.585938 5.0625 -12.082031 5.625 -11.6875 C 6.195312 -11.300781 7.171875 -10.894531 8.546875 -10.46875 C 10.523438 -9.914062 12.023438 -9.1875 13.046875 -8.28125 C 14.078125 -7.375 14.59375 -6.1875 14.59375 -4.71875 C 14.59375 -3.175781 13.984375 -1.957031 12.765625 -1.0625 C 11.546875 -0.175781 9.941406 0.265625 7.953125 0.265625 C 6.535156 0.265625 5.25 0.0390625 4.09375 -0.40625 C 2.945312 -0.863281 1.992188 -1.492188 1.234375 -2.296875 L 1.234375 -6.046875 L 4.015625 -6.046875 L 4.40625 -3.484375 C 4.769531 -3.191406 5.257812 -2.945312 5.875 -2.75 C 6.5 -2.5625 7.191406 -2.46875 7.953125 -2.46875 C 8.941406 -2.46875 9.691406 -2.664062 10.203125 -3.0625 C 10.722656 -3.46875 10.984375 -4.007812 10.984375 -4.6875 C 10.984375 -5.375 10.738281 -5.925781 10.25 -6.34375 C 9.757812 -6.769531 8.898438 -7.164062 7.671875 -7.53125 C 5.546875 -8.15625 3.9375 -8.890625 2.84375 -9.734375 C 1.75 -10.578125 1.203125 -11.738281 1.203125 -13.21875 C 1.203125 -14.664062 1.816406 -15.851562 3.046875 -16.78125 C 4.273438 -17.707031 5.828125 -18.179688 7.703125 -18.203125 C 9.078125 -18.203125 10.332031 -17.992188 11.46875 -17.578125 C 12.601562 -17.160156 13.554688 -16.601562 14.328125 -15.90625 Z M 14.328125 -12.21875 "/></g></g></g><g fill="#4e4d4d" fill-opacity="1"><g transform="translate(151.957051, 264.617457)"><g><path d="M 14.328125 -12.21875 L 11.640625 -12.21875 L 11.171875 -14.6875 C 10.859375 -14.882812 10.398438 -15.054688 9.796875 -15.203125 C 9.191406 -15.359375 8.554688 -15.4375 7.890625 -15.4375 C 6.898438 -15.4375 6.132812 -15.226562 5.59375 -14.8125 C 5.050781 -14.394531 4.78125 -13.859375 4.78125 -13.203125 C 4.78125 -12.585938 5.0625 -12.082031 5.625 -11.6875 C 6.195312 -11.300781 7.171875 -10.894531 8.546875 -10.46875 C 10.523438 -9.914062 12.023438 -9.1875 13.046875 -8.28125 C 14.078125 -7.375 14.59375 -6.1875 14.59375 -4.71875 C 14.59375 -3.175781 13.984375 -1.957031 12.765625 -1.0625 C 11.546875 -0.175781 9.941406 0.265625 7.953125 0.265625 C 6.535156 0.265625 5.25 0.0390625 4.09375 -0.40625 C 2.945312 -0.863281 1.992188 -1.492188 1.234375 -2.296875 L 1.234375 -6.046875 L 4.015625 -6.046875 L 4.40625 -3.484375 C 4.769531 -3.191406 5.257812 -2.945312 5.875 -2.75 C 6.5 -2.5625 7.191406 -2.46875 7.953125 -2.46875 C 8.941406 -2.46875 9.691406 -2.664062 10.203125 -3.0625 C 10.722656 -3.46875 10.984375 -4.007812 10.984375 -4.6875 C 10.984375 -5.375 10.738281 -5.925781 10.25 -6.34375 C 9.757812 -6.769531 8.898438 -7.164062 7.671875 -7.53125 C 5.546875 -8.15625 3.9375 -8.890625 2.84375 -9.734375 C 1.75 -10.578125 1.203125 -11.738281 1.203125 -13.21875 C 1.203125 -14.664062 1.816406 -15.851562 3.046875 -16.78125 C 4.273438 -17.707031 5.828125 -18.179688 7.703125 -18.203125 C 9.078125 -18.203125 10.332031 -17.992188 11.46875 -17.578125 C 12.601562 -17.160156 13.554688 -16.601562 14.328125 -15.90625 Z M 14.328125 -12.21875 "/></g></g></g><g fill="#4e4d4d" fill-opacity="1"><g transform="translate(209.743848, 264.62339)"><g><path d="M 0.890625 0 L 0.890625 -2.34375 L 6.6875 -8.5625 C 7.53125 -9.519531 8.128906 -10.328125 8.484375 -10.984375 C 8.835938 -11.648438 9.015625 -12.265625 9.015625 -12.828125 C 9.015625 -13.585938 8.8125 -14.207031 8.40625 -14.6875 C 8 -15.164062 7.421875 -15.40625 6.671875 -15.40625 C 5.835938 -15.40625 5.207031 -15.125 4.78125 -14.5625 C 4.351562 -14 4.140625 -13.25 4.140625 -12.3125 L 0.640625 -12.3125 L 0.609375 -12.390625 C 0.566406 -14.003906 1.097656 -15.367188 2.203125 -16.484375 C 3.304688 -17.609375 4.796875 -18.171875 6.671875 -18.171875 C 8.515625 -18.171875 9.960938 -17.691406 11.015625 -16.734375 C 12.078125 -15.773438 12.609375 -14.492188 12.609375 -12.890625 C 12.609375 -11.804688 12.3125 -10.804688 11.71875 -9.890625 C 11.125 -8.972656 10.140625 -7.773438 8.765625 -6.296875 L 5.578125 -2.8125 L 5.59375 -2.75 L 10.25 -2.75 L 10.40625 -4.53125 L 13.125 -4.53125 L 13.125 0 Z M 0.890625 0 "/></g></g></g><g fill="#4e4d4d" fill-opacity="1"><g transform="translate(225.970536, 264.62339)"><g><path d="M 13.3125 -6.984375 C 13.3125 -4.609375 12.765625 -2.804688 11.671875 -1.578125 C 10.585938 -0.347656 9.117188 0.265625 7.265625 0.265625 C 5.398438 0.265625 3.921875 -0.347656 2.828125 -1.578125 C 1.734375 -2.804688 1.1875 -4.609375 1.1875 -6.984375 L 1.1875 -10.921875 C 1.1875 -13.285156 1.726562 -15.082031 2.8125 -16.3125 C 3.90625 -17.550781 5.382812 -18.171875 7.25 -18.171875 C 9.101562 -18.171875 10.578125 -17.550781 11.671875 -16.3125 C 12.765625 -15.082031 13.3125 -13.285156 13.3125 -10.921875 Z M 9.734375 -11.296875 C 9.734375 -12.710938 9.519531 -13.75 9.09375 -14.40625 C 8.664062 -15.070312 8.050781 -15.40625 7.25 -15.40625 C 6.4375 -15.40625 5.820312 -15.078125 5.40625 -14.421875 C 4.988281 -13.765625 4.78125 -12.722656 4.78125 -11.296875 L 4.78125 -6.640625 C 4.78125 -5.191406 4.988281 -4.140625 5.40625 -3.484375 C 5.832031 -2.828125 6.453125 -2.5 7.265625 -2.5 C 8.078125 -2.5 8.691406 -2.828125 9.109375 -3.484375 C 9.523438 -4.140625 9.734375 -5.191406 9.734375 -6.640625 Z M 9.734375 -11.296875 "/></g></g></g><g fill="#4e4d4d" fill-opacity="1"><g transform="translate(242.664933, 264.62339)"><g><path d="M 13.3125 -6.984375 C 13.3125 -4.609375 12.765625 -2.804688 11.671875 -1.578125 C 10.585938 -0.347656 9.117188 0.265625 7.265625 0.265625 C 5.398438 0.265625 3.921875 -0.347656 2.828125 -1.578125 C 1.734375 -2.804688 1.1875 -4.609375 1.1875 -6.984375 L 1.1875 -10.921875 C 1.1875 -13.285156 1.726562 -15.082031 2.8125 -16.3125 C 3.90625 -17.550781 5.382812 -18.171875 7.25 -18.171875 C 9.101562 -18.171875 10.578125 -17.550781 11.671875 -16.3125 C 12.765625 -15.082031 13.3125 -13.285156 13.3125 -10.921875 Z M 9.734375 -11.296875 C 9.734375 -12.710938 9.519531 -13.75 9.09375 -14.40625 C 8.664062 -15.070312 8.050781 -15.40625 7.25 -15.40625 C 6.4375 -15.40625 5.820312 -15.078125 5.40625 -14.421875 C 4.988281 -13.765625 4.78125 -12.722656 4.78125 -11.296875 L 4.78125 -6.640625 C 4.78125 -5.191406 4.988281 -4.140625 5.40625 -3.484375 C 5.832031 -2.828125 6.453125 -2.5 7.265625 -2.5 C 8.078125 -2.5 8.691406 -2.828125 9.109375 -3.484375 C 9.523438 -4.140625 9.734375 -5.191406 9.734375 -6.640625 Z M 9.734375 -11.296875 "/></g></g></g><g fill="#4e4d4d" fill-opacity="1"><g transform="translate(259.359326, 264.62339)"><g><path d="M 0.796875 -2.15625 L 3.828125 -2.515625 L 3.828125 -14.65625 L 0.765625 -14.65625 L 0.765625 -16.71875 L 7.40625 -17.921875 L 7.40625 -2.515625 L 10.4375 -2.15625 L 10.4375 0 L 0.796875 0 Z M 0.796875 -2.15625 "/></g></g></g><g clip-path="url(#de10fb4ced)"><path fill="#ca8126" d="M 201.835938 252.3125 C 201.777344 252.125 201.667969 251.976562 201.511719 251.859375 C 201.351562 251.746094 201.175781 251.691406 200.980469 251.691406 L 191.730469 251.691406 L 188.351562 241.511719 C 188.289062 241.324219 188.179688 241.175781 188.023438 241.0625 C 187.867188 240.949219 187.691406 240.894531 187.496094 240.894531 C 187.304688 240.894531 187.128906 240.949219 186.972656 241.0625 C 186.8125 241.175781 186.707031 241.324219 186.644531 241.511719 L 183.257812 251.691406 L 174.015625 251.691406 C 173.820312 251.691406 173.644531 251.746094 173.484375 251.859375 C 173.324219 251.972656 173.214844 252.125 173.15625 252.3125 C 173.101562 252.5 173.105469 252.6875 173.167969 252.871094 C 173.230469 253.054688 173.339844 253.207031 173.5 253.320312 L 180.921875 258.664062 L 177.652344 268.476562 C 177.589844 268.664062 177.585938 268.847656 177.644531 269.035156 C 177.703125 269.222656 177.8125 269.375 177.96875 269.492188 C 178.128906 269.605469 178.308594 269.664062 178.507812 269.667969 C 178.699219 269.660156 178.875 269.601562 179.03125 269.492188 L 187.5 263.402344 L 195.964844 269.492188 C 196.125 269.605469 196.300781 269.664062 196.496094 269.667969 C 196.640625 269.667969 196.777344 269.632812 196.90625 269.566406 C 197.03125 269.5 197.136719 269.40625 197.222656 269.289062 C 197.304688 269.171875 197.355469 269.039062 197.378906 268.894531 C 197.398438 268.753906 197.382812 268.613281 197.335938 268.476562 L 194.066406 258.664062 L 201.507812 253.320312 C 201.667969 253.207031 201.773438 253.054688 201.835938 252.867188 C 201.894531 252.683594 201.894531 252.496094 201.835938 252.3125 Z M 201.835938 252.3125 " fill-opacity="1" fill-rule="evenodd"/></g></svg>