<svg xmlns="http://www.w3.org/2000/svg" xmlns:xlink="http://www.w3.org/1999/xlink" width="940" zoomAndPan="magnify" viewBox="0 0 705 591.000005" height="788" preserveAspectRatio="xMidYMid meet" version="1.0"><defs><clipPath id="937fbcf051"><path d="M 151.476562 107 L 553.546875 107 L 553.546875 590 L 151.476562 590 Z M 151.476562 107 " clip-rule="nonzero"/></clipPath></defs><g clip-path="url(#937fbcf051)"><path fill="#737373" d="M 444.710938 212.527344 C 460.140625 214.152344 475.0625 222.007812 488.789062 229.292969 C 508.859375 240.613281 525.964844 256.671875 539.042969 275.453125 C 529.273438 240.074219 500.445312 212.609375 469.960938 193.726562 C 429.71875 168.445312 380.585938 160.285156 333.972656 168.410156 C 332.582031 167.921875 335.546875 166.535156 336.699219 165.945312 C 364.878906 151.089844 398.523438 153.722656 427.808594 163.601562 C 407.765625 148.636719 380.441406 142.9375 355.875 142.632812 C 337.179688 142.683594 320.890625 144.847656 303.847656 150.980469 C 301.714844 151.710938 301.488281 152.175781 301.765625 154.347656 C 302.421875 158.136719 303.746094 170.355469 301.261719 172.941406 C 300.324219 169.96875 298.710938 114.855469 256.917969 108 C 256.457031 107.925781 256.152344 108.339844 256.355469 108.777344 C 259.613281 115.085938 262.460938 121.5625 264.035156 128.515625 C 266.621094 140.140625 267.464844 152.242188 266.480469 164.101562 C 266.367188 164.730469 266.5625 165.71875 265.671875 165.800781 C 264.035156 165.042969 255.722656 153.277344 252.566406 149.34375 C 251.378906 149.757812 251.167969 150.980469 250.554688 151.847656 C 247.292969 156.496094 243.503906 160.714844 239.941406 165.117188 C 236.503906 169.195312 233.109375 174.089844 235.023438 179.621094 C 235.671875 181.84375 236.285156 184.152344 237.382812 186.164062 C 238.519531 188.253906 238.105469 189.644531 236.664062 191.292969 C 224.570312 206.359375 205.199219 233.628906 184.105469 216.609375 C 179.386719 213.285156 184.355469 219.128906 185.6875 220.339844 C 196.6875 230.867188 212.949219 234.289062 227.046875 228.324219 C 227.621094 228.003906 227.898438 228.769531 227.863281 229.132812 C 210.246094 279.460938 186.363281 327.980469 154.382812 370.796875 C 148.132812 379.277344 153.398438 390.152344 156.859375 398.714844 C 160.085938 406.160156 164.042969 413.21875 168.488281 420 C 169.945312 422.230469 170.242188 422.324219 172.710938 421.664062 C 181.105469 419.191406 189.089844 415.820312 196.25 410.683594 C 196.980469 410.160156 197.789062 409.722656 198.582031 409.285156 C 198.699219 409.21875 198.984375 409.320312 199.09375 409.4375 C 196.128906 416.300781 188.578125 421.234375 182.671875 425.851562 C 181.898438 426.617188 179.96875 427.308594 180.617188 428.640625 C 190.523438 435.226562 211.847656 440.808594 218.777344 427.636719 C 221.40625 422.421875 221.785156 416.546875 222.574219 410.859375 C 222.804688 408.832031 223.761719 407.601562 225.558594 406.691406 C 228.261719 405.328125 309.007812 344.203125 299.746094 406.546875 C 296.8125 421.851562 288.855469 435.445312 283.683594 450.003906 C 277.898438 466.867188 274.082031 488.332031 281.046875 505.023438 C 281.175781 505.023438 281.402344 504.816406 281.417969 504.679688 C 281.882812 501.074219 282.195312 497.429688 282.894531 493.859375 C 288.222656 464.996094 310.203125 444.371094 329.601562 424.058594 C 368.949219 383.859375 382.347656 326.230469 366.371094 272.65625 C 412.167969 311.625 421.332031 385.914062 393.523438 438.238281 C 388.34375 447.714844 381.992188 457.324219 372.324219 462.671875 C 362.640625 468.523438 351.1875 463.210938 345.164062 454.074219 C 344.3125 453.398438 341.390625 447.25 340.550781 448.953125 C 337.078125 467.296875 322.558594 479.699219 313.945312 495.464844 C 297.605469 524.648438 294.996094 567.019531 323.207031 589.757812 C 313.976562 485.207031 407.089844 512.949219 428.152344 392.011719 C 434.066406 414.953125 427.453125 440.734375 416.234375 461.347656 C 405.902344 480.398438 374.867188 517.53125 372.46875 518.675781 C 417.273438 497.335938 451.757812 467.84375 467.085938 449.710938 C 467.375 449.382812 467.761719 448.851562 468.242188 449.078125 C 468.6875 449.769531 467.921875 450.585938 467.675781 451.277344 C 456.332031 472.746094 444.019531 494.371094 425.507812 510.523438 C 420.917969 514.472656 415.570312 517.859375 409.347656 518.113281 C 406.980469 518.070312 406.011719 519.394531 405.558594 521.558594 C 401.070312 540.035156 407.300781 559.398438 418.316406 574.378906 C 419.335938 573.488281 419.148438 572.199219 419.320312 571.0625 C 421.238281 556.828125 431.554688 546.105469 440.902344 535.992188 C 483.6875 493.050781 516.988281 437.691406 521.222656 376.136719 C 522.292969 370.433594 522.832031 381.578125 522.847656 383.296875 C 529.410156 441.289062 509.894531 501.613281 467.003906 541.746094 C 504.429688 524.402344 529.484375 486.457031 543.085938 448.347656 C 576.285156 359.082031 526.613281 255.433594 444.710938 212.527344 Z M 288.199219 353.84375 C 268.675781 353.640625 250.554688 340.058594 247.167969 320.46875 C 247 319.535156 246.929688 317.824219 245.542969 318.167969 C 213.523438 325.917969 195.457031 356.285156 194.371094 356.539062 C 203.425781 327.753906 219.121094 299.757812 241.980469 279.410156 C 245.003906 276.253906 249.574219 277.367188 253.425781 276.355469 C 264.863281 274.046875 271.226562 262.828125 270.75 251.738281 C 270.621094 250.113281 270.378906 248.320312 272.214844 247.550781 C 278.757812 244.125 285.082031 238.769531 288.292969 232.164062 C 287.289062 231.9375 286.363281 232.265625 285.417969 232.585938 C 279.726562 234.546875 273.921875 234.648438 268.054688 233.621094 C 257.796875 231.464844 253.164062 231.375 244.015625 237.03125 C 243.378906 237.363281 242.8125 237.101562 242.585938 236.410156 C 237.675781 222.582031 246.613281 213.847656 257.703125 207.445312 C 260.929688 205.730469 260.929688 202.191406 261.59375 199.035156 C 262.585938 193.675781 267.765625 190.679688 270.992188 186.671875 C 273.761719 183.714844 276.492188 180.722656 278.664062 177.28125 C 279.238281 176.050781 280.59375 176.035156 281.199219 177.203125 C 283.742188 181.472656 286.042969 185.820312 286.984375 190.804688 C 289.234375 199.226562 283.3125 207.960938 285.992188 208.253906 C 303.484375 209.519531 320.589844 217.535156 331 231.921875 C 362.371094 271.308594 343.621094 350.0625 288.199219 353.84375 Z M 288.199219 353.84375 " fill-opacity="1" fill-rule="nonzero"/></g><path fill="#737373" d="M 226.8125 157.816406 C 228.664062 160.96875 231.207031 165.523438 235.4375 162.980469 C 239.964844 160.527344 253.0625 149.234375 250.300781 143.683594 C 247.089844 136.804688 242.425781 130.800781 238.316406 124.449219 C 237.953125 123.910156 237.414062 123.878906 237.195312 124.441406 C 234.296875 132.929688 223.230469 137.5625 223.039062 146.523438 C 223.300781 150.371094 224.816406 154.480469 226.8125 157.816406 Z M 226.8125 157.816406 " fill-opacity="1" fill-rule="nonzero"/><path fill="#737373" d="M 227.097656 132.550781 C 230.515625 129.855469 237.734375 121.214844 235.613281 116.851562 C 232.132812 110.367188 225.515625 105.734375 223.671875 98.410156 C 223.609375 98.105469 223.191406 97.871094 222.9375 97.609375 C 218.625 103.742188 213.074219 109.753906 211.507812 117.28125 C 212.570312 124.625 217.3125 139.777344 227.097656 132.550781 Z M 227.097656 132.550781 " fill-opacity="1" fill-rule="nonzero"/><path fill="#737373" d="M 200.832031 90.433594 C 201.066406 94.535156 207.835938 109.273438 212.949219 105.871094 C 217.042969 102.285156 220.636719 98.089844 221.953125 92.65625 C 219.367188 84.707031 210.851562 80.386719 208.25 72.402344 C 206.867188 73.523438 206.9375 75.417969 205.875 76.75 C 202.945312 80.808594 199.492188 85.144531 200.832031 90.433594 Z M 200.832031 90.433594 " fill-opacity="1" fill-rule="nonzero"/><path fill="#737373" d="M 193.496094 71.609375 C 194.96875 74.027344 199.164062 80.960938 202.144531 77.117188 C 203.863281 75.132812 204.957031 72.679688 206.167969 70.363281 C 207.601562 67.359375 207.558594 66.988281 205.890625 64.191406 C 203.027344 59.777344 198.726562 56.441406 195.902344 52.097656 C 194.085938 54.128906 190.816406 58.75 190.824219 61.472656 C 190.648438 65.117188 191.820312 68.4375 193.496094 71.609375 Z M 193.496094 71.609375 " fill-opacity="1" fill-rule="nonzero"/><path fill="#737373" d="M 181.59375 40.246094 C 181.898438 45.34375 184.171875 51.179688 188.367188 54.523438 C 191.101562 57.410156 192.804688 52.0625 194.277344 50.304688 C 195.523438 48.417969 195.558594 46.554688 194.160156 44.710938 C 191.195312 40.785156 188.246094 36.835938 185.25 32.929688 C 183.421875 32.046875 181.359375 38.378906 181.59375 40.246094 Z M 181.59375 40.246094 " fill-opacity="1" fill-rule="nonzero"/><path fill="#737373" d="M 178.984375 32.652344 C 180.550781 34.308594 182.125 31.523438 183.167969 30.496094 C 184.425781 28.953125 184.476562 28.652344 183.355469 27.058594 C 180.871094 23.523438 178.328125 20.035156 175.792969 16.53125 C 174.285156 14.8125 173.449219 18.34375 172.851562 19.101562 C 173.730469 24.09375 175.496094 28.921875 178.984375 32.652344 Z M 178.984375 32.652344 " fill-opacity="1" fill-rule="nonzero"/><path fill="#737373" d="M 173.820312 12.027344 C 172.582031 7.367188 168.96875 3.679688 165.636719 0.394531 C 165.484375 0.234375 165.136719 0.285156 164.878906 0.234375 C 165.398438 4.714844 167.875 8.996094 169.777344 13.085938 C 170.949219 15.707031 173.585938 14.832031 173.820312 12.027344 Z M 173.820312 12.027344 " fill-opacity="1" fill-rule="nonzero"/></svg>